<?xml version="1.0" standalone="no"?>
<!DOCTYPE svg PUBLIC "-//W3C//DTD SVG 1.1//EN" "http://www.w3.org/Graphics/SVG/1.1/DTD/svg11.dtd" >
<svg xmlns="http://www.w3.org/2000/svg" xmlns:xlink="http://www.w3.org/1999/xlink" version="1.1">
<metadata>
Created by FontForge 20170731 at Fri Apr 28 13:21:38 2017
 By Aleksey,,,
Copyright (c) 2017 by Fja:llra:ven. All rights reserved.
</metadata>
<defs>
<font id="ArcticFox-Headline" horiz-adv-x="670" >
  <font-face 
    font-family="Arctic Fox Headline"
    font-weight="900"
    font-stretch="normal"
    units-per-em="1000"
    panose-1="0 0 10 0 0 0 0 0 0 0"
    ascent="750"
    descent="-250"
    x-height="700"
    cap-height="700"
    bbox="-368 -180 2688 944"
    underline-thickness="66"
    underline-position="-213"
    unicode-range="U+0020-222B"
  />
<missing-glyph horiz-adv-x="348" 
d="M304 700v-700h-260v700h260z" />
    <glyph glyph-name=".notdef" horiz-adv-x="348" 
d="M304 700v-700h-260v700h260z" />
    <glyph glyph-name=".null" horiz-adv-x="0" 
 />
    <glyph glyph-name="nonmarkingreturn" horiz-adv-x="333" 
 />
    <glyph glyph-name="space" unicode=" " horiz-adv-x="240" 
 />
    <glyph glyph-name="exclam" unicode="!" horiz-adv-x="296" 
d="M74 288q-31 31 -31 74v233q0 44 31 74.5t74 30.5q44 0 74.5 -30.5t30.5 -74.5v-233q0 -43 -30.5 -74t-74.5 -31q-43 0 -74 31zM224.5 184.5q31.5 -31.5 31.5 -76.5t-31.5 -76.5t-76.5 -31.5t-76.5 31.5t-31.5 76.5t31.5 76.5t76.5 31.5t76.5 -31.5z" />
    <glyph glyph-name="quotedbl" unicode="&#x22;" horiz-adv-x="438" 
d="M176.5 674.5q25.5 -25.5 25.5 -61.5v-129q0 -36 -26 -61.5t-62 -25.5t-62 25.5t-26 61.5v129q0 36 26 61.5t62 25.5q37 0 62.5 -25.5zM386.5 674.5q25.5 -25.5 25.5 -61.5v-129q0 -36 -26 -61.5t-62 -25.5t-62 25.5t-26 61.5v129q0 36 26 61.5t62 25.5q37 0 62.5 -25.5z
" />
    <glyph glyph-name="numbersign" unicode="#" horiz-adv-x="638" 
d="M504 389l-17 -78h41q25 0 42 -17t17 -42t-17 -42t-42 -17h-66l-31 -145q-4 -22 -21 -35t-39 -13q-28 0 -44.5 17.5t-16.5 42.5q0 9 1 13l26 120h-103l-31 -145q-4 -22 -21 -35t-39 -13q-28 0 -44.5 17.5t-16.5 42.5q0 9 1 13l26 120h-40q-25 0 -42 17t-17 42t17 42t42 17
h65l17 78h-41q-25 0 -42 17t-17 42t17 42t42 17h66l31 145q4 22 21 35t39 13q27 0 44 -18t17 -43q0 -8 -1 -12l-26 -120h103l31 145q4 22 21 35t39 13q27 0 44 -18t17 -43q0 -8 -1 -12l-26 -120h40q25 0 42 -17t17 -42t-17 -42t-42 -17h-65zM379 389h-103l-17 -78h103z" />
    <glyph glyph-name="dollar" unicode="$" horiz-adv-x="544" 
d="M493.5 108.5q-28.5 -47.5 -78 -78.5t-110.5 -38v-62q0 -13 -8.5 -21.5t-21.5 -8.5t-21.5 8.5t-8.5 21.5v61q-80 4 -129.5 33t-71.5 63q-17 27 -17 55q0 38 29 65t68 27q36 0 64 -24q32 -27 57 -36v93l-14 3q-206 47 -206 220q0 56 29 103.5t79 78.5t112 37v51
q0 13 8.5 21.5t21.5 8.5t21.5 -8.5t8.5 -21.5v-51q75 -5 120 -31.5t67 -59.5q18 -26 18 -55q0 -38 -28.5 -65t-67.5 -27q-36 0 -68 26q-24 19 -41 27v-89l11 -2q103 -22 154.5 -78.5t51.5 -143.5q0 -55 -28.5 -102.5zM245 451v81q-16 -4 -24.5 -14.5t-8.5 -25.5
q0 -27 33 -41zM327 184q8 10 8 24q0 29 -30 42v-81q14 5 22 15z" />
    <glyph glyph-name="percent" unicode="%" horiz-adv-x="753" 
d="M495.5 10q-38.5 21 -61 57.5t-22.5 82.5t22.5 83t61 58t82.5 21t82 -21t60.5 -58t22.5 -83t-22.5 -82.5t-60.5 -57.5t-82 -21t-82.5 21zM616 110q16 16 16 40q0 25 -16 41t-38 16t-38.5 -16t-16.5 -41q0 -24 16.5 -40t38.5 -16t38 16zM628 623l-420 -603
q-7 -10 -18 -15.5t-23 -5.5q-21 0 -34.5 15t-13.5 34q0 17 9 29l420 603q7 10 18 15.5t23 5.5q20 0 34 -14.5t14 -34.5q0 -17 -9 -29zM93.5 407q-38.5 21 -61 57.5t-22.5 82.5t22.5 83t61 58t82.5 21t82 -21t60.5 -58t22.5 -83t-22.5 -82.5t-60.5 -57.5t-82 -21t-82.5 21z
M214 507q16 16 16 40q0 25 -16 41t-38 16t-38.5 -16t-16.5 -41q0 -24 16.5 -40t38.5 -16t38 16z" />
    <glyph glyph-name="ampersand" unicode="&#x26;" horiz-adv-x="651" 
d="M615 240l-11 -18q-4 -7 -13 -21t-16 -24l23 -23q32 -32 32 -70q0 -36 -27.5 -63t-65.5 -27q-43 0 -80 37l-12 12q-80 -53 -181 -53q-80 0 -135.5 25.5t-83.5 69.5t-28 99q0 62 26.5 108.5t84.5 83.5q-48 70 -48 139q0 50 24 94.5t72.5 73t118.5 28.5t120.5 -25.5
t76 -67.5t25.5 -91q0 -54 -28.5 -96.5t-84.5 -80.5l45 -46l11 17l22 34q14 22 35 33t43 11q37 0 63 -23t26 -56q0 -24 -14 -47zM272.5 549q-10.5 -11 -10.5 -27q0 -13 9 -28.5t28 -36.5q39 29 39 62q0 19 -11.5 30t-27.5 11t-26.5 -11zM327 163l-90 91q-21 -21 -21 -48
q0 -22 18 -38t47 -16q22 0 46 11z" />
    <glyph glyph-name="quotesingle" unicode="'" horiz-adv-x="228" 
d="M176.5 674.5q25.5 -25.5 25.5 -61.5v-129q0 -36 -26 -61.5t-62 -25.5t-62 25.5t-26 61.5v129q0 36 26 61.5t62 25.5q37 0 62.5 -25.5z" />
    <glyph glyph-name="parenleft" unicode="(" horiz-adv-x="270" 
d="M30 345q0 109 34 198.5t104 164.5q20 21 46 21q23 0 39.5 -14.5t16.5 -35.5q0 -15 -12 -32q-57 -75 -82 -139.5t-25 -162.5q0 -67 12 -117t34.5 -91t60.5 -94q11 -15 11 -32q0 -21 -16 -35.5t-38 -14.5q-26 0 -47 21q-138 139 -138 363z" />
    <glyph glyph-name="parenright" unicode=")" horiz-adv-x="270" 
d="M55 -39q-22 0 -38 14.5t-16 35.5q0 17 11 32q38 53 60.5 94t34.5 91t12 117q0 98 -25 162.5t-82 139.5q-12 17 -12 32q0 21 16.5 35.5t39.5 14.5q26 0 46 -21q70 -75 104 -164.5t34 -198.5q0 -224 -138 -363q-21 -21 -47 -21z" />
    <glyph glyph-name="asterisk" unicode="*" horiz-adv-x="374" 
d="M364 456q0 -18 -12.5 -31.5t-29.5 -13.5q-11 0 -20 6l-76 47l3 -89q1 -18 -11.5 -29.5t-30.5 -11.5t-30.5 11.5t-11.5 29.5l3 89l-76 -47q-11 -6 -21 -6q-17 0 -29 13.5t-12 31.5q0 24 20 34l79 42l-79 42q-20 10 -20 34q0 18 12.5 31.5t29.5 13.5q11 0 20 -6l76 -47
l-3 89q-1 18 11.5 29.5t30.5 11.5t30.5 -11.5t11.5 -29.5l-3 -89l76 47q11 6 21 6q17 0 29 -13.5t12 -31.5q0 -24 -20 -34l-78 -42l78 -42q20 -10 20 -34z" />
    <glyph glyph-name="plus" unicode="+" horiz-adv-x="544" 
d="M505 421.5q29 -28.5 29 -69.5t-29 -70t-70 -29h-65v-65q0 -41 -28.5 -70t-69.5 -29t-70 29t-29 70v65h-65q-41 0 -69.5 29t-28.5 70t29 69.5t69 28.5h65v65q0 41 29 69.5t70 28.5t69.5 -28.5t28.5 -69.5v-65h65q41 0 70 -28.5z" />
    <glyph glyph-name="comma" unicode="," horiz-adv-x="243" 
d="M172.5 201q26.5 -15 43.5 -44t17 -70q0 -85 -41 -145t-107 -83q-9 -3 -17 -3q-18 0 -29 12t-11 29q0 11 6 21t17 16q34 19 53 35t27 37q-6 -1 -16 -1q-31 0 -55 15t-37 39t-13 49q0 45 31.5 76.5t75.5 31.5q29 0 55.5 -15z" />
    <glyph glyph-name="hyphen" unicode="-" horiz-adv-x="434" 
d="M395 411.5q29 -28.5 29 -69.5t-29 -70t-70 -29h-217q-41 0 -69.5 29t-28.5 70t29 69.5t69 28.5h217q41 0 70 -28.5z" />
    <glyph glyph-name="period" unicode="." horiz-adv-x="236" 
d="M41.5 31.5q-31.5 31.5 -31.5 76.5t31.5 76.5t76.5 31.5t76.5 -31.5t31.5 -76.5t-31.5 -76.5t-76.5 -31.5t-76.5 31.5z" />
    <glyph glyph-name="slash" unicode="/" horiz-adv-x="367" 
d="M340.5 683.5q18.5 -20.5 18.5 -48.5q0 -15 -4 -26l-207 -568q-8 -21 -27 -34t-42 -13q-33 0 -52 20.5t-19 48.5q0 11 5 26l207 568q8 21 27 34t42 13q33 0 51.5 -20.5z" />
    <glyph glyph-name="zero" unicode="0" horiz-adv-x="640" 
d="M165.5 36q-66.5 44 -103.5 125.5t-37 188.5t37 188.5t103.5 125.5t154.5 44t154.5 -44t103.5 -125.5t37 -188.5t-37 -188.5t-103.5 -125.5t-154.5 -44t-154.5 44zM390 233q25 41 25 117t-25 117t-70 41t-70 -41t-25 -117t25 -117t70 -41t70 41z" />
    <glyph glyph-name="one" unicode="1" horiz-adv-x="380" 
d="M294.5 669.5q30.5 -30.5 30.5 -74.5v-490q0 -43 -30.5 -74t-74.5 -31t-74.5 30.5t-30.5 74.5v398h-15q-41 0 -69.5 29t-28.5 70t29 69.5t69 28.5h120q44 0 74.5 -30.5z" />
    <glyph glyph-name="two" unicode="2" horiz-adv-x="518" 
d="M487 158.5q27 -26.5 27 -64.5q0 -40 -27 -67t-67 -27h-320q-38 0 -64.5 27t-26.5 67q0 18 10.5 39.5t23.5 35.5l164 178q53 57 70 84.5t17 52.5q0 20 -13.5 31.5t-34.5 11.5q-19 0 -34.5 -10.5t-36.5 -31.5q-30 -30 -69 -30t-68.5 25.5t-29.5 64.5q0 31 19 61
q30 47 86.5 75.5t129.5 28.5q81 0 137.5 -30t84.5 -80t28 -109q0 -52 -18 -95.5t-48.5 -82.5t-88.5 -100l-26 -28h108q40 0 67 -26.5z" />
    <glyph glyph-name="three" unicode="3" horiz-adv-x="506" 
d="M470 306q21 -40 21 -90q0 -63 -31.5 -114.5t-90 -81.5t-137.5 -30q-54 0 -106 18.5t-83 53.5q-27 30 -27 64q0 37 26.5 63.5t65.5 26.5q21 0 41 -10q6 -3 26.5 -14.5t36 -16.5t28.5 -5q22 0 34.5 13.5t12.5 33.5q0 24 -17 36t-48 12h-22q-43 0 -70.5 25.5t-27.5 66.5
t27.5 69t70.5 28h25q58 0 58 39q0 17 -12 27t-34 10q-19 0 -35 -7t-41 -23q-23 -14 -45 -14q-36 0 -64 27.5t-28 63.5t30 66q32 32 82 49.5t102 17.5q75 0 129 -28t81 -73.5t27 -96.5q0 -92 -64 -140q38 -26 59 -66z" />
    <glyph glyph-name="four" unicode="4" horiz-adv-x="630" 
d="M601 285q28 -28 28 -68q0 -39 -28 -67t-67 -28v-21q0 -42 -29.5 -71.5t-71.5 -29.5t-71.5 29t-29.5 72v21h-208q-41 0 -70 28t-29 67q0 18 8.5 42.5t17.5 42.5l171 341q14 27 39 42t54 15q45 0 73 -28.5t28 -70.5q0 -23 -10 -43l-125 -245h51v15q0 43 29.5 72t71.5 29
t71.5 -29.5t29.5 -71.5v-15q39 0 67 -28z" />
    <glyph glyph-name="five" unicode="5" horiz-adv-x="496" 
d="M427.5 390.5q63.5 -67.5 63.5 -167.5q0 -64 -31 -117t-89.5 -84.5t-137.5 -31.5q-54 0 -106 18.5t-83 53.5q-26 29 -26 64q0 37 26.5 64t63.5 27q23 0 42 -11q28 -17 48 -25t43 -8q24 0 37.5 14.5t13.5 35.5q0 25 -18 39.5t-48 14.5q-20 0 -54 -10q-27 -9 -45 -9
q-29 0 -54.5 14.5t-39.5 38.5t-11 52l22 232q4 44 33 74.5t72 30.5h228q41 0 69.5 -28.5t28.5 -69.5t-28.5 -70t-69.5 -29h-143l-4 -43q134 -2 197.5 -69.5z" />
    <glyph glyph-name="six" unicode="6" horiz-adv-x="585" 
d="M508.5 406.5q53.5 -61.5 53.5 -155.5q0 -75 -34 -134.5t-95 -93t-138 -33.5t-138 33.5t-95 93t-34 134.5t41 146l145 252q14 24 38 37.5t51 13.5q45 0 75.5 -29.5t30.5 -73.5q0 -29 -14 -55l-31 -56q91 -18 144.5 -79.5zM349.5 197.5q22.5 20.5 22.5 53.5t-22.5 53.5
t-54.5 20.5t-54.5 -20.5t-22.5 -53.5t22.5 -53.5t54.5 -20.5t54.5 20.5z" />
    <glyph glyph-name="seven" unicode="7" horiz-adv-x="537" 
d="M508 671.5q29 -28.5 29 -69.5q0 -30 -26 -82l-220 -463q-13 -27 -38 -42t-55 -15q-44 0 -72.5 28.5t-28.5 69.5q0 22 10 44l172 361h-177q-41 0 -69.5 29t-28.5 70t29 69.5t69 28.5h336q41 0 70 -28.5z" />
    <glyph glyph-name="eight" unicode="8" horiz-adv-x="570" 
d="M535.5 301q19.5 -40 19.5 -89q0 -65 -34.5 -115.5t-96 -78.5t-139.5 -28t-139.5 28t-96 78.5t-34.5 115.5q0 49 19.5 89t55.5 70q-53 53 -53 132q0 60 31.5 107t88 73.5t128.5 26.5t128.5 -26.5t88 -73.5t31.5 -107q0 -79 -53 -132q36 -30 55.5 -70zM241.5 536
q-16.5 -16 -16.5 -40t16.5 -40t43.5 -16t43.5 16t16.5 40t-16.5 40t-43.5 16t-43.5 -16zM337 173.5q20 19.5 20 48.5t-20 48.5t-52 19.5t-52 -19.5t-20 -48.5t20 -48.5t52 -19.5t52 19.5z" />
    <glyph glyph-name="nine" unicode="9" horiz-adv-x="585" 
d="M428 676.5q61 -33.5 95 -93t34 -134.5t-41 -146l-145 -252q-14 -24 -38 -37.5t-51 -13.5q-45 0 -75.5 29.5t-30.5 73.5q0 29 14 55l31 56q-91 18 -144.5 79.5t-53.5 155.5q0 75 34 134.5t95 93t138 33.5t138 -33.5zM344.5 395.5q22.5 20.5 22.5 53.5t-22.5 53.5
t-54.5 20.5t-54.5 -20.5t-22.5 -53.5t22.5 -53.5t54.5 -20.5t54.5 20.5z" />
    <glyph glyph-name="colon" unicode=":" horiz-adv-x="276" 
d="M61.5 31.5q-31.5 31.5 -31.5 76.5t31.5 76.5t76.5 31.5t76.5 -31.5t31.5 -76.5t-31.5 -76.5t-76.5 -31.5t-76.5 31.5zM61.5 386.5q-31.5 31.5 -31.5 76.5t31.5 76.5t76.5 31.5t76.5 -31.5t31.5 -76.5t-31.5 -76.5t-76.5 -31.5t-76.5 31.5z" />
    <glyph glyph-name="semicolon" unicode=";" horiz-adv-x="276" 
d="M175.5 201q26.5 -15 43.5 -44t17 -70q0 -85 -41 -145t-107 -83q-9 -3 -17 -3q-18 0 -29 12t-11 29q0 11 6 21t17 16q34 19 53 35t27 37q-6 -1 -16 -1q-31 0 -55 15t-37 39t-13 49q0 45 31.5 76.5t75.5 31.5q29 0 55.5 -15zM61.5 386.5q-31.5 31.5 -31.5 76.5t31.5 76.5
t76.5 31.5t76.5 -31.5t31.5 -76.5t-31.5 -76.5t-76.5 -31.5t-76.5 31.5z" />
    <glyph glyph-name="less" unicode="&#x3c;" horiz-adv-x="500" 
d="M343 608q22 13 49 13q42 0 70 -29t28 -71q0 -26 -13 -49t-36 -35l-148 -79l148 -80q23 -12 36 -35t13 -49q0 -42 -28 -71t-70 -29q-27 0 -49 13l-283 164q-24 14 -37 37t-13 50q0 26 13 49t37 37z" />
    <glyph glyph-name="equal" unicode="=" horiz-adv-x="550" 
d="M508 301.5q29 -28.5 29 -69.5t-29 -70t-70 -29h-327q-41 0 -69.5 29t-28.5 70t29 69.5t69 28.5h327q41 0 70 -28.5zM508 541.5q29 -28.5 29 -69.5t-29 -70t-70 -29h-327q-41 0 -69.5 29t-28.5 70t29 69.5t69 28.5h327q41 0 70 -28.5z" />
    <glyph glyph-name="greater" unicode="&#x3e;" horiz-adv-x="500" 
d="M477 407q13 -23 13 -49q0 -27 -13 -50t-37 -37l-283 -164q-22 -13 -49 -13q-42 0 -70 29t-28 71q0 26 13 49t36 35l148 80l-148 79q-23 12 -36 35t-13 49q0 42 28 71t70 29q27 0 49 -13l283 -164q24 -14 37 -37z" />
    <glyph glyph-name="question" unicode="?" horiz-adv-x="434" 
d="M417.5 426q-16.5 -42 -53.5 -82l-61 -65q-20 -20 -40 -31t-45 -11q-43 0 -73.5 31t-30.5 74q0 66 78 109q25 14 35 24.5t10 25.5q0 12 -7.5 20t-21.5 8q-16 0 -28 -7.5t-32 -27.5q-21 -21 -53 -21q-36 0 -65.5 25.5t-29.5 62.5q0 32 24 66q32 45 78.5 64t109.5 19
q71 0 121 -27t75.5 -70t25.5 -91q0 -54 -16.5 -96zM143.5 31.5q-31.5 31.5 -31.5 76.5t31.5 76.5t76.5 31.5t76.5 -31.5t31.5 -76.5t-31.5 -76.5t-76.5 -31.5t-76.5 31.5z" />
    <glyph glyph-name="at" unicode="@" horiz-adv-x="895" 
d="M635 307q-3 -18 -3 -33q0 -59 47 -59q41 0 67.5 48t26.5 132q0 93 -42.5 157t-113.5 95.5t-155 31.5q-95 0 -171.5 -47t-120 -127.5t-43.5 -177.5q0 -103 45.5 -174t123 -106t175.5 -35q92 0 167 28q9 4 21 4q19 0 32 -12t13 -30q0 -22 -22 -35q-38 -21 -94 -32t-118 -11
q-133 0 -233.5 49.5t-155.5 141t-55 213.5q0 120 57 220.5t156.5 159t222.5 58.5q115 0 208 -46.5t146 -131t53 -195.5q0 -82 -25.5 -143t-71.5 -94.5t-105 -33.5q-52 0 -85 19.5t-49 50.5q-23 -32 -59.5 -51t-82.5 -19q-73 0 -120.5 47t-47.5 129q0 68 28 129.5t80 99
t119 37.5q35 0 64 -13.5t45 -35.5q6 17 20.5 26t31.5 9q25 0 42 -16.5t17 -40.5q0 -8 -1 -13zM469 262.5q22 25.5 32.5 61.5t10.5 66q0 29 -13.5 45t-37.5 16q-45 0 -73 -45t-28 -102q0 -32 13.5 -49.5t39.5 -17.5q34 0 56 25.5z" />
    <glyph glyph-name="A" unicode="A" 
d="M663 104q0 -44 -29 -74t-74 -30q-35 0 -61.5 18t-37.5 50l-14 41h-224l-14 -41q-11 -32 -37.5 -50t-60.5 -18q-46 0 -75 30t-29 74q0 27 10 50l195 461q37 85 123 85q87 0 124 -85l194 -461q10 -23 10 -50zM387 278l-52 147l-52 -147h104z" />
    <glyph glyph-name="B" unicode="B" horiz-adv-x="610" 
d="M569 289q21 -39 21 -87q0 -62 -32 -108t-87 -70t-122 -24h-200q-43 0 -74 31t-31 74v490q0 44 31 74.5t74 30.5h190q108 0 174 -53.5t66 -147.5q0 -88 -68 -145q37 -26 58 -65zM254 425h71q26 0 39.5 13t13.5 34t-13.5 34t-39.5 13h-71v-94zM366 194.5q14 13.5 14 34.5
t-14 34.5t-40 13.5h-72v-96h72q26 0 40 13.5z" />
    <glyph glyph-name="C" unicode="C" horiz-adv-x="679" 
d="M202 38q-82 48 -129 130.5t-47 181.5t47 181.5t129 130.5t182 48q144 0 236 -81q38 -34 38 -78q0 -42 -30 -73.5t-73 -31.5q-29 0 -54 15q-33 20 -57.5 29.5t-59.5 9.5q-42 0 -75.5 -20t-52.5 -54t-19 -76t19 -76t52.5 -54t75.5 -20q35 0 59.5 9.5t57.5 29.5q23 14 54 14
q43 0 73 -31t30 -73q0 -44 -38 -78q-92 -81 -236 -81q-100 0 -182 48z" />
    <glyph glyph-name="D" unicode="D" horiz-adv-x="700" 
d="M502 653q80 -47 126 -127.5t46 -175.5t-46 -175.5t-126 -127.5t-176 -47h-177q-43 0 -74 31t-31 74v490q0 44 31 74.5t74 30.5h177q96 0 176 -47zM396.5 228.5q31.5 18.5 49.5 50.5t18 71t-18 71t-49.5 50.5t-70.5 18.5h-72v-280h72q39 0 70.5 18.5z" />
    <glyph glyph-name="E" unicode="E" horiz-adv-x="553" 
d="M508 168.5q29 -28.5 29 -69.5t-29 -70t-70 -29h-289q-43 0 -74 31t-31 74v490q0 44 31 74.5t74 30.5h289q41 0 70 -28.5t29 -69.5t-29 -70t-70 -29h-184v-65h151q35 0 60 -25t25 -60t-25 -60t-60 -25h-151v-71h184q41 0 70 -28.5z" />
    <glyph glyph-name="F" unicode="F" horiz-adv-x="543" 
d="M254 503v-70h151q35 0 60 -25t25 -60t-25 -60t-60 -25h-151v-158q0 -43 -30.5 -74t-74.5 -31q-43 0 -74 31t-31 74v490q0 44 31 74.5t74 30.5h289q41 0 70 -28.5t29 -69.5t-29 -70t-70 -29h-184z" />
    <glyph glyph-name="G" unicode="G" horiz-adv-x="730" 
d="M686.5 373q23.5 -29 23.5 -69q0 -90 -41.5 -161.5t-115.5 -112t-168 -40.5q-99 0 -181 48t-130 130.5t-48 181.5t47 181.5t129 130.5t182 48q144 0 236 -81q38 -34 38 -79q0 -42 -30 -73t-72 -31q-30 0 -55 15q-33 20 -57.5 29.5t-59.5 9.5q-42 0 -75.5 -20t-52.5 -55
t-19 -78q0 -72 41.5 -120t108.5 -48q41 0 71 15.5t47 41.5h-100q-34 0 -58.5 24.5t-24.5 58.5q0 35 24.5 59t58.5 24h223q35 0 58.5 -29z" />
    <glyph glyph-name="H" unicode="H" horiz-adv-x="674" 
d="M599.5 669.5q30.5 -30.5 30.5 -74.5v-490q0 -43 -30.5 -74t-74.5 -31q-43 0 -74 31t-31 74v148h-166v-148q0 -43 -30.5 -74t-74.5 -31q-43 0 -74 31t-31 74v490q0 44 31 74.5t74 30.5q44 0 74.5 -30.5t30.5 -74.5v-145h166v145q0 44 31 74.5t74 30.5q44 0 74.5 -30.5z
" />
    <glyph glyph-name="I" unicode="I" horiz-adv-x="298" 
d="M223.5 669.5q30.5 -30.5 30.5 -74.5v-490q0 -43 -30.5 -74t-74.5 -31q-43 0 -74 31t-31 74v490q0 44 31 74.5t74 30.5q44 0 74.5 -30.5z" />
    <glyph glyph-name="J" unicode="J" horiz-adv-x="538" 
d="M123.5 9q-50.5 18 -81.5 49t-31 73q0 40 29 70t70 30q28 0 55 -15t41 -20.5t35 -5.5q22 0 35.5 12.5t13.5 35.5v357q0 44 31 74.5t74 30.5q44 0 74.5 -30.5t30.5 -74.5v-358q0 -66 -31 -122.5t-89.5 -90t-137.5 -33.5q-68 0 -118.5 18z" />
    <glyph glyph-name="K" unicode="K" horiz-adv-x="642" 
d="M626 105q0 -42 -29.5 -73.5t-75.5 -31.5q-26 0 -49 12.5t-38 33.5l-129 184l-51 -54v-71q0 -43 -30.5 -74t-74.5 -31q-43 0 -74 31t-31 74v490q0 44 31 74.5t74 30.5q44 0 74.5 -30.5t30.5 -74.5v-124l175 194q33 36 78 36q47 0 76.5 -31.5t29.5 -73.5q0 -43 -29 -73
l-136 -143l157 -212q21 -28 21 -63z" />
    <glyph glyph-name="L" unicode="L" horiz-adv-x="529" 
d="M496 168.5q29 -28.5 29 -69.5t-29 -70t-70 -29h-277q-43 0 -74 31t-31 74v490q0 44 31 74.5t74 30.5q44 0 74.5 -30.5t30.5 -74.5v-398h172q41 0 70 -28.5z" />
    <glyph glyph-name="M" unicode="M" horiz-adv-x="794" 
d="M720 670q30 -30 30 -72v-496q0 -42 -30 -72t-72 -30t-72 30t-30 72v204l-79 -127q-12 -20 -30.5 -30t-39.5 -10t-39.5 10t-30.5 30l-79 127v-204q0 -42 -30 -72t-72 -30t-72 30t-30 72v496q0 42 30 72t74 30q37 0 61 -17.5t44 -49.5l144 -241l145 241q20 33 43.5 50
t60.5 17q44 0 74 -30z" />
    <glyph glyph-name="N" unicode="N" horiz-adv-x="674" 
d="M599.5 669.5q30.5 -30.5 30.5 -74.5v-490q0 -44 -30 -74.5t-74 -30.5q-29 0 -53 14.5t-40 38.5l-179 271v-219q0 -43 -30.5 -74t-74.5 -31q-43 0 -74 31t-31 74v490q0 44 31 74.5t74 30.5q57 0 92 -53l179 -268v216q0 44 31 74.5t74 30.5q44 0 74.5 -30.5z" />
    <glyph glyph-name="O" unicode="O" horiz-adv-x="768" 
d="M203 38.5q-82 48.5 -129.5 131t-47.5 180.5t47.5 180.5t129.5 131t181 48.5t181 -48.5t129.5 -131t47.5 -180.5t-47.5 -180.5t-129.5 -131t-181 -48.5t-181 48.5zM459.5 220q33.5 20 53 54t19.5 76t-19.5 76t-53 54t-75.5 20t-75.5 -20t-53 -54t-19.5 -76t19.5 -76
t53 -54t75.5 -20t75.5 20z" />
    <glyph glyph-name="P" unicode="P" horiz-adv-x="612" 
d="M463 670.5q60 -29.5 95.5 -85.5t35.5 -131t-35.5 -131t-95.5 -85.5t-134 -29.5h-75v-103q0 -43 -30.5 -74t-74.5 -31q-43 0 -74 31t-31 74v490q0 44 31 74.5t74 30.5h180q74 0 134 -29.5zM368.5 416q15.5 15 15.5 38t-15.5 38t-44.5 15h-70v-106h70q29 0 44.5 15z" />
    <glyph glyph-name="Q" unicode="Q" horiz-adv-x="768" 
d="M681 40q9 -10 9 -23q0 -17 -13 -27q-10 -9 -26 -9q-17 0 -28 12l-45 53q-88 -56 -194 -56q-99 0 -181 48.5t-129.5 131t-47.5 180.5t47.5 180.5t129.5 131t181 48.5t181 -48.5t129.5 -131t47.5 -180.5q0 -74 -28 -140.5t-78 -116.5zM440 210l-53 63q-9 11 -9 23
q0 16 14 27q12 9 27 9q17 0 27 -12l54 -65q32 42 32 95q0 42 -19.5 76t-53 54t-75.5 20t-75.5 -20t-53 -54t-19.5 -76t19.5 -76t53 -54t75.5 -20q28 0 56 10z" />
    <glyph glyph-name="R" unicode="R" horiz-adv-x="618" 
d="M575 167q21 -28 21 -62q0 -43 -29.5 -74.5t-75.5 -31.5q-26 0 -49 12.5t-38 33.5l-140 200h-10v-140q0 -43 -30.5 -74t-74.5 -31q-43 0 -74 31t-31 74v490q0 44 31 74.5t74 30.5h189q72 0 132 -28t95 -81t35 -124q0 -62 -29.5 -109.5t-80.5 -75.5zM254 407h79
q27 0 42 14.5t15 35.5q0 22 -15 36t-42 14h-79v-100z" />
    <glyph glyph-name="S" unicode="S" horiz-adv-x="537" 
d="M116.5 20q-55.5 30 -79.5 67q-17 27 -17 55q0 39 28.5 66t67.5 27q35 0 66 -25q26 -22 47 -32.5t44 -10.5q22 0 35.5 11t13.5 30t-13.5 30.5t-44.5 18.5l-40 9q-102 23 -154 80t-52 144q0 60 33 110.5t90.5 80t125.5 29.5q89 0 141 -27.5t77 -64.5q18 -29 18 -56
q0 -38 -28 -65t-68 -27q-37 0 -69 26q-24 21 -41.5 29t-38.5 8q-22 0 -34.5 -11t-12.5 -30q0 -33 57 -46l41 -9q102 -22 154 -80.5t52 -145.5q0 -61 -33.5 -111.5t-91.5 -80t-127 -29.5q-91 0 -146.5 30z" />
    <glyph glyph-name="T" unicode="T" horiz-adv-x="625" 
d="M590 671.5q29 -28.5 29 -69.5t-29 -70t-70 -29h-103v-398q0 -43 -30.5 -74t-74.5 -31q-43 0 -74 31t-31 74v398h-103q-41 0 -69.5 29t-28.5 70t29 69.5t69 28.5h416q41 0 70 -28.5z" />
    <glyph glyph-name="U" unicode="U" horiz-adv-x="662" 
d="M593.5 669.5q30.5 -30.5 30.5 -74.5v-320q0 -78 -37 -143.5t-104 -103.5t-152 -38t-152 38t-104 103.5t-37 143.5v320q0 44 31 74.5t74 30.5q44 0 74.5 -30.5t30.5 -74.5v-301q0 -45 23.5 -69.5t59.5 -24.5t59.5 24.5t23.5 69.5v301q0 44 31 74.5t74 30.5
q44 0 74.5 -30.5z" />
    <glyph glyph-name="V" unicode="V" 
d="M633.5 669q29.5 -31 29.5 -75q0 -25 -10 -48l-195 -461q-37 -85 -123 -85q-87 0 -124 85l-194 461q-10 23 -10 48q0 44 30 75t74 31q35 0 61.5 -18t38.5 -50l124 -315l124 315q12 32 38.5 50t60.5 18q46 0 75.5 -31z" />
    <glyph glyph-name="W" unicode="W" horiz-adv-x="993" 
d="M947 668.5q29 -31.5 29 -73.5q0 -18 -6 -36l-163 -470q-14 -41 -45.5 -65t-77.5 -24q-47 0 -78.5 24t-43.5 64l-65 223l-66 -223q-12 -40 -43.5 -64t-78.5 -24q-46 0 -77.5 24t-45.5 65l-163 470q-6 18 -6 36q0 42 29 73.5t74 31.5q37 0 64.5 -21t36.5 -54l87 -319
l88 319q9 33 36 54t64 21t64 -21t36 -54l89 -319l87 319q9 33 36.5 54t64.5 21q45 0 74 -31.5z" />
    <glyph glyph-name="X" unicode="X" horiz-adv-x="673" 
d="M647 106q0 -45 -31.5 -75.5t-73.5 -30.5q-23 0 -44.5 10t-36.5 28l-125 149l-125 -149q-16 -19 -36.5 -28.5t-43.5 -9.5q-43 0 -74 30.5t-31 74.5q0 38 24 68l149 177l-149 177q-24 30 -24 68q0 45 31.5 75t73.5 30q23 0 43.5 -9.5t36.5 -28.5l125 -149l125 149
q16 19 36.5 28.5t43.5 9.5q43 0 74 -30.5t31 -74.5q0 -38 -24 -68l-149 -177l149 -177q25 -29 25 -67z" />
    <glyph glyph-name="Y" unicode="Y" horiz-adv-x="642" 
d="M620 546l-196 -298v-143q0 -43 -30.5 -74t-74.5 -31q-43 0 -74 31t-31 74v147l-192 294q-16 25 -16 54q0 41 32 70.5t76 29.5q33 0 56.5 -17t43.5 -51l107 -178l107 178q20 34 43 51t56 17q45 0 77 -29.5t32 -70.5q0 -29 -16 -54z" />
    <glyph glyph-name="Z" unicode="Z" horiz-adv-x="594" 
d="M545 168.5q29 -28.5 29 -69.5t-29 -70t-70 -29h-357q-41 0 -69.5 29t-28.5 70q0 32 22 62l250 342h-174q-41 0 -69.5 29t-28.5 70t29 69.5t69 28.5h357q41 0 70 -28.5t29 -69.5q0 -34 -20 -60l-253 -345h174q41 0 70 -28.5z" />
    <glyph glyph-name="bracketleft" unicode="[" horiz-adv-x="269" 
d="M245.5 706q14.5 -14 14.5 -34q0 -21 -14.5 -35t-35.5 -14h-44v-547h43q21 0 36 -14t15 -34t-14.5 -34t-35.5 -14h-115q-21 0 -36 14.5t-15 35.5v640q0 21 14.5 35.5t35.5 14.5h116q21 0 35.5 -14z" />
    <glyph glyph-name="backslash" unicode="\" horiz-adv-x="367" 
d="M120 691q19 -13 27 -34l207 -568q5 -15 5 -26q0 -28 -19 -48.5t-52 -20.5q-23 0 -42 13t-27 34l-207 568q-4 11 -4 26q0 28 18.5 48.5t51.5 20.5q23 0 42 -13z" />
    <glyph glyph-name="bracketright" unicode="]" horiz-adv-x="269" 
d="M175 720q21 0 35.5 -14.5t14.5 -35.5v-640q0 -21 -15 -35.5t-36 -14.5h-115q-21 0 -35.5 14t-14.5 34t15 34t36 14h43v547h-44q-21 0 -35.5 14t-14.5 35q0 20 14.5 34t35.5 14h116z" />
    <glyph glyph-name="underscore" unicode="_" horiz-adv-x="600" 
d="M605 -180h-610v66h610v-66z" />
    <glyph glyph-name="grave" unicode="`" horiz-adv-x="188" 
d="M173.5 771.5q4.5 -8.5 4.5 -17.5q0 -15 -10.5 -25t-24.5 -10q-9 0 -16 4l-100 51q-7 4 -12 12.5t-5 17.5q0 15 11 25t24 10q8 0 14 -3l101 -52q9 -4 13.5 -12.5z" />
    <glyph glyph-name="a" unicode="a" 
d="M663 104q0 -44 -29 -74t-74 -30q-35 0 -61.5 18t-37.5 50l-14 41h-224l-14 -41q-11 -32 -37.5 -50t-60.5 -18q-46 0 -75 30t-29 74q0 27 10 50l195 461q37 85 123 85q87 0 124 -85l194 -461q10 -23 10 -50zM387 278l-52 147l-52 -147h104z" />
    <glyph glyph-name="b" unicode="b" horiz-adv-x="610" 
d="M569 289q21 -39 21 -87q0 -62 -32 -108t-87 -70t-122 -24h-200q-43 0 -74 31t-31 74v490q0 44 31 74.5t74 30.5h190q108 0 174 -53.5t66 -147.5q0 -88 -68 -145q37 -26 58 -65zM254 425h71q26 0 39.5 13t13.5 34t-13.5 34t-39.5 13h-71v-94zM366 194.5q14 13.5 14 34.5
t-14 34.5t-40 13.5h-72v-96h72q26 0 40 13.5z" />
    <glyph glyph-name="c" unicode="c" horiz-adv-x="679" 
d="M202 38q-82 48 -129 130.5t-47 181.5t47 181.5t129 130.5t182 48q144 0 236 -81q38 -34 38 -78q0 -42 -30 -73.5t-73 -31.5q-29 0 -54 15q-33 20 -57.5 29.5t-59.5 9.5q-42 0 -75.5 -20t-52.5 -54t-19 -76t19 -76t52.5 -54t75.5 -20q35 0 59.5 9.5t57.5 29.5q23 14 54 14
q43 0 73 -31t30 -73q0 -44 -38 -78q-92 -81 -236 -81q-100 0 -182 48z" />
    <glyph glyph-name="d" unicode="d" horiz-adv-x="700" 
d="M502 653q80 -47 126 -127.5t46 -175.5t-46 -175.5t-126 -127.5t-176 -47h-177q-43 0 -74 31t-31 74v490q0 44 31 74.5t74 30.5h177q96 0 176 -47zM396.5 228.5q31.5 18.5 49.5 50.5t18 71t-18 71t-49.5 50.5t-70.5 18.5h-72v-280h72q39 0 70.5 18.5z" />
    <glyph glyph-name="e" unicode="e" horiz-adv-x="553" 
d="M508 168.5q29 -28.5 29 -69.5t-29 -70t-70 -29h-289q-43 0 -74 31t-31 74v490q0 44 31 74.5t74 30.5h289q41 0 70 -28.5t29 -69.5t-29 -70t-70 -29h-184v-65h151q35 0 60 -25t25 -60t-25 -60t-60 -25h-151v-71h184q41 0 70 -28.5z" />
    <glyph glyph-name="f" unicode="f" horiz-adv-x="543" 
d="M254 503v-70h151q35 0 60 -25t25 -60t-25 -60t-60 -25h-151v-158q0 -43 -30.5 -74t-74.5 -31q-43 0 -74 31t-31 74v490q0 44 31 74.5t74 30.5h289q41 0 70 -28.5t29 -69.5t-29 -70t-70 -29h-184z" />
    <glyph glyph-name="g" unicode="g" horiz-adv-x="730" 
d="M686.5 373q23.5 -29 23.5 -69q0 -90 -41.5 -161.5t-115.5 -112t-168 -40.5q-99 0 -181 48t-130 130.5t-48 181.5t47 181.5t129 130.5t182 48q144 0 236 -81q38 -34 38 -79q0 -42 -30 -73t-72 -31q-30 0 -55 15q-33 20 -57.5 29.5t-59.5 9.5q-42 0 -75.5 -20t-52.5 -55
t-19 -78q0 -72 41.5 -120t108.5 -48q41 0 71 15.5t47 41.5h-100q-34 0 -58.5 24.5t-24.5 58.5q0 35 24.5 59t58.5 24h223q35 0 58.5 -29z" />
    <glyph glyph-name="h" unicode="h" horiz-adv-x="674" 
d="M599.5 669.5q30.5 -30.5 30.5 -74.5v-490q0 -43 -30.5 -74t-74.5 -31q-43 0 -74 31t-31 74v148h-166v-148q0 -43 -30.5 -74t-74.5 -31q-43 0 -74 31t-31 74v490q0 44 31 74.5t74 30.5q44 0 74.5 -30.5t30.5 -74.5v-145h166v145q0 44 31 74.5t74 30.5q44 0 74.5 -30.5z
" />
    <glyph glyph-name="i" unicode="i" horiz-adv-x="298" 
d="M223.5 669.5q30.5 -30.5 30.5 -74.5v-490q0 -43 -30.5 -74t-74.5 -31q-43 0 -74 31t-31 74v490q0 44 31 74.5t74 30.5q44 0 74.5 -30.5z" />
    <glyph glyph-name="j" unicode="j" horiz-adv-x="538" 
d="M123.5 9q-50.5 18 -81.5 49t-31 73q0 40 29 70t70 30q28 0 55 -15t41 -20.5t35 -5.5q22 0 35.5 12.5t13.5 35.5v357q0 44 31 74.5t74 30.5q44 0 74.5 -30.5t30.5 -74.5v-358q0 -66 -31 -122.5t-89.5 -90t-137.5 -33.5q-68 0 -118.5 18z" />
    <glyph glyph-name="k" unicode="k" horiz-adv-x="642" 
d="M626 105q0 -42 -29.5 -73.5t-75.5 -31.5q-26 0 -49 12.5t-38 33.5l-129 184l-51 -54v-71q0 -43 -30.5 -74t-74.5 -31q-43 0 -74 31t-31 74v490q0 44 31 74.5t74 30.5q44 0 74.5 -30.5t30.5 -74.5v-124l175 194q33 36 78 36q47 0 76.5 -31.5t29.5 -73.5q0 -43 -29 -73
l-136 -143l157 -212q21 -28 21 -63z" />
    <glyph glyph-name="l" unicode="l" horiz-adv-x="529" 
d="M496 168.5q29 -28.5 29 -69.5t-29 -70t-70 -29h-277q-43 0 -74 31t-31 74v490q0 44 31 74.5t74 30.5q44 0 74.5 -30.5t30.5 -74.5v-398h172q41 0 70 -28.5z" />
    <glyph glyph-name="m" unicode="m" horiz-adv-x="794" 
d="M720 670q30 -30 30 -72v-496q0 -42 -30 -72t-72 -30t-72 30t-30 72v204l-79 -127q-12 -20 -30.5 -30t-39.5 -10t-39.5 10t-30.5 30l-79 127v-204q0 -42 -30 -72t-72 -30t-72 30t-30 72v496q0 42 30 72t74 30q37 0 61 -17.5t44 -49.5l144 -241l145 241q20 33 43.5 50
t60.5 17q44 0 74 -30z" />
    <glyph glyph-name="n" unicode="n" horiz-adv-x="674" 
d="M599.5 669.5q30.5 -30.5 30.5 -74.5v-490q0 -44 -30 -74.5t-74 -30.5q-29 0 -53 14.5t-40 38.5l-179 271v-219q0 -43 -30.5 -74t-74.5 -31q-43 0 -74 31t-31 74v490q0 44 31 74.5t74 30.5q57 0 92 -53l179 -268v216q0 44 31 74.5t74 30.5q44 0 74.5 -30.5z" />
    <glyph glyph-name="o" unicode="o" horiz-adv-x="768" 
d="M203 38.5q-82 48.5 -129.5 131t-47.5 180.5t47.5 180.5t129.5 131t181 48.5t181 -48.5t129.5 -131t47.5 -180.5t-47.5 -180.5t-129.5 -131t-181 -48.5t-181 48.5zM459.5 220q33.5 20 53 54t19.5 76t-19.5 76t-53 54t-75.5 20t-75.5 -20t-53 -54t-19.5 -76t19.5 -76
t53 -54t75.5 -20t75.5 20z" />
    <glyph glyph-name="p" unicode="p" horiz-adv-x="612" 
d="M463 670.5q60 -29.5 95.5 -85.5t35.5 -131t-35.5 -131t-95.5 -85.5t-134 -29.5h-75v-103q0 -43 -30.5 -74t-74.5 -31q-43 0 -74 31t-31 74v490q0 44 31 74.5t74 30.5h180q74 0 134 -29.5zM368.5 416q15.5 15 15.5 38t-15.5 38t-44.5 15h-70v-106h70q29 0 44.5 15z" />
    <glyph glyph-name="q" unicode="q" horiz-adv-x="768" 
d="M681 40q9 -10 9 -23q0 -17 -13 -27q-10 -9 -26 -9q-17 0 -28 12l-45 53q-88 -56 -194 -56q-99 0 -181 48.5t-129.5 131t-47.5 180.5t47.5 180.5t129.5 131t181 48.5t181 -48.5t129.5 -131t47.5 -180.5q0 -74 -28 -140.5t-78 -116.5zM440 210l-53 63q-9 11 -9 23
q0 16 14 27q12 9 27 9q17 0 27 -12l54 -65q32 42 32 95q0 42 -19.5 76t-53 54t-75.5 20t-75.5 -20t-53 -54t-19.5 -76t19.5 -76t53 -54t75.5 -20q28 0 56 10z" />
    <glyph glyph-name="r" unicode="r" horiz-adv-x="618" 
d="M575 167q21 -28 21 -62q0 -43 -29.5 -74.5t-75.5 -31.5q-26 0 -49 12.5t-38 33.5l-140 200h-10v-140q0 -43 -30.5 -74t-74.5 -31q-43 0 -74 31t-31 74v490q0 44 31 74.5t74 30.5h189q72 0 132 -28t95 -81t35 -124q0 -62 -29.5 -109.5t-80.5 -75.5zM254 407h79
q27 0 42 14.5t15 35.5q0 22 -15 36t-42 14h-79v-100z" />
    <glyph glyph-name="s" unicode="s" horiz-adv-x="537" 
d="M116.5 20q-55.5 30 -79.5 67q-17 27 -17 55q0 39 28.5 66t67.5 27q35 0 66 -25q26 -22 47 -32.5t44 -10.5q22 0 35.5 11t13.5 30t-13.5 30.5t-44.5 18.5l-40 9q-102 23 -154 80t-52 144q0 60 33 110.5t90.5 80t125.5 29.5q89 0 141 -27.5t77 -64.5q18 -29 18 -56
q0 -38 -28 -65t-68 -27q-37 0 -69 26q-24 21 -41.5 29t-38.5 8q-22 0 -34.5 -11t-12.5 -30q0 -33 57 -46l41 -9q102 -22 154 -80.5t52 -145.5q0 -61 -33.5 -111.5t-91.5 -80t-127 -29.5q-91 0 -146.5 30z" />
    <glyph glyph-name="t" unicode="t" horiz-adv-x="625" 
d="M590 671.5q29 -28.5 29 -69.5t-29 -70t-70 -29h-103v-398q0 -43 -30.5 -74t-74.5 -31q-43 0 -74 31t-31 74v398h-103q-41 0 -69.5 29t-28.5 70t29 69.5t69 28.5h416q41 0 70 -28.5z" />
    <glyph glyph-name="u" unicode="u" horiz-adv-x="662" 
d="M593.5 669.5q30.5 -30.5 30.5 -74.5v-320q0 -78 -37 -143.5t-104 -103.5t-152 -38t-152 38t-104 103.5t-37 143.5v320q0 44 31 74.5t74 30.5q44 0 74.5 -30.5t30.5 -74.5v-301q0 -45 23.5 -69.5t59.5 -24.5t59.5 24.5t23.5 69.5v301q0 44 31 74.5t74 30.5
q44 0 74.5 -30.5z" />
    <glyph glyph-name="v" unicode="v" 
d="M633.5 669q29.5 -31 29.5 -75q0 -25 -10 -48l-195 -461q-37 -85 -123 -85q-87 0 -124 85l-194 461q-10 23 -10 48q0 44 30 75t74 31q35 0 61.5 -18t38.5 -50l124 -315l124 315q12 32 38.5 50t60.5 18q46 0 75.5 -31z" />
    <glyph glyph-name="w" unicode="w" horiz-adv-x="993" 
d="M947 668.5q29 -31.5 29 -73.5q0 -18 -6 -36l-163 -470q-14 -41 -45.5 -65t-77.5 -24q-47 0 -78.5 24t-43.5 64l-65 223l-66 -223q-12 -40 -43.5 -64t-78.5 -24q-46 0 -77.5 24t-45.5 65l-163 470q-6 18 -6 36q0 42 29 73.5t74 31.5q37 0 64.5 -21t36.5 -54l87 -319
l88 319q9 33 36 54t64 21t64 -21t36 -54l89 -319l87 319q9 33 36.5 54t64.5 21q45 0 74 -31.5z" />
    <glyph glyph-name="x" unicode="x" horiz-adv-x="673" 
d="M647 106q0 -45 -31.5 -75.5t-73.5 -30.5q-23 0 -44.5 10t-36.5 28l-125 149l-125 -149q-16 -19 -36.5 -28.5t-43.5 -9.5q-43 0 -74 30.5t-31 74.5q0 38 24 68l149 177l-149 177q-24 30 -24 68q0 45 31.5 75t73.5 30q23 0 43.5 -9.5t36.5 -28.5l125 -149l125 149
q16 19 36.5 28.5t43.5 9.5q43 0 74 -30.5t31 -74.5q0 -38 -24 -68l-149 -177l149 -177q25 -29 25 -67z" />
    <glyph glyph-name="y" unicode="y" horiz-adv-x="642" 
d="M620 546l-196 -298v-143q0 -43 -30.5 -74t-74.5 -31q-43 0 -74 31t-31 74v147l-192 294q-16 25 -16 54q0 41 32 70.5t76 29.5q33 0 56.5 -17t43.5 -51l107 -178l107 178q20 34 43 51t56 17q45 0 77 -29.5t32 -70.5q0 -29 -16 -54z" />
    <glyph glyph-name="z" unicode="z" horiz-adv-x="594" 
d="M545 168.5q29 -28.5 29 -69.5t-29 -70t-70 -29h-357q-41 0 -69.5 29t-28.5 70q0 32 22 62l250 342h-174q-41 0 -69.5 29t-28.5 70t29 69.5t69 28.5h357q41 0 70 -28.5t29 -69.5q0 -34 -20 -60l-253 -345h174q41 0 70 -28.5z" />
    <glyph glyph-name="braceleft" unicode="{" horiz-adv-x="318" 
d="M294 62q15 -14 15 -34t-14.5 -34t-35.5 -14h-115q-21 0 -36 14.5t-15 35.5v268h-13q-23 0 -38.5 15t-15.5 38q0 22 15.5 37t38.5 15h13v267q0 21 14.5 35.5t35.5 14.5h116q21 0 35.5 -14t14.5 -34q0 -21 -14.5 -35t-35.5 -14h-44v-547h43q21 0 36 -14z" />
    <glyph glyph-name="bar" unicode="|" horiz-adv-x="248" 
d="M165 743.5q17 -16.5 17 -40.5v-706q0 -24 -17 -40.5t-41 -16.5t-41 16.5t-17 40.5v706q0 24 17 40.5t41 16.5t41 -16.5z" />
    <glyph glyph-name="braceright" unicode="}" horiz-adv-x="318" 
d="M276.5 388q15.5 -15 15.5 -37q0 -23 -15.5 -38t-38.5 -15h-13v-268q0 -21 -15 -35.5t-36 -14.5h-115q-21 0 -35.5 14t-14.5 34t15 34t36 14h43v547h-44q-21 0 -35.5 14t-14.5 35q0 20 14.5 34t35.5 14h116q21 0 35.5 -14.5t14.5 -35.5v-267h13q23 0 38.5 -15z" />
    <glyph glyph-name="asciitilde" unicode="~" horiz-adv-x="454" 
d="M204.5 438q19.5 -8 44.5 -24q15 -10 24 -14.5t20 -4.5q12 0 20 5t17 15q14 16 24.5 23.5t27.5 7.5q27 0 44.5 -16.5t17.5 -41.5q0 -19 -8 -34q-25 -45 -58 -65t-76 -20q-32 0 -51.5 8t-44.5 24q-15 10 -24.5 14.5t-20.5 4.5q-13 0 -21 -5.5t-16 -16.5q-21 -29 -52 -29
q-28 0 -45 17t-17 43q0 25 19 53q21 32 54 48t71 16q31 0 50.5 -8z" />
    <glyph glyph-name="exclamdown" unicode="&#xa1;" horiz-adv-x="296" 
d="M71.5 515.5q-31.5 31.5 -31.5 76.5t31.5 76.5t76.5 31.5t76.5 -31.5t31.5 -76.5t-31.5 -76.5t-76.5 -31.5t-76.5 31.5zM222.5 412.5q30.5 -30.5 30.5 -74.5v-233q0 -43 -30.5 -74t-74.5 -31q-43 0 -74 31t-31 74v233q0 44 31 74.5t74 30.5q44 0 74.5 -30.5z" />
    <glyph glyph-name="cent" unicode="&#xa2;" horiz-adv-x="679" 
d="M628 222q30 -31 30 -73q0 -44 -38 -78q-80 -70 -203 -80v-61q0 -13 -8.5 -21.5t-21.5 -8.5t-21.5 8.5t-8.5 21.5v61q-94 6 -169.5 55.5t-118.5 129.5t-43 174t43 174t118.5 129.5t169.5 55.5v51q0 13 8.5 21.5t21.5 8.5t21.5 -8.5t8.5 -21.5v-51q123 -10 203 -80
q38 -34 38 -78q0 -42 -30 -73.5t-73 -31.5q-29 0 -54 15t-43.5 24t-40.5 12v-294q22 3 40.5 12t43.5 24q23 14 54 14q43 0 73 -31zM270.5 253q33.5 -41 86.5 -51v296q-53 -10 -86.5 -51t-33.5 -97t33.5 -97z" />
    <glyph glyph-name="sterling" unicode="&#xa3;" horiz-adv-x="582" 
d="M532 160.5q28 -27.5 28 -65.5q0 -40 -27.5 -67.5t-67.5 -27.5h-326q-40 0 -67.5 25t-27.5 64q0 19 8 39.5t21 34.5q31 34 41.5 56.5t10.5 45.5v6h-40q-25 0 -42 17.5t-17 42.5q0 24 17 41.5t42 17.5h6q-14 51 -14 90q0 64 30 116.5t86.5 83t134.5 30.5q88 0 139.5 -27.5
t76.5 -64.5q18 -26 18 -57q0 -37 -27.5 -62.5t-66.5 -25.5q-35 0 -70 24q-23 16 -38 22t-33 6q-23 0 -36 -14t-13 -37q0 -16 4 -31.5t10 -31t8 -21.5h122q25 0 42.5 -17.5t17.5 -41.5q0 -25 -17.5 -42.5t-42.5 -17.5h-103q-4 -41 -30 -83h176q39 0 67 -27.5z" />
    <glyph glyph-name="yen" unicode="&#xa5;" horiz-adv-x="642" 
d="M620 546l-158 -241h74q13 0 21.5 -8.5t8.5 -21.5t-8.5 -21.5t-21.5 -8.5h-112v-40h112q13 0 21.5 -8.5t8.5 -21.5t-8.5 -21.5t-21.5 -8.5h-112v-40q0 -43 -30.5 -74t-74.5 -31q-43 0 -74 31t-31 74v40h-108q-13 0 -21.5 8.5t-8.5 21.5t8.5 21.5t21.5 8.5h108v40h-108
q-13 0 -21.5 8.5t-8.5 21.5t8.5 21.5t21.5 8.5h74l-158 241q-16 25 -16 54q0 41 32 70.5t76 29.5q33 0 56.5 -17t43.5 -51l107 -178l107 178q20 34 43 51t56 17q45 0 77 -29.5t32 -70.5q0 -29 -16 -54z" />
    <glyph glyph-name="section" unicode="&#xa7;" horiz-adv-x="600" 
d="M538.5 215q-17.5 -34 -49.5 -60q33 -42 33 -105q0 -54 -28.5 -99t-79 -71.5t-113.5 -26.5q-81 0 -125.5 25.5t-67.5 58.5q-16 23 -16 48q0 34 26 60t61 26q28 0 59 -23q21 -16 36 -24t32 -8t27 7.5t10 20.5q0 12 -10.5 19.5t-33.5 13.5l-77 21q-92 25 -135 68t-43 110
q0 38 17.5 72t49.5 60q-33 42 -33 105q0 54 28.5 99t79 71.5t113.5 26.5q81 0 125.5 -25.5t67.5 -58.5q16 -23 16 -48q0 -34 -26 -60t-61 -26q-28 0 -59 23q-23 17 -37 24.5t-31 7.5t-27 -7.5t-10 -20.5q0 -12 10.5 -19.5t33.5 -13.5l77 -21q92 -25 135 -68t43 -110
q0 -38 -17.5 -72zM353 233q13 4 21 13.5t8 21.5q0 15 -12 25t-38 16l-85 21q-13 -4 -21 -13.5t-8 -21.5q0 -15 12 -24.5t38 -16.5z" />
    <glyph glyph-name="dieresis" unicode="&#xa8;" horiz-adv-x="378" 
d="M24.5 732.5q-14.5 14.5 -14.5 35.5t14.5 35.5t36.5 14.5t36.5 -14.5t14.5 -35.5t-14.5 -35.5t-36.5 -14.5t-36.5 14.5zM280.5 732.5q-14.5 14.5 -14.5 35.5t14.5 35.5t36.5 14.5t36.5 -14.5t14.5 -35.5t-14.5 -35.5t-36.5 -14.5t-36.5 14.5z" />
    <glyph glyph-name="copyright" unicode="&#xa9;" horiz-adv-x="768" 
d="M204.5 41q-82.5 48 -130.5 130.5t-48 179.5t48 179t130.5 130t179.5 48t179.5 -48t130.5 -130t48 -179t-48 -179.5t-130.5 -130.5t-179.5 -48t-179.5 48zM532.5 95q67.5 40 106.5 108t39 148t-39 147.5t-106.5 107.5t-148.5 40t-148.5 -40t-106.5 -107.5t-39 -147.5
t39 -148t106.5 -108t148.5 -40t148.5 40zM284 170q-46 26 -72.5 73.5t-26.5 108.5t26 108.5t72 73.5t104 26q91 0 146 -57q15 -16 15 -33q0 -18 -13.5 -31t-32.5 -13q-14 0 -31 11q-24 17 -42 23.5t-43 6.5q-45 0 -74.5 -29.5t-29.5 -85.5t29.5 -85.5t74.5 -29.5
q25 0 43.5 6.5t41.5 23.5q15 11 31 11q19 0 32.5 -13.5t13.5 -30.5q0 -18 -15 -33q-57 -57 -146 -57q-57 0 -103 26z" />
    <glyph glyph-name="ordfeminine" unicode="&#xaa;" horiz-adv-x="454" 
d="M447 304q0 -29 -20 -50t-49 -21q-24 0 -41 12.5t-25 33.5l-10 27h-150l-10 -27q-8 -21 -25 -33.5t-40 -12.5q-31 0 -50.5 21t-19.5 50q0 17 7 32l132 307q23 57 81 57q57 0 82 -57l131 -307q7 -15 7 -32zM262 419l-35 98l-35 -98h70z" />
    <glyph glyph-name="guillemotleft" unicode="&#xab;" horiz-adv-x="591" 
d="M36 320l156 156q23 23 51 23q29 0 50.5 -22.5t21.5 -51.5t-21 -50l-108 -108l108 -109q22 -22 22 -51t-22.5 -50.5t-51.5 -21.5q-28 0 -50 22l-156 156q-24 24 -24 54q0 29 24 53zM296 320l156 156q23 23 51 23q29 0 50.5 -22.5t21.5 -51.5t-21 -50l-108 -108l108 -109
q22 -22 22 -51t-22.5 -50.5t-51.5 -21.5q-28 0 -50 22l-156 156q-24 24 -24 54q0 29 24 53z" />
    <glyph glyph-name="registered" unicode="&#xae;" horiz-adv-x="386" 
d="M285 685.5q42 -24.5 66.5 -66.5t24.5 -91q0 -50 -24.5 -92t-66.5 -66.5t-92 -24.5t-92 24.5t-66.5 66.5t-24.5 92q0 49 24.5 91t66.5 66.5t92 24.5t92 -24.5zM263 407.5q32 18.5 50 50.5t18 70q0 37 -18.5 69t-50 50.5t-69.5 18.5t-69.5 -18.5t-50 -50.5t-18.5 -69
q0 -38 18 -70t50 -50.5t70 -18.5t70 18.5zM239 506l29 -38q5 -6 5 -16q0 -12 -8.5 -20.5t-20.5 -8.5q-15 0 -23 11l-44 64h-3v-46q0 -13 -8.5 -21t-20.5 -8t-20.5 8t-8.5 21v152q0 12 8.5 20.5t20.5 8.5h54q33 0 55 -18.5t22 -50.5q0 -39 -37 -58zM213.5 574.5
q-5.5 5.5 -15.5 5.5h-24v-37h24q10 0 15.5 5t5.5 13t-5.5 13.5z" />
    <glyph glyph-name="macron" unicode="&#xaf;" horiz-adv-x="252" 
d="M20.5 737.5q-10.5 9.5 -10.5 24.5t10.5 24.5t26.5 9.5h158q16 0 26.5 -9.5t10.5 -24.5t-10.5 -24.5t-26.5 -9.5h-158q-16 0 -26.5 9.5z" />
    <glyph glyph-name="degree" unicode="&#xb0;" horiz-adv-x="314" 
d="M83.5 435q-33.5 20 -53.5 53.5t-20 73.5t20 73.5t53.5 53.5t73.5 20t73.5 -20t53.5 -53.5t20 -73.5t-20 -73.5t-53.5 -53.5t-73.5 -20t-73.5 20zM186.5 532.5q12.5 12.5 12.5 29.5t-12.5 29.5t-29.5 12.5t-29.5 -12.5t-12.5 -29.5t12.5 -29.5t29.5 -12.5t29.5 12.5z" />
    <glyph glyph-name="plusminus" unicode="&#xb1;" horiz-adv-x="544" 
d="M38.5 379q-28.5 29 -28.5 70t29 69.5t69 28.5h65v35q0 41 29 69.5t70 28.5t69.5 -28.5t28.5 -69.5v-35h65q41 0 70 -28.5t29 -69.5t-29 -70t-70 -29h-65v-35q0 -41 -28.5 -70t-69.5 -29t-70 29t-29 70v35h-65q-41 0 -69.5 29zM505 168.5q29 -28.5 29 -69.5t-29 -70
t-70 -29h-327q-41 0 -69.5 29t-28.5 70t29 69.5t69 28.5h327q41 0 70 -28.5z" />
    <glyph glyph-name="acute" unicode="&#xb4;" horiz-adv-x="188" 
d="M129 836q6 3 14 3q13 0 24 -10t11 -25q0 -9 -5 -17.5t-12 -12.5l-100 -51q-7 -4 -16 -4q-14 0 -24.5 10t-10.5 25q0 9 4.5 17.5t13.5 12.5z" />
    <glyph glyph-name="paragraph" unicode="&#xb6;" horiz-adv-x="743" 
d="M458.5 679.5q20.5 -20.5 20.5 -49.5v-660q0 -29 -20.5 -49.5t-49.5 -20.5t-49.5 20.5t-20.5 49.5v274h-78q-68 0 -123 27.5t-87.5 79t-32.5 121.5t32.5 121.5t87.5 79t123 27.5h148q29 0 49.5 -20.5zM678.5 679.5q20.5 -20.5 20.5 -49.5v-660q0 -29 -20.5 -49.5
t-49.5 -20.5t-49.5 20.5t-20.5 49.5v660q0 29 20.5 49.5t49.5 20.5t49.5 -20.5z" />
    <glyph glyph-name="periodcentered" unicode="&#xb7;" horiz-adv-x="256" 
d="M51.5 272.5q-31.5 31.5 -31.5 76.5t31.5 76.5t76.5 31.5t76.5 -31.5t31.5 -76.5t-31.5 -76.5t-76.5 -31.5t-76.5 31.5z" />
    <glyph glyph-name="cedilla" unicode="&#xb8;" horiz-adv-x="185" 
d="M155 -44q20 -20 20 -50q0 -35 -24 -56t-65 -21q-37 0 -59 13q-17 10 -17 26q0 10 7 18t18 8q13 0 25 -7q16 -7 28 -7q14 0 22.5 7t8.5 18q0 12 -9 18t-24 6q-7 0 -13 -1t-12 -1q-24 0 -24 20q0 7 1 11l35 84l46 -17l-21 -48q37 -1 57 -21z" />
    <glyph glyph-name="ordmasculine" unicode="&#xba;" horiz-adv-x="530" 
d="M144 262.5q-55 32.5 -86.5 87.5t-31.5 120t31.5 120t86.5 87.5t121 32.5t121 -32.5t86.5 -87.5t31.5 -120t-31.5 -120t-86.5 -87.5t-121 -32.5t-121 32.5zM335.5 399q28.5 29 28.5 71t-28.5 71t-70.5 29t-70.5 -29t-28.5 -71t28.5 -71t70.5 -29t70.5 29z" />
    <glyph glyph-name="guillemotright" unicode="&#xbb;" horiz-adv-x="591" 
d="M139 57q-22 -22 -50 -22q-29 0 -51.5 21.5t-22.5 50.5t22 51l108 109l-108 108q-21 21 -21 50t21.5 51.5t50.5 22.5q28 0 51 -23l156 -156q24 -24 24 -53q0 -30 -24 -54zM399 57q-22 -22 -50 -22q-29 0 -51.5 21.5t-22.5 50.5t22 51l108 109l-108 108q-21 21 -21 50
t21.5 51.5t50.5 22.5q28 0 51 -23l156 -156q24 -24 24 -53q0 -30 -24 -54z" />
    <glyph glyph-name="onequarter" unicode="&#xbc;" horiz-adv-x="721" 
d="M189.5 683.5q17.5 -16.5 17.5 -40.5v-264q0 -24 -17.5 -40.5t-42.5 -16.5t-42 16.5t-17 40.5v210h-11q-24 0 -40.5 16t-16.5 40q0 23 16.5 39t40.5 16h70q25 0 42.5 -16.5zM573 623l-420 -603q-7 -10 -18 -15.5t-23 -5.5q-21 0 -34.5 15t-13.5 34q0 17 9 29l420 603
q7 10 18 15.5t23 5.5q20 0 34 -14.5t14 -34.5q0 -17 -9 -29zM717 153q16 -16 16 -40q0 -23 -16 -39.5t-41 -16.5v-7q0 -24 -16 -40t-40 -16t-40 16t-16 40v7h-117q-25 0 -41.5 16.5t-16.5 39.5q0 18 10 38l92 190q8 16 22 25t31 9q26 0 42 -16t16 -39q0 -16 -7 -29l-62 -122
h31v8q0 24 16 40t40 16t40 -16t16 -40v-8q25 0 41 -16z" />
    <glyph glyph-name="onehalf" unicode="&#xbd;" horiz-adv-x="709" 
d="M189.5 683.5q17.5 -16.5 17.5 -40.5v-264q0 -24 -17.5 -40.5t-42.5 -16.5t-42 16.5t-17 40.5v210h-11q-24 0 -40.5 16t-16.5 40q0 23 16.5 39t40.5 16h70q25 0 42.5 -16.5zM573 623l-420 -603q-7 -10 -18 -15.5t-23 -5.5q-21 0 -34.5 15t-13.5 34q0 17 9 29l420 603
q7 10 18 15.5t23 5.5q20 0 34 -14.5t14 -34.5q0 -17 -9 -29zM670 88q16 -15 16 -36q0 -22 -15.5 -37t-38.5 -15h-178q-22 0 -37.5 15t-15.5 37q0 20 19 41l80 81q37 37 48 52.5t11 31.5q0 10 -7.5 16t-18.5 6t-19 -5t-20 -17q-8 -8 -16.5 -11.5t-21.5 -3.5q-23 0 -38.5 14
t-15.5 37q0 18 12 36q16 25 48 39t70 14q70 0 106 -34.5t36 -88.5q0 -38 -22.5 -72t-71.5 -83l-2 -2h54q22 0 38 -15z" />
    <glyph glyph-name="threequarters" unicode="&#xbe;" horiz-adv-x="760" 
d="M290 441q0 -29 -16.5 -56.5t-48 -45t-73.5 -17.5q-65 0 -105 32q-19 16 -19 38t14.5 37.5t37.5 15.5q14 0 26 -6q28 -14 46 -14q10 0 16.5 5.5t6.5 14.5q0 10 -8 15.5t-23 5.5h-8q-26 0 -41 14t-15 37t15.5 38t40.5 15h8q27 0 27 21q0 9 -6 14t-18 5q-16 0 -34 -13
q-16 -11 -32 -11q-21 0 -36 15.5t-15 36.5t16 37q36 36 102 36q62 0 96.5 -30t34.5 -74q0 -52 -36 -79q47 -28 47 -87zM612 623l-420 -603q-7 -10 -18 -15.5t-23 -5.5q-21 0 -34.5 15t-13.5 34q0 17 9 29l420 603q7 10 18 15.5t23 5.5q20 0 34 -14.5t14 -34.5q0 -17 -9 -29z
M756 153q16 -16 16 -40q0 -23 -16 -39.5t-41 -16.5v-7q0 -24 -16 -40t-40 -16t-40 16t-16 40v7h-117q-25 0 -41.5 16.5t-16.5 39.5q0 18 10 38l92 190q8 16 22 25t31 9q26 0 42 -16t16 -39q0 -16 -7 -29l-62 -122h31v8q0 24 16 40t40 16t40 -16t16 -40v-8q25 0 41 -16z" />
    <glyph glyph-name="questiondown" unicode="&#xbf;" horiz-adv-x="434" 
d="M290.5 670.5q31.5 -31.5 31.5 -76.5t-31.5 -76.5t-76.5 -31.5t-76.5 31.5t-31.5 76.5t31.5 76.5t76.5 31.5t76.5 -31.5zM16.5 276q16.5 42 53.5 82l61 65q20 20 40 31t45 11q43 0 73.5 -31t30.5 -74q0 -66 -78 -109q-25 -14 -35 -24.5t-10 -25.5q0 -12 7.5 -20t21.5 -8
q16 0 28 7.5t32 27.5q21 21 53 21q36 0 65.5 -25.5t29.5 -62.5q0 -32 -24 -66q-32 -45 -78.5 -64t-109.5 -19q-71 0 -121 27t-75.5 70t-25.5 91q0 54 16.5 96z" />
    <glyph glyph-name="Agrave" unicode="&#xc0;" 
d="M663 104q0 -44 -29 -74t-74 -30q-35 0 -61.5 18t-37.5 50l-14 41h-224l-14 -41q-11 -32 -37.5 -50t-60.5 -18q-46 0 -75 30t-29 74q0 27 10 50l195 461q37 85 123 85q87 0 124 -85l194 -461q10 -23 10 -50zM387 278l-52 147l-52 -147h104zM392.5 771.5
q4.5 -8.5 4.5 -17.5q0 -15 -10.5 -25t-24.5 -10q-9 0 -16 4l-100 51q-7 4 -12 12.5t-5 17.5q0 15 11 25t24 10q8 0 14 -3l101 -52q9 -4 13.5 -12.5z" />
    <glyph glyph-name="Aacute" unicode="&#xc1;" 
d="M663 104q0 -44 -29 -74t-74 -30q-35 0 -61.5 18t-37.5 50l-14 41h-224l-14 -41q-11 -32 -37.5 -50t-60.5 -18q-46 0 -75 30t-29 74q0 27 10 50l195 461q37 85 123 85q87 0 124 -85l194 -461q10 -23 10 -50zM387 278l-52 147l-52 -147h104zM392 836q6 3 14 3q13 0 24 -10
t11 -25q0 -9 -5 -17.5t-12 -12.5l-100 -51q-7 -4 -16 -4q-14 0 -24.5 10t-10.5 25q0 9 4.5 17.5t13.5 12.5z" />
    <glyph glyph-name="Acircumflex" unicode="&#xc2;" 
d="M663 104q0 -44 -29 -74t-74 -30q-35 0 -61.5 18t-37.5 50l-14 41h-224l-14 -41q-11 -32 -37.5 -50t-60.5 -18q-46 0 -75 30t-29 74q0 27 10 50l195 461q37 85 123 85q87 0 124 -85l194 -461q10 -23 10 -50zM387 278l-52 147l-52 -147h104zM450 755.5q5 -8.5 5 -16.5
q0 -15 -9.5 -24t-24.5 -9q-12 0 -23 7l-62 38l-62 -35q-12 -6 -23 -6q-15 0 -24.5 9t-9.5 23q0 9 5 17.5t14 13.5l71 42q15 9 31 9q15 0 30 -9l68 -45q9 -6 14 -14.5z" />
    <glyph glyph-name="Atilde" unicode="&#xc3;" 
d="M663 104q0 -44 -29 -74t-74 -30q-35 0 -61.5 18t-37.5 50l-14 41h-224l-14 -41q-11 -32 -37.5 -50t-60.5 -18q-46 0 -75 30t-29 74q0 27 10 50l195 461q37 85 123 85q87 0 124 -85l194 -461q10 -23 10 -50zM387 278l-52 147l-52 -147h104zM318.5 809q10.5 -4 26.5 -13
q18 -11 27 -11q8 0 12.5 3t9.5 9q6 8 12 12t15 4q14 0 23 -8.5t9 -21.5q0 -10 -4 -18q-23 -44 -70 -44q-26 0 -54 17q-18 11 -28 11q-7 0 -11.5 -3.5t-9.5 -9.5q-10 -15 -27 -15q-14 0 -23 8.5t-9 22.5t10 28q11 17 28 25t37 8q16 0 26.5 -4z" />
    <glyph glyph-name="Adieresis" unicode="&#xc4;" 
d="M150.5 685.5q-14.5 14.5 -14.5 35.5t14.5 35.5t36.5 14.5t36.5 -14.5t14.5 -35.5t-14.5 -35.5t-36.5 -14.5t-36.5 14.5zM446.5 685.5q-14.5 14.5 -14.5 35.5t14.5 35.5t36.5 14.5t36.5 -14.5t14.5 -35.5t-14.5 -35.5t-36.5 -14.5t-36.5 14.5zM663 104q0 -44 -29 -74
t-74 -30q-35 0 -61.5 18t-37.5 50l-14 41h-224l-14 -41q-11 -32 -37.5 -50t-60.5 -18q-46 0 -75 30t-29 74q0 27 10 50l195 461q37 85 123 85q87 0 124 -85l194 -461q10 -23 10 -50zM387 278l-52 147l-52 -147h104z" />
    <glyph glyph-name="Aring" unicode="&#xc5;" 
d="M663 104q0 -44 -29 -74t-74 -30q-35 0 -61.5 18t-37.5 50l-14 41h-224l-14 -41q-11 -32 -37.5 -50t-60.5 -18q-46 0 -75 30t-29 74q0 27 10 50l195 461q23 50 60 71q-21 23 -21 55q0 34 24.5 58t59.5 24t59.5 -24t24.5 -58q0 -32 -21 -55q38 -20 61 -71l194 -461
q10 -23 10 -50zM307.5 769q-11.5 -11 -11.5 -28q0 -16 11.5 -27.5t27.5 -11.5q17 0 28 11.5t11 27.5q0 17 -11 28t-28 11q-16 0 -27.5 -11zM387 278l-52 147l-52 -147h104z" />
    <glyph glyph-name="AE" unicode="&#xc6;" horiz-adv-x="909" 
d="M864 168.5q29 -28.5 29 -69.5t-29 -70t-70 -29h-289q-43 0 -74 31t-31 74v4h-173l-17 -41q-14 -32 -39 -50t-59 -18q-46 0 -75.5 30.5t-29.5 74.5q0 22 11 49l207 461q19 41 47.5 63t74.5 22h447q41 0 70 -28.5t29 -69.5t-29 -70t-70 -29h-184v-65h151q35 0 60 -25
t25 -60t-25 -60t-60 -25h-151v-71h184q41 0 70 -28.5zM400 278v244l-102 -244h102z" />
    <glyph glyph-name="Ccedilla" unicode="&#xc7;" horiz-adv-x="679" 
d="M628 222q30 -31 30 -73q0 -44 -38 -78q-92 -81 -236 -81q-15 0 -22 1l-6 -14q37 -1 57 -21t20 -50q0 -35 -24 -56t-65 -21q-37 0 -59 13q-17 10 -17 26q0 10 7 18t18 8q13 0 25 -7q16 -7 28 -7q14 0 22.5 7t8.5 18q0 12 -9 18t-24 6q-7 0 -13 -1t-12 -1q-24 0 -24 20
q0 7 1 11l16 39q-82 16 -147.5 66.5t-102 125t-36.5 161.5q0 99 47 181.5t129 130.5t182 48q144 0 236 -81q38 -34 38 -78q0 -42 -30 -73.5t-73 -31.5q-29 0 -54 15q-33 20 -57.5 29.5t-59.5 9.5q-42 0 -75.5 -20t-52.5 -54t-19 -76t19 -76t52.5 -54t75.5 -20q35 0 59.5 9.5
t57.5 29.5q23 14 54 14q43 0 73 -31z" />
    <glyph glyph-name="Egrave" unicode="&#xc8;" horiz-adv-x="553" 
d="M508 168.5q29 -28.5 29 -69.5t-29 -70t-70 -29h-289q-43 0 -74 31t-31 74v490q0 44 31 74.5t74 30.5h289q41 0 70 -28.5t29 -69.5t-29 -70t-70 -29h-184v-65h151q35 0 60 -25t25 -60t-25 -60t-60 -25h-151v-71h184q41 0 70 -28.5zM346.5 771.5q4.5 -8.5 4.5 -17.5
q0 -15 -10.5 -25t-24.5 -10q-9 0 -16 4l-100 51q-7 4 -12 12.5t-5 17.5q0 15 11 25t24 10q8 0 14 -3l101 -52q9 -4 13.5 -12.5z" />
    <glyph glyph-name="Eacute" unicode="&#xc9;" horiz-adv-x="553" 
d="M508 168.5q29 -28.5 29 -69.5t-29 -70t-70 -29h-289q-43 0 -74 31t-31 74v490q0 44 31 74.5t74 30.5h289q41 0 70 -28.5t29 -69.5t-29 -70t-70 -29h-184v-65h151q35 0 60 -25t25 -60t-25 -60t-60 -25h-151v-71h184q41 0 70 -28.5zM346 836q6 3 14 3q13 0 24 -10t11 -25
q0 -9 -5 -17.5t-12 -12.5l-100 -51q-7 -4 -16 -4q-14 0 -24.5 10t-10.5 25q0 9 4.5 17.5t13.5 12.5z" />
    <glyph glyph-name="Ecircumflex" unicode="&#xca;" horiz-adv-x="553" 
d="M508 168.5q29 -28.5 29 -69.5t-29 -70t-70 -29h-289q-43 0 -74 31t-31 74v490q0 44 31 74.5t74 30.5h289q41 0 70 -28.5t29 -69.5t-29 -70t-70 -29h-184v-65h151q35 0 60 -25t25 -60t-25 -60t-60 -25h-151v-71h184q41 0 70 -28.5zM402 765.5q5 -8.5 5 -16.5
q0 -15 -9.5 -24t-24.5 -9q-12 0 -23 7l-62 38l-62 -35q-12 -6 -23 -6q-15 0 -24.5 9t-9.5 23q0 9 5 17.5t14 13.5l71 42q15 9 31 9q15 0 30 -9l68 -45q9 -6 14 -14.5z" />
    <glyph glyph-name="Edieresis" unicode="&#xcb;" horiz-adv-x="553" 
d="M508 168.5q29 -28.5 29 -69.5t-29 -70t-70 -29h-289q-43 0 -74 31t-31 74v490q0 44 31 74.5t74 30.5h289q41 0 70 -28.5t29 -69.5t-29 -70t-70 -29h-184v-65h151q35 0 60 -25t25 -60t-25 -60t-60 -25h-151v-71h184q41 0 70 -28.5zM124.5 732.5q-14.5 14.5 -14.5 35.5
t14.5 35.5t36.5 14.5t36.5 -14.5t14.5 -35.5t-14.5 -35.5t-36.5 -14.5t-36.5 14.5zM380.5 732.5q-14.5 14.5 -14.5 35.5t14.5 35.5t36.5 14.5t36.5 -14.5t14.5 -35.5t-14.5 -35.5t-36.5 -14.5t-36.5 14.5z" />
    <glyph glyph-name="Igrave" unicode="&#xcc;" horiz-adv-x="298" 
d="M223.5 669.5q30.5 -30.5 30.5 -74.5v-490q0 -43 -30.5 -74t-74.5 -31q-43 0 -74 31t-31 74v490q0 44 31 74.5t74 30.5q44 0 74.5 -30.5zM206.5 771.5q4.5 -8.5 4.5 -17.5q0 -15 -10.5 -25t-24.5 -10q-9 0 -16 4l-100 51q-7 4 -12 12.5t-5 17.5q0 15 11 25t24 10
q8 0 14 -3l101 -52q9 -4 13.5 -12.5z" />
    <glyph glyph-name="Iacute" unicode="&#xcd;" horiz-adv-x="298" 
d="M223.5 669.5q30.5 -30.5 30.5 -74.5v-490q0 -43 -30.5 -74t-74.5 -31q-43 0 -74 31t-31 74v490q0 44 31 74.5t74 30.5q44 0 74.5 -30.5zM206 836q6 3 14 3q13 0 24 -10t11 -25q0 -9 -5 -17.5t-12 -12.5l-100 -51q-7 -4 -16 -4q-14 0 -24.5 10t-10.5 25q0 9 4.5 17.5
t13.5 12.5z" />
    <glyph glyph-name="Icircumflex" unicode="&#xce;" horiz-adv-x="298" 
d="M223.5 669.5q30.5 -30.5 30.5 -74.5v-490q0 -43 -30.5 -74t-74.5 -31q-43 0 -74 31t-31 74v490q0 44 31 74.5t74 30.5q44 0 74.5 -30.5zM262 765.5q5 -8.5 5 -16.5q0 -15 -9.5 -24t-24.5 -9q-12 0 -23 7l-62 38l-62 -35q-12 -6 -23 -6q-15 0 -24.5 9t-9.5 23q0 9 5 17.5
t14 13.5l71 42q15 9 31 9q15 0 30 -9l68 -45q9 -6 14 -14.5z" />
    <glyph glyph-name="Idieresis" unicode="&#xcf;" horiz-adv-x="298" 
d="M4.5 712.5q-14.5 14.5 -14.5 35.5t14.5 35.5t36.5 14.5t36.5 -14.5t14.5 -35.5t-14.5 -35.5t-36.5 -14.5t-36.5 14.5zM220.5 712.5q-14.5 14.5 -14.5 35.5t14.5 35.5t36.5 14.5t36.5 -14.5t14.5 -35.5t-14.5 -35.5t-36.5 -14.5t-36.5 14.5zM223.5 669.5
q30.5 -30.5 30.5 -74.5v-490q0 -43 -30.5 -74t-74.5 -31q-43 0 -74 31t-31 74v490q0 44 31 74.5t74 30.5q44 0 74.5 -30.5z" />
    <glyph glyph-name="Eth" unicode="&#xd0;" horiz-adv-x="730" 
d="M532 653q80 -47 126 -127.5t46 -175.5t-46 -175.5t-126 -127.5t-176 -47h-177q-43 0 -74 31t-31 74v210h-27q-14 0 -24 10.5t-10 25.5q0 14 10 24.5t24 10.5h27v209q0 44 31 74.5t74 30.5h177q96 0 176 -47zM426.5 228.5q31.5 18.5 49.5 50.5t18 71t-18 71t-49.5 50.5
t-70.5 18.5h-72v-104h84q15 0 25 -10.5t10 -24.5q0 -15 -10 -25.5t-25 -10.5h-84v-105h72q39 0 70.5 18.5z" />
    <glyph glyph-name="Ntilde" unicode="&#xd1;" horiz-adv-x="674" 
d="M599.5 669.5q30.5 -30.5 30.5 -74.5v-490q0 -44 -30 -74.5t-74 -30.5q-29 0 -53 14.5t-40 38.5l-179 271v-219q0 -43 -30.5 -74t-74.5 -31q-43 0 -74 31t-31 74v490q0 44 31 74.5t74 30.5q57 0 92 -53l179 -268v216q0 44 31 74.5t74 30.5q44 0 74.5 -30.5zM320.5 789
q10.5 -4 26.5 -13q18 -11 27 -11q8 0 12.5 3t9.5 9q6 8 12 12t15 4q14 0 23 -8.5t9 -21.5q0 -10 -4 -18q-23 -44 -70 -44q-26 0 -54 17q-18 11 -28 11q-7 0 -11.5 -3.5t-9.5 -9.5q-10 -15 -27 -15q-14 0 -23 8.5t-9 22.5t10 28q11 17 28 25t37 8q16 0 26.5 -4z" />
    <glyph glyph-name="Ograve" unicode="&#xd2;" horiz-adv-x="768" 
d="M203 38.5q-82 48.5 -129.5 131t-47.5 180.5t47.5 180.5t129.5 131t181 48.5t181 -48.5t129.5 -131t47.5 -180.5t-47.5 -180.5t-129.5 -131t-181 -48.5t-181 48.5zM459.5 220q33.5 20 53 54t19.5 76t-19.5 76t-53 54t-75.5 20t-75.5 -20t-53 -54t-19.5 -76t19.5 -76
t53 -54t75.5 -20t75.5 20zM441.5 781.5q4.5 -8.5 4.5 -17.5q0 -15 -10.5 -25t-24.5 -10q-9 0 -16 4l-100 51q-7 4 -12 12.5t-5 17.5q0 15 11 25t24 10q8 0 14 -3l101 -52q9 -4 13.5 -12.5z" />
    <glyph glyph-name="Oacute" unicode="&#xd3;" horiz-adv-x="768" 
d="M203 38.5q-82 48.5 -129.5 131t-47.5 180.5t47.5 180.5t129.5 131t181 48.5t181 -48.5t129.5 -131t47.5 -180.5t-47.5 -180.5t-129.5 -131t-181 -48.5t-181 48.5zM459.5 220q33.5 20 53 54t19.5 76t-19.5 76t-53 54t-75.5 20t-75.5 -20t-53 -54t-19.5 -76t19.5 -76
t53 -54t75.5 -20t75.5 20zM441 846q6 3 14 3q13 0 24 -10t11 -25q0 -9 -5 -17.5t-12 -12.5l-100 -51q-7 -4 -16 -4q-14 0 -24.5 10t-10.5 25q0 9 4.5 17.5t13.5 12.5z" />
    <glyph glyph-name="Ocircumflex" unicode="&#xd4;" horiz-adv-x="768" 
d="M203 38.5q-82 48.5 -129.5 131t-47.5 180.5t47.5 180.5t129.5 131t181 48.5t181 -48.5t129.5 -131t47.5 -180.5t-47.5 -180.5t-129.5 -131t-181 -48.5t-181 48.5zM459.5 220q33.5 20 53 54t19.5 76t-19.5 76t-53 54t-75.5 20t-75.5 -20t-53 -54t-19.5 -76t19.5 -76
t53 -54t75.5 -20t75.5 20zM497 775.5q5 -8.5 5 -16.5q0 -15 -9.5 -24t-24.5 -9q-12 0 -23 7l-62 38l-62 -35q-12 -6 -23 -6q-15 0 -24.5 9t-9.5 23q0 9 5 17.5t14 13.5l71 42q15 9 31 9q15 0 30 -9l68 -45q9 -6 14 -14.5z" />
    <glyph glyph-name="Otilde" unicode="&#xd5;" horiz-adv-x="768" 
d="M203 38.5q-82 48.5 -129.5 131t-47.5 180.5t47.5 180.5t129.5 131t181 48.5t181 -48.5t129.5 -131t47.5 -180.5t-47.5 -180.5t-129.5 -131t-181 -48.5t-181 48.5zM459.5 220q33.5 20 53 54t19.5 76t-19.5 76t-53 54t-75.5 20t-75.5 -20t-53 -54t-19.5 -76t19.5 -76
t53 -54t75.5 -20t75.5 20zM367.5 819q10.5 -4 26.5 -13q18 -11 27 -11q8 0 12.5 3t9.5 9q6 8 12 12t15 4q14 0 23 -8.5t9 -21.5q0 -10 -4 -18q-23 -44 -70 -44q-26 0 -54 17q-18 11 -28 11q-7 0 -11.5 -3.5t-9.5 -9.5q-10 -15 -27 -15q-14 0 -23 8.5t-9 22.5t10 28
q11 17 28 25t37 8q16 0 26.5 -4z" />
    <glyph glyph-name="Odieresis" unicode="&#xd6;" horiz-adv-x="768" 
d="M131.5 695.5q-14.5 14.5 -14.5 35.5t14.5 35.5t36.5 14.5t36.5 -14.5t14.5 -35.5t-14.5 -35.5t-36.5 -14.5t-36.5 14.5zM563.5 695.5q-14.5 14.5 -14.5 35.5t14.5 35.5t36.5 14.5t36.5 -14.5t14.5 -35.5t-14.5 -35.5t-36.5 -14.5t-36.5 14.5zM203 38.5
q-82 48.5 -129.5 131t-47.5 180.5t47.5 180.5t129.5 131t181 48.5t181 -48.5t129.5 -131t47.5 -180.5t-47.5 -180.5t-129.5 -131t-181 -48.5t-181 48.5zM459.5 220q33.5 20 53 54t19.5 76t-19.5 76t-53 54t-75.5 20t-75.5 -20t-53 -54t-19.5 -76t19.5 -76t53 -54t75.5 -20
t75.5 20z" />
    <glyph glyph-name="multiply" unicode="&#xd7;" horiz-adv-x="490" 
d="M448 288q14 -14 21.5 -32.5t7.5 -37.5q0 -40 -29 -69t-70 -29q-39 0 -70 29l-63 64l-64 -64q-28 -28 -70 -28t-70 29.5t-28 68.5q0 19 7.5 37.5t21.5 32.5l63 63l-63 63q-28 29 -28 70q0 43 29 71t69 28t69 -29l64 -63l63 63q31 29 70 29q41 0 70 -29t29 -70
q0 -40 -29 -69l-64 -64z" />
    <glyph glyph-name="Oslash" unicode="&#xd8;" horiz-adv-x="768" 
d="M715 488.5q27 -65.5 27 -138.5q0 -98 -47.5 -180.5t-129.5 -131t-181 -48.5q-115 0 -207 65l-38 -45q-9 -11 -24 -11q-12 0 -22 8q-11 8 -11 23q0 13 8 21l38 46q-48 50 -75 115t-27 138q0 98 47.5 180.5t129.5 131t181 48.5q113 0 206 -64l36 43q9 11 23 11q12 0 23 -8
q12 -9 12 -24q0 -10 -8 -20l-37 -44q49 -50 76 -115.5zM265 259l188 225q-32 16 -69 16q-42 0 -75.5 -20t-53 -54t-19.5 -76q0 -51 29 -91zM459.5 220q33.5 20 53 54t19.5 76q0 53 -30 92l-189 -225q32 -17 71 -17q42 0 75.5 20z" />
    <glyph glyph-name="Ugrave" unicode="&#xd9;" horiz-adv-x="662" 
d="M593.5 669.5q30.5 -30.5 30.5 -74.5v-320q0 -78 -37 -143.5t-104 -103.5t-152 -38t-152 38t-104 103.5t-37 143.5v320q0 44 31 74.5t74 30.5q44 0 74.5 -30.5t30.5 -74.5v-301q0 -45 23.5 -69.5t59.5 -24.5t59.5 24.5t23.5 69.5v301q0 44 31 74.5t74 30.5
q44 0 74.5 -30.5zM388.5 771.5q4.5 -8.5 4.5 -17.5q0 -15 -10.5 -25t-24.5 -10q-9 0 -16 4l-100 51q-7 4 -12 12.5t-5 17.5q0 15 11 25t24 10q8 0 14 -3l101 -52q9 -4 13.5 -12.5z" />
    <glyph glyph-name="Uacute" unicode="&#xda;" horiz-adv-x="662" 
d="M593.5 669.5q30.5 -30.5 30.5 -74.5v-320q0 -78 -37 -143.5t-104 -103.5t-152 -38t-152 38t-104 103.5t-37 143.5v320q0 44 31 74.5t74 30.5q44 0 74.5 -30.5t30.5 -74.5v-301q0 -45 23.5 -69.5t59.5 -24.5t59.5 24.5t23.5 69.5v301q0 44 31 74.5t74 30.5
q44 0 74.5 -30.5zM388 836q6 3 14 3q13 0 24 -10t11 -25q0 -9 -5 -17.5t-12 -12.5l-100 -51q-7 -4 -16 -4q-14 0 -24.5 10t-10.5 25q0 9 4.5 17.5t13.5 12.5z" />
    <glyph glyph-name="Ucircumflex" unicode="&#xdb;" horiz-adv-x="662" 
d="M593.5 669.5q30.5 -30.5 30.5 -74.5v-320q0 -78 -37 -143.5t-104 -103.5t-152 -38t-152 38t-104 103.5t-37 143.5v320q0 44 31 74.5t74 30.5q44 0 74.5 -30.5t30.5 -74.5v-301q0 -45 23.5 -69.5t59.5 -24.5t59.5 24.5t23.5 69.5v301q0 44 31 74.5t74 30.5
q44 0 74.5 -30.5zM444 765.5q5 -8.5 5 -16.5q0 -15 -9.5 -24t-24.5 -9q-12 0 -23 7l-62 38l-62 -35q-12 -6 -23 -6q-15 0 -24.5 9t-9.5 23q0 9 5 17.5t14 13.5l71 42q15 9 31 9q15 0 30 -9l68 -45q9 -6 14 -14.5z" />
    <glyph glyph-name="Udieresis" unicode="&#xdc;" horiz-adv-x="662" 
d="M593.5 669.5q30.5 -30.5 30.5 -74.5v-320q0 -78 -37 -143.5t-104 -103.5t-152 -38t-152 38t-104 103.5t-37 143.5v320q0 44 31 74.5t74 30.5q44 0 74.5 -30.5t30.5 -74.5v-301q0 -45 23.5 -69.5t59.5 -24.5t59.5 24.5t23.5 69.5v301q0 44 31 74.5t74 30.5
q44 0 74.5 -30.5zM166.5 732.5q-14.5 14.5 -14.5 35.5t14.5 35.5t36.5 14.5t36.5 -14.5t14.5 -35.5t-14.5 -35.5t-36.5 -14.5t-36.5 14.5zM422.5 732.5q-14.5 14.5 -14.5 35.5t14.5 35.5t36.5 14.5t36.5 -14.5t14.5 -35.5t-14.5 -35.5t-36.5 -14.5t-36.5 14.5z" />
    <glyph glyph-name="Yacute" unicode="&#xdd;" horiz-adv-x="642" 
d="M620 546l-196 -298v-143q0 -43 -30.5 -74t-74.5 -31q-43 0 -74 31t-31 74v147l-192 294q-16 25 -16 54q0 41 32 70.5t76 29.5q33 0 56.5 -17t43.5 -51l107 -178l107 178q20 34 43 51t56 17q45 0 77 -29.5t32 -70.5q0 -29 -16 -54zM376 836q6 3 14 3q13 0 24 -10t11 -25
q0 -9 -5 -17.5t-12 -12.5l-100 -51q-7 -4 -16 -4q-14 0 -24.5 10t-10.5 25q0 9 4.5 17.5t13.5 12.5z" />
    <glyph glyph-name="Thorn" unicode="&#xde;" horiz-adv-x="612" 
d="M463 570.5q60 -29.5 95.5 -85.5t35.5 -131t-35.5 -131t-95.5 -85.5t-134 -29.5h-75v-3q0 -43 -30.5 -74t-74.5 -31q-43 0 -74 31t-31 74v490q0 44 31 74.5t74 30.5q42 0 72.5 -29t32.5 -71h75q74 0 134 -29.5zM368.5 316q15.5 15 15.5 38t-15.5 38t-44.5 15h-70v-106h70
q29 0 44.5 15z" />
    <glyph glyph-name="germandbls" unicode="&#xdf;" horiz-adv-x="1074" 
d="M116.5 20q-55.5 30 -79.5 67q-17 27 -17 55q0 39 28.5 66t67.5 27q35 0 66 -25q26 -22 47 -32.5t44 -10.5q22 0 35.5 11t13.5 30t-13.5 30.5t-44.5 18.5l-40 9q-102 23 -154 80t-52 144q0 60 33 110.5t90.5 80t125.5 29.5q89 0 141 -27.5t77 -64.5q18 -29 18 -56
q0 -38 -28 -65t-68 -27q-37 0 -69 26q-24 21 -41.5 29t-38.5 8q-22 0 -34.5 -11t-12.5 -30q0 -33 57 -46l41 -9q102 -22 154 -80.5t52 -145.5q0 -61 -33.5 -111.5t-91.5 -80t-127 -29.5q-91 0 -146.5 30zM653.5 20q-55.5 30 -79.5 67q-17 27 -17 55q0 39 28.5 66t67.5 27
q35 0 66 -25q26 -22 47 -32.5t44 -10.5q22 0 35.5 11t13.5 30t-13.5 30.5t-44.5 18.5l-40 9q-102 23 -154 80t-52 144q0 60 33 110.5t90.5 80t125.5 29.5q89 0 141 -27.5t77 -64.5q18 -29 18 -56q0 -38 -28 -65t-68 -27q-37 0 -69 26q-24 21 -41.5 29t-38.5 8
q-22 0 -34.5 -11t-12.5 -30q0 -33 57 -46l41 -9q102 -22 154 -80.5t52 -145.5q0 -61 -33.5 -111.5t-91.5 -80t-127 -29.5q-91 0 -146.5 30z" />
    <glyph glyph-name="agrave" unicode="&#xe0;" 
d="M663 104q0 -44 -29 -74t-74 -30q-35 0 -61.5 18t-37.5 50l-14 41h-224l-14 -41q-11 -32 -37.5 -50t-60.5 -18q-46 0 -75 30t-29 74q0 27 10 50l195 461q37 85 123 85q87 0 124 -85l194 -461q10 -23 10 -50zM387 278l-52 147l-52 -147h104zM392.5 771.5
q4.5 -8.5 4.5 -17.5q0 -15 -10.5 -25t-24.5 -10q-9 0 -16 4l-100 51q-7 4 -12 12.5t-5 17.5q0 15 11 25t24 10q8 0 14 -3l101 -52q9 -4 13.5 -12.5z" />
    <glyph glyph-name="aacute" unicode="&#xe1;" 
d="M663 104q0 -44 -29 -74t-74 -30q-35 0 -61.5 18t-37.5 50l-14 41h-224l-14 -41q-11 -32 -37.5 -50t-60.5 -18q-46 0 -75 30t-29 74q0 27 10 50l195 461q37 85 123 85q87 0 124 -85l194 -461q10 -23 10 -50zM387 278l-52 147l-52 -147h104zM392 836q6 3 14 3q13 0 24 -10
t11 -25q0 -9 -5 -17.5t-12 -12.5l-100 -51q-7 -4 -16 -4q-14 0 -24.5 10t-10.5 25q0 9 4.5 17.5t13.5 12.5z" />
    <glyph glyph-name="acircumflex" unicode="&#xe2;" 
d="M663 104q0 -44 -29 -74t-74 -30q-35 0 -61.5 18t-37.5 50l-14 41h-224l-14 -41q-11 -32 -37.5 -50t-60.5 -18q-46 0 -75 30t-29 74q0 27 10 50l195 461q37 85 123 85q87 0 124 -85l194 -461q10 -23 10 -50zM387 278l-52 147l-52 -147h104zM450 755.5q5 -8.5 5 -16.5
q0 -15 -9.5 -24t-24.5 -9q-12 0 -23 7l-62 38l-62 -35q-12 -6 -23 -6q-15 0 -24.5 9t-9.5 23q0 9 5 17.5t14 13.5l71 42q15 9 31 9q15 0 30 -9l68 -45q9 -6 14 -14.5z" />
    <glyph glyph-name="atilde" unicode="&#xe3;" 
d="M663 104q0 -44 -29 -74t-74 -30q-35 0 -61.5 18t-37.5 50l-14 41h-224l-14 -41q-11 -32 -37.5 -50t-60.5 -18q-46 0 -75 30t-29 74q0 27 10 50l195 461q37 85 123 85q87 0 124 -85l194 -461q10 -23 10 -50zM387 278l-52 147l-52 -147h104zM318.5 809q10.5 -4 26.5 -13
q18 -11 27 -11q8 0 12.5 3t9.5 9q6 8 12 12t15 4q14 0 23 -8.5t9 -21.5q0 -10 -4 -18q-23 -44 -70 -44q-26 0 -54 17q-18 11 -28 11q-7 0 -11.5 -3.5t-9.5 -9.5q-10 -15 -27 -15q-14 0 -23 8.5t-9 22.5t10 28q11 17 28 25t37 8q16 0 26.5 -4z" />
    <glyph glyph-name="adieresis" unicode="&#xe4;" 
d="M150.5 685.5q-14.5 14.5 -14.5 35.5t14.5 35.5t36.5 14.5t36.5 -14.5t14.5 -35.5t-14.5 -35.5t-36.5 -14.5t-36.5 14.5zM446.5 685.5q-14.5 14.5 -14.5 35.5t14.5 35.5t36.5 14.5t36.5 -14.5t14.5 -35.5t-14.5 -35.5t-36.5 -14.5t-36.5 14.5zM663 104q0 -44 -29 -74
t-74 -30q-35 0 -61.5 18t-37.5 50l-14 41h-224l-14 -41q-11 -32 -37.5 -50t-60.5 -18q-46 0 -75 30t-29 74q0 27 10 50l195 461q37 85 123 85q87 0 124 -85l194 -461q10 -23 10 -50zM387 278l-52 147l-52 -147h104z" />
    <glyph glyph-name="aring" unicode="&#xe5;" 
d="M663 104q0 -44 -29 -74t-74 -30q-35 0 -61.5 18t-37.5 50l-14 41h-224l-14 -41q-11 -32 -37.5 -50t-60.5 -18q-46 0 -75 30t-29 74q0 27 10 50l195 461q23 50 60 71q-21 23 -21 55q0 34 24.5 58t59.5 24t59.5 -24t24.5 -58q0 -32 -21 -55q38 -20 61 -71l194 -461
q10 -23 10 -50zM307.5 769q-11.5 -11 -11.5 -28q0 -16 11.5 -27.5t27.5 -11.5q17 0 28 11.5t11 27.5q0 17 -11 28t-28 11q-16 0 -27.5 -11zM387 278l-52 147l-52 -147h104z" />
    <glyph glyph-name="ae" unicode="&#xe6;" horiz-adv-x="909" 
d="M864 168.5q29 -28.5 29 -69.5t-29 -70t-70 -29h-289q-43 0 -74 31t-31 74v4h-173l-17 -41q-14 -32 -39 -50t-59 -18q-46 0 -75.5 30.5t-29.5 74.5q0 22 11 49l207 461q19 41 47.5 63t74.5 22h447q41 0 70 -28.5t29 -69.5t-29 -70t-70 -29h-184v-65h151q35 0 60 -25
t25 -60t-25 -60t-60 -25h-151v-71h184q41 0 70 -28.5zM400 278v244l-102 -244h102z" />
    <glyph glyph-name="ccedilla" unicode="&#xe7;" horiz-adv-x="679" 
d="M628 222q30 -31 30 -73q0 -44 -38 -78q-92 -81 -236 -81q-15 0 -22 1l-6 -14q37 -1 57 -21t20 -50q0 -35 -24 -56t-65 -21q-37 0 -59 13q-17 10 -17 26q0 10 7 18t18 8q13 0 25 -7q16 -7 28 -7q14 0 22.5 7t8.5 18q0 12 -9 18t-24 6q-7 0 -13 -1t-12 -1q-24 0 -24 20
q0 7 1 11l16 39q-82 16 -147.5 66.5t-102 125t-36.5 161.5q0 99 47 181.5t129 130.5t182 48q144 0 236 -81q38 -34 38 -78q0 -42 -30 -73.5t-73 -31.5q-29 0 -54 15q-33 20 -57.5 29.5t-59.5 9.5q-42 0 -75.5 -20t-52.5 -54t-19 -76t19 -76t52.5 -54t75.5 -20q35 0 59.5 9.5
t57.5 29.5q23 14 54 14q43 0 73 -31z" />
    <glyph glyph-name="egrave" unicode="&#xe8;" horiz-adv-x="553" 
d="M508 168.5q29 -28.5 29 -69.5t-29 -70t-70 -29h-289q-43 0 -74 31t-31 74v490q0 44 31 74.5t74 30.5h289q41 0 70 -28.5t29 -69.5t-29 -70t-70 -29h-184v-65h151q35 0 60 -25t25 -60t-25 -60t-60 -25h-151v-71h184q41 0 70 -28.5zM346.5 771.5q4.5 -8.5 4.5 -17.5
q0 -15 -10.5 -25t-24.5 -10q-9 0 -16 4l-100 51q-7 4 -12 12.5t-5 17.5q0 15 11 25t24 10q8 0 14 -3l101 -52q9 -4 13.5 -12.5z" />
    <glyph glyph-name="eacute" unicode="&#xe9;" horiz-adv-x="553" 
d="M508 168.5q29 -28.5 29 -69.5t-29 -70t-70 -29h-289q-43 0 -74 31t-31 74v490q0 44 31 74.5t74 30.5h289q41 0 70 -28.5t29 -69.5t-29 -70t-70 -29h-184v-65h151q35 0 60 -25t25 -60t-25 -60t-60 -25h-151v-71h184q41 0 70 -28.5zM346 836q6 3 14 3q13 0 24 -10t11 -25
q0 -9 -5 -17.5t-12 -12.5l-100 -51q-7 -4 -16 -4q-14 0 -24.5 10t-10.5 25q0 9 4.5 17.5t13.5 12.5z" />
    <glyph glyph-name="ecircumflex" unicode="&#xea;" horiz-adv-x="553" 
d="M508 168.5q29 -28.5 29 -69.5t-29 -70t-70 -29h-289q-43 0 -74 31t-31 74v490q0 44 31 74.5t74 30.5h289q41 0 70 -28.5t29 -69.5t-29 -70t-70 -29h-184v-65h151q35 0 60 -25t25 -60t-25 -60t-60 -25h-151v-71h184q41 0 70 -28.5zM402 765.5q5 -8.5 5 -16.5
q0 -15 -9.5 -24t-24.5 -9q-12 0 -23 7l-62 38l-62 -35q-12 -6 -23 -6q-15 0 -24.5 9t-9.5 23q0 9 5 17.5t14 13.5l71 42q15 9 31 9q15 0 30 -9l68 -45q9 -6 14 -14.5z" />
    <glyph glyph-name="edieresis" unicode="&#xeb;" horiz-adv-x="553" 
d="M508 168.5q29 -28.5 29 -69.5t-29 -70t-70 -29h-289q-43 0 -74 31t-31 74v490q0 44 31 74.5t74 30.5h289q41 0 70 -28.5t29 -69.5t-29 -70t-70 -29h-184v-65h151q35 0 60 -25t25 -60t-25 -60t-60 -25h-151v-71h184q41 0 70 -28.5zM124.5 732.5q-14.5 14.5 -14.5 35.5
t14.5 35.5t36.5 14.5t36.5 -14.5t14.5 -35.5t-14.5 -35.5t-36.5 -14.5t-36.5 14.5zM380.5 732.5q-14.5 14.5 -14.5 35.5t14.5 35.5t36.5 14.5t36.5 -14.5t14.5 -35.5t-14.5 -35.5t-36.5 -14.5t-36.5 14.5z" />
    <glyph glyph-name="igrave" unicode="&#xec;" horiz-adv-x="298" 
d="M223.5 669.5q30.5 -30.5 30.5 -74.5v-490q0 -43 -30.5 -74t-74.5 -31q-43 0 -74 31t-31 74v490q0 44 31 74.5t74 30.5q44 0 74.5 -30.5zM206.5 771.5q4.5 -8.5 4.5 -17.5q0 -15 -10.5 -25t-24.5 -10q-9 0 -16 4l-100 51q-7 4 -12 12.5t-5 17.5q0 15 11 25t24 10
q8 0 14 -3l101 -52q9 -4 13.5 -12.5z" />
    <glyph glyph-name="iacute" unicode="&#xed;" horiz-adv-x="298" 
d="M223.5 669.5q30.5 -30.5 30.5 -74.5v-490q0 -43 -30.5 -74t-74.5 -31q-43 0 -74 31t-31 74v490q0 44 31 74.5t74 30.5q44 0 74.5 -30.5zM206 836q6 3 14 3q13 0 24 -10t11 -25q0 -9 -5 -17.5t-12 -12.5l-100 -51q-7 -4 -16 -4q-14 0 -24.5 10t-10.5 25q0 9 4.5 17.5
t13.5 12.5z" />
    <glyph glyph-name="icircumflex" unicode="&#xee;" horiz-adv-x="298" 
d="M223.5 669.5q30.5 -30.5 30.5 -74.5v-490q0 -43 -30.5 -74t-74.5 -31q-43 0 -74 31t-31 74v490q0 44 31 74.5t74 30.5q44 0 74.5 -30.5zM262 765.5q5 -8.5 5 -16.5q0 -15 -9.5 -24t-24.5 -9q-12 0 -23 7l-62 38l-62 -35q-12 -6 -23 -6q-15 0 -24.5 9t-9.5 23q0 9 5 17.5
t14 13.5l71 42q15 9 31 9q15 0 30 -9l68 -45q9 -6 14 -14.5z" />
    <glyph glyph-name="idieresis" unicode="&#xef;" horiz-adv-x="298" 
d="M4.5 712.5q-14.5 14.5 -14.5 35.5t14.5 35.5t36.5 14.5t36.5 -14.5t14.5 -35.5t-14.5 -35.5t-36.5 -14.5t-36.5 14.5zM220.5 712.5q-14.5 14.5 -14.5 35.5t14.5 35.5t36.5 14.5t36.5 -14.5t14.5 -35.5t-14.5 -35.5t-36.5 -14.5t-36.5 14.5zM223.5 669.5
q30.5 -30.5 30.5 -74.5v-490q0 -43 -30.5 -74t-74.5 -31q-43 0 -74 31t-31 74v490q0 44 31 74.5t74 30.5q44 0 74.5 -30.5z" />
    <glyph glyph-name="eth" unicode="&#xf0;" horiz-adv-x="730" 
d="M532 653q80 -47 126 -127.5t46 -175.5t-46 -175.5t-126 -127.5t-176 -47h-177q-43 0 -74 31t-31 74v210h-27q-14 0 -24 10.5t-10 25.5q0 14 10 24.5t24 10.5h27v209q0 44 31 74.5t74 30.5h177q96 0 176 -47zM426.5 228.5q31.5 18.5 49.5 50.5t18 71t-18 71t-49.5 50.5
t-70.5 18.5h-72v-104h84q15 0 25 -10.5t10 -24.5q0 -15 -10 -25.5t-25 -10.5h-84v-105h72q39 0 70.5 18.5z" />
    <glyph glyph-name="ntilde" unicode="&#xf1;" horiz-adv-x="674" 
d="M599.5 669.5q30.5 -30.5 30.5 -74.5v-490q0 -44 -30 -74.5t-74 -30.5q-29 0 -53 14.5t-40 38.5l-179 271v-219q0 -43 -30.5 -74t-74.5 -31q-43 0 -74 31t-31 74v490q0 44 31 74.5t74 30.5q57 0 92 -53l179 -268v216q0 44 31 74.5t74 30.5q44 0 74.5 -30.5zM320.5 789
q10.5 -4 26.5 -13q18 -11 27 -11q8 0 12.5 3t9.5 9q6 8 12 12t15 4q14 0 23 -8.5t9 -21.5q0 -10 -4 -18q-23 -44 -70 -44q-26 0 -54 17q-18 11 -28 11q-7 0 -11.5 -3.5t-9.5 -9.5q-10 -15 -27 -15q-14 0 -23 8.5t-9 22.5t10 28q11 17 28 25t37 8q16 0 26.5 -4z" />
    <glyph glyph-name="ograve" unicode="&#xf2;" horiz-adv-x="768" 
d="M203 38.5q-82 48.5 -129.5 131t-47.5 180.5t47.5 180.5t129.5 131t181 48.5t181 -48.5t129.5 -131t47.5 -180.5t-47.5 -180.5t-129.5 -131t-181 -48.5t-181 48.5zM459.5 220q33.5 20 53 54t19.5 76t-19.5 76t-53 54t-75.5 20t-75.5 -20t-53 -54t-19.5 -76t19.5 -76
t53 -54t75.5 -20t75.5 20zM441.5 781.5q4.5 -8.5 4.5 -17.5q0 -15 -10.5 -25t-24.5 -10q-9 0 -16 4l-100 51q-7 4 -12 12.5t-5 17.5q0 15 11 25t24 10q8 0 14 -3l101 -52q9 -4 13.5 -12.5z" />
    <glyph glyph-name="oacute" unicode="&#xf3;" horiz-adv-x="768" 
d="M203 38.5q-82 48.5 -129.5 131t-47.5 180.5t47.5 180.5t129.5 131t181 48.5t181 -48.5t129.5 -131t47.5 -180.5t-47.5 -180.5t-129.5 -131t-181 -48.5t-181 48.5zM459.5 220q33.5 20 53 54t19.5 76t-19.5 76t-53 54t-75.5 20t-75.5 -20t-53 -54t-19.5 -76t19.5 -76
t53 -54t75.5 -20t75.5 20zM441 846q6 3 14 3q13 0 24 -10t11 -25q0 -9 -5 -17.5t-12 -12.5l-100 -51q-7 -4 -16 -4q-14 0 -24.5 10t-10.5 25q0 9 4.5 17.5t13.5 12.5z" />
    <glyph glyph-name="ocircumflex" unicode="&#xf4;" horiz-adv-x="768" 
d="M203 38.5q-82 48.5 -129.5 131t-47.5 180.5t47.5 180.5t129.5 131t181 48.5t181 -48.5t129.5 -131t47.5 -180.5t-47.5 -180.5t-129.5 -131t-181 -48.5t-181 48.5zM459.5 220q33.5 20 53 54t19.5 76t-19.5 76t-53 54t-75.5 20t-75.5 -20t-53 -54t-19.5 -76t19.5 -76
t53 -54t75.5 -20t75.5 20zM497 775.5q5 -8.5 5 -16.5q0 -15 -9.5 -24t-24.5 -9q-12 0 -23 7l-62 38l-62 -35q-12 -6 -23 -6q-15 0 -24.5 9t-9.5 23q0 9 5 17.5t14 13.5l71 42q15 9 31 9q15 0 30 -9l68 -45q9 -6 14 -14.5z" />
    <glyph glyph-name="otilde" unicode="&#xf5;" horiz-adv-x="768" 
d="M203 38.5q-82 48.5 -129.5 131t-47.5 180.5t47.5 180.5t129.5 131t181 48.5t181 -48.5t129.5 -131t47.5 -180.5t-47.5 -180.5t-129.5 -131t-181 -48.5t-181 48.5zM459.5 220q33.5 20 53 54t19.5 76t-19.5 76t-53 54t-75.5 20t-75.5 -20t-53 -54t-19.5 -76t19.5 -76
t53 -54t75.5 -20t75.5 20zM367.5 819q10.5 -4 26.5 -13q18 -11 27 -11q8 0 12.5 3t9.5 9q6 8 12 12t15 4q14 0 23 -8.5t9 -21.5q0 -10 -4 -18q-23 -44 -70 -44q-26 0 -54 17q-18 11 -28 11q-7 0 -11.5 -3.5t-9.5 -9.5q-10 -15 -27 -15q-14 0 -23 8.5t-9 22.5t10 28
q11 17 28 25t37 8q16 0 26.5 -4z" />
    <glyph glyph-name="odieresis" unicode="&#xf6;" horiz-adv-x="768" 
d="M131.5 695.5q-14.5 14.5 -14.5 35.5t14.5 35.5t36.5 14.5t36.5 -14.5t14.5 -35.5t-14.5 -35.5t-36.5 -14.5t-36.5 14.5zM563.5 695.5q-14.5 14.5 -14.5 35.5t14.5 35.5t36.5 14.5t36.5 -14.5t14.5 -35.5t-14.5 -35.5t-36.5 -14.5t-36.5 14.5zM203 38.5
q-82 48.5 -129.5 131t-47.5 180.5t47.5 180.5t129.5 131t181 48.5t181 -48.5t129.5 -131t47.5 -180.5t-47.5 -180.5t-129.5 -131t-181 -48.5t-181 48.5zM459.5 220q33.5 20 53 54t19.5 76t-19.5 76t-53 54t-75.5 20t-75.5 -20t-53 -54t-19.5 -76t19.5 -76t53 -54t75.5 -20
t75.5 20z" />
    <glyph glyph-name="divide" unicode="&#xf7;" horiz-adv-x="544" 
d="M505 421.5q29 -28.5 29 -69.5t-29 -70t-70 -29h-327q-41 0 -69.5 29t-28.5 70t29 69.5t69 28.5h327q41 0 70 -28.5zM235.5 483.5q-14.5 14.5 -14.5 35.5t14.5 35.5t36.5 14.5t36.5 -14.5t14.5 -35.5t-14.5 -35.5t-36.5 -14.5t-36.5 14.5zM235.5 148.5
q-14.5 14.5 -14.5 35.5t14.5 35.5t36.5 14.5t36.5 -14.5t14.5 -35.5t-14.5 -35.5t-36.5 -14.5t-36.5 14.5z" />
    <glyph glyph-name="oslash" unicode="&#xf8;" horiz-adv-x="768" 
d="M715 488.5q27 -65.5 27 -138.5q0 -98 -47.5 -180.5t-129.5 -131t-181 -48.5q-115 0 -207 65l-38 -45q-9 -11 -24 -11q-12 0 -22 8q-11 8 -11 23q0 13 8 21l38 46q-48 50 -75 115t-27 138q0 98 47.5 180.5t129.5 131t181 48.5q113 0 206 -64l36 43q9 11 23 11q12 0 23 -8
q12 -9 12 -24q0 -10 -8 -20l-37 -44q49 -50 76 -115.5zM265 259l188 225q-32 16 -69 16q-42 0 -75.5 -20t-53 -54t-19.5 -76q0 -51 29 -91zM459.5 220q33.5 20 53 54t19.5 76q0 53 -30 92l-189 -225q32 -17 71 -17q42 0 75.5 20z" />
    <glyph glyph-name="ugrave" unicode="&#xf9;" horiz-adv-x="662" 
d="M593.5 669.5q30.5 -30.5 30.5 -74.5v-320q0 -78 -37 -143.5t-104 -103.5t-152 -38t-152 38t-104 103.5t-37 143.5v320q0 44 31 74.5t74 30.5q44 0 74.5 -30.5t30.5 -74.5v-301q0 -45 23.5 -69.5t59.5 -24.5t59.5 24.5t23.5 69.5v301q0 44 31 74.5t74 30.5
q44 0 74.5 -30.5zM388.5 771.5q4.5 -8.5 4.5 -17.5q0 -15 -10.5 -25t-24.5 -10q-9 0 -16 4l-100 51q-7 4 -12 12.5t-5 17.5q0 15 11 25t24 10q8 0 14 -3l101 -52q9 -4 13.5 -12.5z" />
    <glyph glyph-name="uacute" unicode="&#xfa;" horiz-adv-x="662" 
d="M593.5 669.5q30.5 -30.5 30.5 -74.5v-320q0 -78 -37 -143.5t-104 -103.5t-152 -38t-152 38t-104 103.5t-37 143.5v320q0 44 31 74.5t74 30.5q44 0 74.5 -30.5t30.5 -74.5v-301q0 -45 23.5 -69.5t59.5 -24.5t59.5 24.5t23.5 69.5v301q0 44 31 74.5t74 30.5
q44 0 74.5 -30.5zM388 836q6 3 14 3q13 0 24 -10t11 -25q0 -9 -5 -17.5t-12 -12.5l-100 -51q-7 -4 -16 -4q-14 0 -24.5 10t-10.5 25q0 9 4.5 17.5t13.5 12.5z" />
    <glyph glyph-name="ucircumflex" unicode="&#xfb;" horiz-adv-x="662" 
d="M593.5 669.5q30.5 -30.5 30.5 -74.5v-320q0 -78 -37 -143.5t-104 -103.5t-152 -38t-152 38t-104 103.5t-37 143.5v320q0 44 31 74.5t74 30.5q44 0 74.5 -30.5t30.5 -74.5v-301q0 -45 23.5 -69.5t59.5 -24.5t59.5 24.5t23.5 69.5v301q0 44 31 74.5t74 30.5
q44 0 74.5 -30.5zM444 765.5q5 -8.5 5 -16.5q0 -15 -9.5 -24t-24.5 -9q-12 0 -23 7l-62 38l-62 -35q-12 -6 -23 -6q-15 0 -24.5 9t-9.5 23q0 9 5 17.5t14 13.5l71 42q15 9 31 9q15 0 30 -9l68 -45q9 -6 14 -14.5z" />
    <glyph glyph-name="udieresis" unicode="&#xfc;" horiz-adv-x="662" 
d="M593.5 669.5q30.5 -30.5 30.5 -74.5v-320q0 -78 -37 -143.5t-104 -103.5t-152 -38t-152 38t-104 103.5t-37 143.5v320q0 44 31 74.5t74 30.5q44 0 74.5 -30.5t30.5 -74.5v-301q0 -45 23.5 -69.5t59.5 -24.5t59.5 24.5t23.5 69.5v301q0 44 31 74.5t74 30.5
q44 0 74.5 -30.5zM166.5 732.5q-14.5 14.5 -14.5 35.5t14.5 35.5t36.5 14.5t36.5 -14.5t14.5 -35.5t-14.5 -35.5t-36.5 -14.5t-36.5 14.5zM422.5 732.5q-14.5 14.5 -14.5 35.5t14.5 35.5t36.5 14.5t36.5 -14.5t14.5 -35.5t-14.5 -35.5t-36.5 -14.5t-36.5 14.5z" />
    <glyph glyph-name="yacute" unicode="&#xfd;" horiz-adv-x="642" 
d="M620 546l-196 -298v-143q0 -43 -30.5 -74t-74.5 -31q-43 0 -74 31t-31 74v147l-192 294q-16 25 -16 54q0 41 32 70.5t76 29.5q33 0 56.5 -17t43.5 -51l107 -178l107 178q20 34 43 51t56 17q45 0 77 -29.5t32 -70.5q0 -29 -16 -54zM376 836q6 3 14 3q13 0 24 -10t11 -25
q0 -9 -5 -17.5t-12 -12.5l-100 -51q-7 -4 -16 -4q-14 0 -24.5 10t-10.5 25q0 9 4.5 17.5t13.5 12.5z" />
    <glyph glyph-name="thorn" unicode="&#xfe;" horiz-adv-x="612" 
d="M463 570.5q60 -29.5 95.5 -85.5t35.5 -131t-35.5 -131t-95.5 -85.5t-134 -29.5h-75v-3q0 -43 -30.5 -74t-74.5 -31q-43 0 -74 31t-31 74v490q0 44 31 74.5t74 30.5q42 0 72.5 -29t32.5 -71h75q74 0 134 -29.5zM368.5 316q15.5 15 15.5 38t-15.5 38t-44.5 15h-70v-106h70
q29 0 44.5 15z" />
    <glyph glyph-name="ydieresis" unicode="&#xff;" horiz-adv-x="642" 
d="M620 546l-196 -298v-143q0 -43 -30.5 -74t-74.5 -31q-43 0 -74 31t-31 74v147l-192 294q-16 25 -16 54q0 41 32 70.5t76 29.5q33 0 56.5 -17t43.5 -51l107 -178l107 178q20 34 43 51t56 17q45 0 77 -29.5t32 -70.5q0 -29 -16 -54zM154.5 724.5q-14.5 14.5 -14.5 35.5
t14.5 35.5t36.5 14.5t36.5 -14.5t14.5 -35.5t-14.5 -35.5t-36.5 -14.5t-36.5 14.5zM410.5 724.5q-14.5 14.5 -14.5 35.5t14.5 35.5t36.5 14.5t36.5 -14.5t14.5 -35.5t-14.5 -35.5t-36.5 -14.5t-36.5 14.5z" />
    <glyph glyph-name="Amacron" unicode="&#x100;" 
d="M663 104q0 -44 -29 -74t-74 -30q-35 0 -61.5 18t-37.5 50l-14 41h-224l-14 -41q-11 -32 -37.5 -50t-60.5 -18q-46 0 -75 30t-29 74q0 27 10 50l195 461q37 85 123 85q87 0 124 -85l194 -461q10 -23 10 -50zM387 278l-52 147l-52 -147h104zM229.5 737.5
q-10.5 9.5 -10.5 24.5t10.5 24.5t26.5 9.5h158q16 0 26.5 -9.5t10.5 -24.5t-10.5 -24.5t-26.5 -9.5h-158q-16 0 -26.5 9.5z" />
    <glyph glyph-name="amacron" unicode="&#x101;" 
d="M663 104q0 -44 -29 -74t-74 -30q-35 0 -61.5 18t-37.5 50l-14 41h-224l-14 -41q-11 -32 -37.5 -50t-60.5 -18q-46 0 -75 30t-29 74q0 27 10 50l195 461q37 85 123 85q87 0 124 -85l194 -461q10 -23 10 -50zM387 278l-52 147l-52 -147h104zM229.5 737.5
q-10.5 9.5 -10.5 24.5t10.5 24.5t26.5 9.5h158q16 0 26.5 -9.5t10.5 -24.5t-10.5 -24.5t-26.5 -9.5h-158q-16 0 -26.5 9.5z" />
    <glyph glyph-name="Abreve" unicode="&#x102;" 
d="M663 104q0 -44 -29 -74t-74 -30q-35 0 -61.5 18t-37.5 50l-14 41h-224l-14 -41q-11 -32 -37.5 -50t-60.5 -18q-46 0 -75 30t-29 74q0 27 10 50l195 461q37 85 123 85q87 0 124 -85l194 -461q10 -23 10 -50zM387 278l-52 147l-52 -147h104zM268.5 737.5
q-29.5 16.5 -39.5 41.5q-3 9 -3 17q0 13 9.5 22t23.5 9q12 0 19.5 -5t13 -11.5t7.5 -8.5q15 -16 35 -16t35 16q2 2 8.5 9.5t14 11.5t17.5 4q14 0 24 -8.5t10 -22.5q0 -9 -4 -17q-14 -26 -42 -42t-63 -16q-36 0 -65.5 16.5z" />
    <glyph glyph-name="abreve" unicode="&#x103;" 
d="M663 104q0 -44 -29 -74t-74 -30q-35 0 -61.5 18t-37.5 50l-14 41h-224l-14 -41q-11 -32 -37.5 -50t-60.5 -18q-46 0 -75 30t-29 74q0 27 10 50l195 461q37 85 123 85q87 0 124 -85l194 -461q10 -23 10 -50zM387 278l-52 147l-52 -147h104zM268.5 737.5
q-29.5 16.5 -39.5 41.5q-3 9 -3 17q0 13 9.5 22t23.5 9q12 0 19.5 -5t13 -11.5t7.5 -8.5q15 -16 35 -16t35 16q2 2 8.5 9.5t14 11.5t17.5 4q14 0 24 -8.5t10 -22.5q0 -9 -4 -17q-14 -26 -42 -42t-63 -16q-36 0 -65.5 16.5z" />
    <glyph glyph-name="Aogonek" unicode="&#x104;" 
d="M578.5 -17q-8.5 -13 -8.5 -27q0 -12 8 -19t22 -13q25 -9 25 -29q0 -16 -11 -25t-29 -8q-37 3 -59 23t-22 51q0 39 26 68q-24 6 -42 22.5t-27 41.5l-14 41h-224l-14 -41q-11 -32 -37.5 -50t-60.5 -18q-46 0 -75 30t-29 74q0 27 10 50l195 461q37 85 123 85q87 0 124 -85
l194 -461q10 -23 10 -50q0 -30 -14.5 -54.5t-39.5 -37.5q-22 -16 -30.5 -29zM387 278l-52 147l-52 -147h104z" />
    <glyph glyph-name="aogonek" unicode="&#x105;" 
d="M578.5 -17q-8.5 -13 -8.5 -27q0 -12 8 -19t22 -13q25 -9 25 -29q0 -16 -11 -25t-29 -8q-37 3 -59 23t-22 51q0 39 26 68q-24 6 -42 22.5t-27 41.5l-14 41h-224l-14 -41q-11 -32 -37.5 -50t-60.5 -18q-46 0 -75 30t-29 74q0 27 10 50l195 461q37 85 123 85q87 0 124 -85
l194 -461q10 -23 10 -50q0 -30 -14.5 -54.5t-39.5 -37.5q-22 -16 -30.5 -29zM387 278l-52 147l-52 -147h104z" />
    <glyph glyph-name="Cacute" unicode="&#x106;" horiz-adv-x="679" 
d="M202 38q-82 48 -129 130.5t-47 181.5t47 181.5t129 130.5t182 48q144 0 236 -81q38 -34 38 -78q0 -42 -30 -73.5t-73 -31.5q-29 0 -54 15q-33 20 -57.5 29.5t-59.5 9.5q-42 0 -75.5 -20t-52.5 -54t-19 -76t19 -76t52.5 -54t75.5 -20q35 0 59.5 9.5t57.5 29.5q23 14 54 14
q43 0 73 -31t30 -73q0 -44 -38 -78q-92 -81 -236 -81q-100 0 -182 48zM446 846q6 3 14 3q13 0 24 -10t11 -25q0 -9 -5 -17.5t-12 -12.5l-100 -51q-7 -4 -16 -4q-14 0 -24.5 10t-10.5 25q0 9 4.5 17.5t13.5 12.5z" />
    <glyph glyph-name="cacute" unicode="&#x107;" horiz-adv-x="679" 
d="M202 38q-82 48 -129 130.5t-47 181.5t47 181.5t129 130.5t182 48q144 0 236 -81q38 -34 38 -78q0 -42 -30 -73.5t-73 -31.5q-29 0 -54 15q-33 20 -57.5 29.5t-59.5 9.5q-42 0 -75.5 -20t-52.5 -54t-19 -76t19 -76t52.5 -54t75.5 -20q35 0 59.5 9.5t57.5 29.5q23 14 54 14
q43 0 73 -31t30 -73q0 -44 -38 -78q-92 -81 -236 -81q-100 0 -182 48zM446 846q6 3 14 3q13 0 24 -10t11 -25q0 -9 -5 -17.5t-12 -12.5l-100 -51q-7 -4 -16 -4q-14 0 -24.5 10t-10.5 25q0 9 4.5 17.5t13.5 12.5z" />
    <glyph glyph-name="Cdotaccent" unicode="&#x10a;" horiz-adv-x="679" 
d="M202 38q-82 48 -129 130.5t-47 181.5t47 181.5t129 130.5t182 48q144 0 236 -81q38 -34 38 -78q0 -42 -30 -73.5t-73 -31.5q-29 0 -54 15q-33 20 -57.5 29.5t-59.5 9.5q-42 0 -75.5 -20t-52.5 -54t-19 -76t19 -76t52.5 -54t75.5 -20q35 0 59.5 9.5t57.5 29.5q23 14 54 14
q43 0 73 -31t30 -73q0 -44 -38 -78q-92 -81 -236 -81q-100 0 -182 48zM352.5 742.5q-14.5 14.5 -14.5 35.5t14.5 35.5t36.5 14.5t36.5 -14.5t14.5 -35.5t-14.5 -35.5t-36.5 -14.5t-36.5 14.5z" />
    <glyph glyph-name="cdotaccent" unicode="&#x10b;" horiz-adv-x="679" 
d="M202 38q-82 48 -129 130.5t-47 181.5t47 181.5t129 130.5t182 48q144 0 236 -81q38 -34 38 -78q0 -42 -30 -73.5t-73 -31.5q-29 0 -54 15q-33 20 -57.5 29.5t-59.5 9.5q-42 0 -75.5 -20t-52.5 -54t-19 -76t19 -76t52.5 -54t75.5 -20q35 0 59.5 9.5t57.5 29.5q23 14 54 14
q43 0 73 -31t30 -73q0 -44 -38 -78q-92 -81 -236 -81q-100 0 -182 48zM352.5 742.5q-14.5 14.5 -14.5 35.5t14.5 35.5t36.5 14.5t36.5 -14.5t14.5 -35.5t-14.5 -35.5t-36.5 -14.5t-36.5 14.5z" />
    <glyph glyph-name="Ccaron" unicode="&#x10c;" horiz-adv-x="679" 
d="M202 38q-82 48 -129 130.5t-47 181.5t47 181.5t129 130.5t182 48q144 0 236 -81q38 -34 38 -78q0 -42 -30 -73.5t-73 -31.5q-29 0 -54 15q-33 20 -57.5 29.5t-59.5 9.5q-42 0 -75.5 -20t-52.5 -54t-19 -76t19 -76t52.5 -54t75.5 -20q35 0 59.5 9.5t57.5 29.5q23 14 54 14
q43 0 73 -31t30 -73q0 -44 -38 -78q-92 -81 -236 -81q-100 0 -182 48zM475 847q15 0 24.5 -9t9.5 -24q0 -8 -5 -16.5t-14 -14.5l-68 -45q-15 -9 -30 -9q-16 0 -31 9l-71 42q-9 5 -14 13.5t-5 17.5q0 14 9.5 23t24.5 9q11 0 23 -6l62 -35l62 38q11 7 23 7z" />
    <glyph glyph-name="ccaron" unicode="&#x10d;" horiz-adv-x="679" 
d="M202 38q-82 48 -129 130.5t-47 181.5t47 181.5t129 130.5t182 48q144 0 236 -81q38 -34 38 -78q0 -42 -30 -73.5t-73 -31.5q-29 0 -54 15q-33 20 -57.5 29.5t-59.5 9.5q-42 0 -75.5 -20t-52.5 -54t-19 -76t19 -76t52.5 -54t75.5 -20q35 0 59.5 9.5t57.5 29.5q23 14 54 14
q43 0 73 -31t30 -73q0 -44 -38 -78q-92 -81 -236 -81q-100 0 -182 48zM475 847q15 0 24.5 -9t9.5 -24q0 -8 -5 -16.5t-14 -14.5l-68 -45q-15 -9 -30 -9q-16 0 -31 9l-71 42q-9 5 -14 13.5t-5 17.5q0 14 9.5 23t24.5 9q11 0 23 -6l62 -35l62 38q11 7 23 7z" />
    <glyph glyph-name="Dcaron" unicode="&#x10e;" horiz-adv-x="700" 
d="M502 653q80 -47 126 -127.5t46 -175.5t-46 -175.5t-126 -127.5t-176 -47h-177q-43 0 -74 31t-31 74v490q0 44 31 74.5t74 30.5h177q96 0 176 -47zM396.5 228.5q31.5 18.5 49.5 50.5t18 71t-18 71t-49.5 50.5t-70.5 18.5h-72v-280h72q39 0 70.5 18.5zM396 837
q15 0 24.5 -9t9.5 -24q0 -8 -5 -16.5t-14 -14.5l-68 -45q-15 -9 -30 -9q-16 0 -31 9l-71 42q-9 5 -14 13.5t-5 17.5q0 14 9.5 23t24.5 9q11 0 23 -6l62 -35l62 38q11 7 23 7z" />
    <glyph glyph-name="dcaron" unicode="&#x10f;" horiz-adv-x="700" 
d="M502 653q80 -47 126 -127.5t46 -175.5t-46 -175.5t-126 -127.5t-176 -47h-177q-43 0 -74 31t-31 74v490q0 44 31 74.5t74 30.5h177q96 0 176 -47zM396.5 228.5q31.5 18.5 49.5 50.5t18 71t-18 71t-49.5 50.5t-70.5 18.5h-72v-280h72q39 0 70.5 18.5zM396 837
q15 0 24.5 -9t9.5 -24q0 -8 -5 -16.5t-14 -14.5l-68 -45q-15 -9 -30 -9q-16 0 -31 9l-71 42q-9 5 -14 13.5t-5 17.5q0 14 9.5 23t24.5 9q11 0 23 -6l62 -35l62 38q11 7 23 7z" />
    <glyph glyph-name="Dcroat" unicode="&#x110;" horiz-adv-x="730" 
d="M532 653q80 -47 126 -127.5t46 -175.5t-46 -175.5t-126 -127.5t-176 -47h-177q-43 0 -74 31t-31 74v210h-27q-14 0 -24 10.5t-10 25.5q0 14 10 24.5t24 10.5h27v209q0 44 31 74.5t74 30.5h177q96 0 176 -47zM426.5 228.5q31.5 18.5 49.5 50.5t18 71t-18 71t-49.5 50.5
t-70.5 18.5h-72v-104h84q15 0 25 -10.5t10 -24.5q0 -15 -10 -25.5t-25 -10.5h-84v-105h72q39 0 70.5 18.5z" />
    <glyph glyph-name="dcroat" unicode="&#x111;" horiz-adv-x="730" 
d="M532 653q80 -47 126 -127.5t46 -175.5t-46 -175.5t-126 -127.5t-176 -47h-177q-43 0 -74 31t-31 74v210h-27q-14 0 -24 10.5t-10 25.5q0 14 10 24.5t24 10.5h27v209q0 44 31 74.5t74 30.5h177q96 0 176 -47zM426.5 228.5q31.5 18.5 49.5 50.5t18 71t-18 71t-49.5 50.5
t-70.5 18.5h-72v-104h84q15 0 25 -10.5t10 -24.5q0 -15 -10 -25.5t-25 -10.5h-84v-105h72q39 0 70.5 18.5z" />
    <glyph glyph-name="Emacron" unicode="&#x112;" horiz-adv-x="553" 
d="M508 168.5q29 -28.5 29 -69.5t-29 -70t-70 -29h-289q-43 0 -74 31t-31 74v490q0 44 31 74.5t74 30.5h289q41 0 70 -28.5t29 -69.5t-29 -70t-70 -29h-184v-65h151q35 0 60 -25t25 -60t-25 -60t-60 -25h-151v-71h184q41 0 70 -28.5zM183.5 737.5q-10.5 9.5 -10.5 24.5
t10.5 24.5t26.5 9.5h158q16 0 26.5 -9.5t10.5 -24.5t-10.5 -24.5t-26.5 -9.5h-158q-16 0 -26.5 9.5z" />
    <glyph glyph-name="emacron" unicode="&#x113;" horiz-adv-x="553" 
d="M508 168.5q29 -28.5 29 -69.5t-29 -70t-70 -29h-289q-43 0 -74 31t-31 74v490q0 44 31 74.5t74 30.5h289q41 0 70 -28.5t29 -69.5t-29 -70t-70 -29h-184v-65h151q35 0 60 -25t25 -60t-25 -60t-60 -25h-151v-71h184q41 0 70 -28.5zM183.5 737.5q-10.5 9.5 -10.5 24.5
t10.5 24.5t26.5 9.5h158q16 0 26.5 -9.5t10.5 -24.5t-10.5 -24.5t-26.5 -9.5h-158q-16 0 -26.5 9.5z" />
    <glyph glyph-name="Edotaccent" unicode="&#x116;" horiz-adv-x="553" 
d="M508 168.5q29 -28.5 29 -69.5t-29 -70t-70 -29h-289q-43 0 -74 31t-31 74v490q0 44 31 74.5t74 30.5h289q41 0 70 -28.5t29 -69.5t-29 -70t-70 -29h-184v-65h151q35 0 60 -25t25 -60t-25 -60t-60 -25h-151v-71h184q41 0 70 -28.5zM252.5 732.5q-14.5 14.5 -14.5 35.5
t14.5 35.5t36.5 14.5t36.5 -14.5t14.5 -35.5t-14.5 -35.5t-36.5 -14.5t-36.5 14.5z" />
    <glyph glyph-name="edotaccent" unicode="&#x117;" horiz-adv-x="553" 
d="M508 168.5q29 -28.5 29 -69.5t-29 -70t-70 -29h-289q-43 0 -74 31t-31 74v490q0 44 31 74.5t74 30.5h289q41 0 70 -28.5t29 -69.5t-29 -70t-70 -29h-184v-65h151q35 0 60 -25t25 -60t-25 -60t-60 -25h-151v-71h184q41 0 70 -28.5zM252.5 732.5q-14.5 14.5 -14.5 35.5
t14.5 35.5t36.5 14.5t36.5 -14.5t14.5 -35.5t-14.5 -35.5t-36.5 -14.5t-36.5 14.5z" />
    <glyph glyph-name="Eogonek" unicode="&#x118;" horiz-adv-x="553" 
d="M508 168.5q29 -28.5 29 -69.5q0 -28 -14 -51t-37 -36q-23 -16 -31.5 -29t-8.5 -27q0 -12 8 -19t22 -13q25 -9 25 -29q0 -16 -11 -25t-29 -8q-37 3 -59 23t-22 51q0 36 23 64h-254q-43 0 -74 31t-31 74v490q0 44 31 74.5t74 30.5h289q41 0 70 -28.5t29 -69.5t-29 -70
t-70 -29h-184v-65h151q35 0 60 -25t25 -60t-25 -60t-60 -25h-151v-71h184q41 0 70 -28.5z" />
    <glyph glyph-name="eogonek" unicode="&#x119;" horiz-adv-x="553" 
d="M508 168.5q29 -28.5 29 -69.5q0 -28 -14 -51t-37 -36q-23 -16 -31.5 -29t-8.5 -27q0 -12 8 -19t22 -13q25 -9 25 -29q0 -16 -11 -25t-29 -8q-37 3 -59 23t-22 51q0 36 23 64h-254q-43 0 -74 31t-31 74v490q0 44 31 74.5t74 30.5h289q41 0 70 -28.5t29 -69.5t-29 -70
t-70 -29h-184v-65h151q35 0 60 -25t25 -60t-25 -60t-60 -25h-151v-71h184q41 0 70 -28.5z" />
    <glyph glyph-name="Ecaron" unicode="&#x11a;" horiz-adv-x="553" 
d="M508 168.5q29 -28.5 29 -69.5t-29 -70t-70 -29h-289q-43 0 -74 31t-31 74v490q0 44 31 74.5t74 30.5h289q41 0 70 -28.5t29 -69.5t-29 -70t-70 -29h-184v-65h151q35 0 60 -25t25 -60t-25 -60t-60 -25h-151v-71h184q41 0 70 -28.5zM375 837q15 0 24.5 -9t9.5 -24
q0 -8 -5 -16.5t-14 -14.5l-68 -45q-15 -9 -30 -9q-16 0 -31 9l-71 42q-9 5 -14 13.5t-5 17.5q0 14 9.5 23t24.5 9q11 0 23 -6l62 -35l62 38q11 7 23 7z" />
    <glyph glyph-name="ecaron" unicode="&#x11b;" horiz-adv-x="553" 
d="M508 168.5q29 -28.5 29 -69.5t-29 -70t-70 -29h-289q-43 0 -74 31t-31 74v490q0 44 31 74.5t74 30.5h289q41 0 70 -28.5t29 -69.5t-29 -70t-70 -29h-184v-65h151q35 0 60 -25t25 -60t-25 -60t-60 -25h-151v-71h184q41 0 70 -28.5zM375 837q15 0 24.5 -9t9.5 -24
q0 -8 -5 -16.5t-14 -14.5l-68 -45q-15 -9 -30 -9q-16 0 -31 9l-71 42q-9 5 -14 13.5t-5 17.5q0 14 9.5 23t24.5 9q11 0 23 -6l62 -35l62 38q11 7 23 7z" />
    <glyph glyph-name="Gbreve" unicode="&#x11e;" horiz-adv-x="730" 
d="M686.5 373q23.5 -29 23.5 -69q0 -90 -41.5 -161.5t-115.5 -112t-168 -40.5q-99 0 -181 48t-130 130.5t-48 181.5t47 181.5t129 130.5t182 48q144 0 236 -81q38 -34 38 -79q0 -42 -30 -73t-72 -31q-30 0 -55 15q-33 20 -57.5 29.5t-59.5 9.5q-42 0 -75.5 -20t-52.5 -55
t-19 -78q0 -72 41.5 -120t108.5 -48q41 0 71 15.5t47 41.5h-100q-34 0 -58.5 24.5t-24.5 58.5q0 35 24.5 59t58.5 24h223q35 0 58.5 -29zM320.5 747.5q-29.5 16.5 -39.5 41.5q-3 9 -3 17q0 13 9.5 22t23.5 9q12 0 19.5 -5t13 -11.5t7.5 -8.5q15 -16 35 -16t35 16
q2 2 8.5 9.5t14 11.5t17.5 4q14 0 24 -8.5t10 -22.5q0 -9 -4 -17q-14 -26 -42 -42t-63 -16q-36 0 -65.5 16.5z" />
    <glyph glyph-name="gbreve" unicode="&#x11f;" horiz-adv-x="730" 
d="M686.5 373q23.5 -29 23.5 -69q0 -90 -41.5 -161.5t-115.5 -112t-168 -40.5q-99 0 -181 48t-130 130.5t-48 181.5t47 181.5t129 130.5t182 48q144 0 236 -81q38 -34 38 -79q0 -42 -30 -73t-72 -31q-30 0 -55 15q-33 20 -57.5 29.5t-59.5 9.5q-42 0 -75.5 -20t-52.5 -55
t-19 -78q0 -72 41.5 -120t108.5 -48q41 0 71 15.5t47 41.5h-100q-34 0 -58.5 24.5t-24.5 58.5q0 35 24.5 59t58.5 24h223q35 0 58.5 -29zM320.5 747.5q-29.5 16.5 -39.5 41.5q-3 9 -3 17q0 13 9.5 22t23.5 9q12 0 19.5 -5t13 -11.5t7.5 -8.5q15 -16 35 -16t35 16
q2 2 8.5 9.5t14 11.5t17.5 4q14 0 24 -8.5t10 -22.5q0 -9 -4 -17q-14 -26 -42 -42t-63 -16q-36 0 -65.5 16.5z" />
    <glyph glyph-name="Gdotaccent" unicode="&#x120;" horiz-adv-x="730" 
d="M686.5 373q23.5 -29 23.5 -69q0 -90 -41.5 -161.5t-115.5 -112t-168 -40.5q-99 0 -181 48t-130 130.5t-48 181.5t47 181.5t129 130.5t182 48q144 0 236 -81q38 -34 38 -79q0 -42 -30 -73t-72 -31q-30 0 -55 15q-33 20 -57.5 29.5t-59.5 9.5q-42 0 -75.5 -20t-52.5 -55
t-19 -78q0 -72 41.5 -120t108.5 -48q41 0 71 15.5t47 41.5h-100q-34 0 -58.5 24.5t-24.5 58.5q0 35 24.5 59t58.5 24h223q35 0 58.5 -29zM350.5 742.5q-14.5 14.5 -14.5 35.5t14.5 35.5t36.5 14.5t36.5 -14.5t14.5 -35.5t-14.5 -35.5t-36.5 -14.5t-36.5 14.5z" />
    <glyph glyph-name="gdotaccent" unicode="&#x121;" horiz-adv-x="730" 
d="M686.5 373q23.5 -29 23.5 -69q0 -90 -41.5 -161.5t-115.5 -112t-168 -40.5q-99 0 -181 48t-130 130.5t-48 181.5t47 181.5t129 130.5t182 48q144 0 236 -81q38 -34 38 -79q0 -42 -30 -73t-72 -31q-30 0 -55 15q-33 20 -57.5 29.5t-59.5 9.5q-42 0 -75.5 -20t-52.5 -55
t-19 -78q0 -72 41.5 -120t108.5 -48q41 0 71 15.5t47 41.5h-100q-34 0 -58.5 24.5t-24.5 58.5q0 35 24.5 59t58.5 24h223q35 0 58.5 -29zM350.5 742.5q-14.5 14.5 -14.5 35.5t14.5 35.5t36.5 14.5t36.5 -14.5t14.5 -35.5t-14.5 -35.5t-36.5 -14.5t-36.5 14.5z" />
    <glyph glyph-name="Gcommaaccent" unicode="&#x122;" horiz-adv-x="730" 
d="M686.5 373q23.5 -29 23.5 -69q0 -90 -41.5 -161.5t-115.5 -112t-168 -40.5q-99 0 -181 48t-130 130.5t-48 181.5t47 181.5t129 130.5t182 48q144 0 236 -81q38 -34 38 -79q0 -42 -30 -73t-72 -31q-30 0 -55 15q-33 20 -57.5 29.5t-59.5 9.5q-42 0 -75.5 -20t-52.5 -55
t-19 -78q0 -72 41.5 -120t108.5 -48q41 0 71 15.5t47 41.5h-100q-34 0 -58.5 24.5t-24.5 58.5q0 35 24.5 59t58.5 24h223q35 0 58.5 -29zM349 -165q-15 0 -24 10.5t-9 23.5q0 5 1 8l28 70q4 10 12 16t19 6q14 0 25 -9.5t11 -23.5q0 -9 -3 -15l-25 -63q-9 -23 -35 -23z" />
    <glyph glyph-name="gcommaaccent" unicode="&#x123;" horiz-adv-x="730" 
d="M686.5 373q23.5 -29 23.5 -69q0 -90 -41.5 -161.5t-115.5 -112t-168 -40.5q-99 0 -181 48t-130 130.5t-48 181.5t47 181.5t129 130.5t182 48q144 0 236 -81q38 -34 38 -79q0 -42 -30 -73t-72 -31q-30 0 -55 15q-33 20 -57.5 29.5t-59.5 9.5q-42 0 -75.5 -20t-52.5 -55
t-19 -78q0 -72 41.5 -120t108.5 -48q41 0 71 15.5t47 41.5h-100q-34 0 -58.5 24.5t-24.5 58.5q0 35 24.5 59t58.5 24h223q35 0 58.5 -29zM349 -165q-15 0 -24 10.5t-9 23.5q0 5 1 8l28 70q4 10 12 16t19 6q14 0 25 -9.5t11 -23.5q0 -9 -3 -15l-25 -63q-9 -23 -35 -23z" />
    <glyph glyph-name="Hbar" unicode="&#x126;" horiz-adv-x="716" 
d="M688 583.5q10 -10.5 10 -24.5q0 -15 -10 -25.5t-25 -10.5h-13v-418q0 -43 -30.5 -74t-74.5 -31q-43 0 -74 31t-31 74v148h-166v-148q0 -43 -30.5 -74t-74.5 -31q-43 0 -74 31t-31 74v418h-12q-14 0 -24 10.5t-10 25.5q0 14 10 24.5t24 10.5h12v1q0 44 31 74.5t74 30.5
q44 0 74.5 -30.5t30.5 -74.5v-1h166v1q0 44 31 74.5t74 30.5q44 0 74.5 -30.5t30.5 -74.5v-1h13q15 0 25 -10.5zM440 523h-166v-73h166v73z" />
    <glyph glyph-name="hbar" unicode="&#x127;" horiz-adv-x="716" 
d="M688 583.5q10 -10.5 10 -24.5q0 -15 -10 -25.5t-25 -10.5h-13v-418q0 -43 -30.5 -74t-74.5 -31q-43 0 -74 31t-31 74v148h-166v-148q0 -43 -30.5 -74t-74.5 -31q-43 0 -74 31t-31 74v418h-12q-14 0 -24 10.5t-10 25.5q0 14 10 24.5t24 10.5h12v1q0 44 31 74.5t74 30.5
q44 0 74.5 -30.5t30.5 -74.5v-1h166v1q0 44 31 74.5t74 30.5q44 0 74.5 -30.5t30.5 -74.5v-1h13q15 0 25 -10.5zM440 523h-166v-73h166v73z" />
    <glyph glyph-name="Imacron" unicode="&#x12a;" horiz-adv-x="298" 
d="M223.5 669.5q30.5 -30.5 30.5 -74.5v-490q0 -43 -30.5 -74t-74.5 -31q-43 0 -74 31t-31 74v490q0 44 31 74.5t74 30.5q44 0 74.5 -30.5zM43.5 737.5q-10.5 9.5 -10.5 24.5t10.5 24.5t26.5 9.5h158q16 0 26.5 -9.5t10.5 -24.5t-10.5 -24.5t-26.5 -9.5h-158
q-16 0 -26.5 9.5z" />
    <glyph glyph-name="imacron" unicode="&#x12b;" horiz-adv-x="298" 
d="M223.5 669.5q30.5 -30.5 30.5 -74.5v-490q0 -43 -30.5 -74t-74.5 -31q-43 0 -74 31t-31 74v490q0 44 31 74.5t74 30.5q44 0 74.5 -30.5zM43.5 737.5q-10.5 9.5 -10.5 24.5t10.5 24.5t26.5 9.5h158q16 0 26.5 -9.5t10.5 -24.5t-10.5 -24.5t-26.5 -9.5h-158
q-16 0 -26.5 9.5z" />
    <glyph glyph-name="Iogonek" unicode="&#x12e;" horiz-adv-x="298" 
d="M223.5 669.5q30.5 -30.5 30.5 -74.5v-490q0 -30 -15.5 -55t-41.5 -39q-22 -15 -30.5 -28t-8.5 -27q0 -12 8 -19t22 -13q25 -9 25 -29q0 -16 -11 -25t-29 -8q-37 3 -59 23t-22 51q0 39 27 68q-33 10 -54 38t-21 63v490q0 44 31 74.5t74 30.5q44 0 74.5 -30.5z" />
    <glyph glyph-name="iogonek" unicode="&#x12f;" horiz-adv-x="298" 
d="M223.5 669.5q30.5 -30.5 30.5 -74.5v-490q0 -30 -15.5 -55t-41.5 -39q-22 -15 -30.5 -28t-8.5 -27q0 -12 8 -19t22 -13q25 -9 25 -29q0 -16 -11 -25t-29 -8q-37 3 -59 23t-22 51q0 39 27 68q-33 10 -54 38t-21 63v490q0 44 31 74.5t74 30.5q44 0 74.5 -30.5z" />
    <glyph glyph-name="Idotaccent" unicode="&#x130;" horiz-adv-x="298" 
d="M223.5 669.5q30.5 -30.5 30.5 -74.5v-490q0 -43 -30.5 -74t-74.5 -31q-43 0 -74 31t-31 74v490q0 44 31 74.5t74 30.5q44 0 74.5 -30.5zM112.5 732.5q-14.5 14.5 -14.5 35.5t14.5 35.5t36.5 14.5t36.5 -14.5t14.5 -35.5t-14.5 -35.5t-36.5 -14.5t-36.5 14.5z" />
    <glyph glyph-name="dotlessi" unicode="&#x131;" horiz-adv-x="298" 
d="M223.5 669.5q30.5 -30.5 30.5 -74.5v-490q0 -43 -30.5 -74t-74.5 -31q-43 0 -74 31t-31 74v490q0 44 31 74.5t74 30.5q44 0 74.5 -30.5z" />
    <glyph glyph-name="Kcommaaccent" unicode="&#x136;" horiz-adv-x="642" 
d="M626 105q0 -42 -29.5 -73.5t-75.5 -31.5q-26 0 -49 12.5t-38 33.5l-129 184l-51 -54v-71q0 -43 -30.5 -74t-74.5 -31q-43 0 -74 31t-31 74v490q0 44 31 74.5t74 30.5q44 0 74.5 -30.5t30.5 -74.5v-124l175 194q33 36 78 36q47 0 76.5 -31.5t29.5 -73.5q0 -43 -29 -73
l-136 -143l157 -212q21 -28 21 -63zM298 -135q-15 0 -24 10.5t-9 23.5q0 5 1 8l28 70q4 10 12 16t19 6q14 0 25 -9.5t11 -23.5q0 -9 -3 -15l-25 -63q-9 -23 -35 -23z" />
    <glyph glyph-name="kcommaaccent" unicode="&#x137;" horiz-adv-x="642" 
d="M626 105q0 -42 -29.5 -73.5t-75.5 -31.5q-26 0 -49 12.5t-38 33.5l-129 184l-51 -54v-71q0 -43 -30.5 -74t-74.5 -31q-43 0 -74 31t-31 74v490q0 44 31 74.5t74 30.5q44 0 74.5 -30.5t30.5 -74.5v-124l175 194q33 36 78 36q47 0 76.5 -31.5t29.5 -73.5q0 -43 -29 -73
l-136 -143l157 -212q21 -28 21 -63zM298 -135q-15 0 -24 10.5t-9 23.5q0 5 1 8l28 70q4 10 12 16t19 6q14 0 25 -9.5t11 -23.5q0 -9 -3 -15l-25 -63q-9 -23 -35 -23z" />
    <glyph glyph-name="Lacute" unicode="&#x139;" horiz-adv-x="529" 
d="M496 168.5q29 -28.5 29 -69.5t-29 -70t-70 -29h-277q-43 0 -74 31t-31 74v490q0 44 31 74.5t74 30.5q44 0 74.5 -30.5t30.5 -74.5v-398h172q41 0 70 -28.5zM204 836q6 3 14 3q13 0 24 -10t11 -25q0 -9 -5 -17.5t-12 -12.5l-100 -51q-7 -4 -16 -4q-14 0 -24.5 10t-10.5 25
q0 9 4.5 17.5t13.5 12.5z" />
    <glyph glyph-name="lacute" unicode="&#x13a;" horiz-adv-x="529" 
d="M496 168.5q29 -28.5 29 -69.5t-29 -70t-70 -29h-277q-43 0 -74 31t-31 74v490q0 44 31 74.5t74 30.5q44 0 74.5 -30.5t30.5 -74.5v-398h172q41 0 70 -28.5zM204 836q6 3 14 3q13 0 24 -10t11 -25q0 -9 -5 -17.5t-12 -12.5l-100 -51q-7 -4 -16 -4q-14 0 -24.5 10t-10.5 25
q0 9 4.5 17.5t13.5 12.5z" />
    <glyph glyph-name="Lcommaaccent" unicode="&#x13b;" horiz-adv-x="529" 
d="M496 168.5q29 -28.5 29 -69.5t-29 -70t-70 -29h-277q-43 0 -74 31t-31 74v490q0 44 31 74.5t74 30.5q44 0 74.5 -30.5t30.5 -74.5v-398h172q41 0 70 -28.5zM254 -165q-15 0 -24 10.5t-9 23.5q0 5 1 8l28 70q4 10 12 16t19 6q14 0 25 -9.5t11 -23.5q0 -9 -3 -15l-25 -63
q-9 -23 -35 -23z" />
    <glyph glyph-name="lcommaaccent" unicode="&#x13c;" horiz-adv-x="529" 
d="M496 168.5q29 -28.5 29 -69.5t-29 -70t-70 -29h-277q-43 0 -74 31t-31 74v490q0 44 31 74.5t74 30.5q44 0 74.5 -30.5t30.5 -74.5v-398h172q41 0 70 -28.5zM254 -165q-15 0 -24 10.5t-9 23.5q0 5 1 8l28 70q4 10 12 16t19 6q14 0 25 -9.5t11 -23.5q0 -9 -3 -15l-25 -63
q-9 -23 -35 -23z" />
    <glyph glyph-name="Lcaron" unicode="&#x13d;" horiz-adv-x="529" 
d="M496 168.5q29 -28.5 29 -69.5t-29 -70t-70 -29h-277q-43 0 -74 31t-31 74v490q0 44 31 74.5t74 30.5q44 0 74.5 -30.5t30.5 -74.5v-398h172q41 0 70 -28.5zM331.5 521q-8.5 -6 -19.5 -6q-16 0 -25 9.5t-9 23.5q0 6 1 9l27 106q3 12 12.5 19.5t21.5 7.5q17 0 26.5 -10
t9.5 -24q0 -6 -1 -9l-31 -108q-4 -12 -12.5 -18z" />
    <glyph glyph-name="lcaron" unicode="&#x13e;" horiz-adv-x="529" 
d="M496 168.5q29 -28.5 29 -69.5t-29 -70t-70 -29h-277q-43 0 -74 31t-31 74v490q0 44 31 74.5t74 30.5q44 0 74.5 -30.5t30.5 -74.5v-398h172q41 0 70 -28.5zM331.5 521q-8.5 -6 -19.5 -6q-16 0 -25 9.5t-9 23.5q0 6 1 9l27 106q3 12 12.5 19.5t21.5 7.5q17 0 26.5 -10
t9.5 -24q0 -6 -1 -9l-31 -108q-4 -12 -12.5 -18z" />
    <glyph glyph-name="Lslash" unicode="&#x141;" horiz-adv-x="581" 
d="M548 168.5q29 -28.5 29 -69.5t-29 -70t-70 -29h-277q-43 0 -74 31t-31 74v111q-9 -3 -19 -3q-17 0 -31 9t-23 27q-5 12 -5 23q0 18 9.5 34t24.5 23l44 20v246q0 44 31 74.5t74 30.5q44 0 74.5 -30.5t30.5 -74.5v-150l45 21q12 5 24 5q17 0 31.5 -8.5t21.5 -25.5
q6 -13 6 -26q0 -18 -9 -32.5t-24 -21.5l-95 -44v-116h172q41 0 70 -28.5z" />
    <glyph glyph-name="lslash" unicode="&#x142;" horiz-adv-x="581" 
d="M548 168.5q29 -28.5 29 -69.5t-29 -70t-70 -29h-277q-43 0 -74 31t-31 74v111q-9 -3 -19 -3q-17 0 -31 9t-23 27q-5 12 -5 23q0 18 9.5 34t24.5 23l44 20v246q0 44 31 74.5t74 30.5q44 0 74.5 -30.5t30.5 -74.5v-150l45 21q12 5 24 5q17 0 31.5 -8.5t21.5 -25.5
q6 -13 6 -26q0 -18 -9 -32.5t-24 -21.5l-95 -44v-116h172q41 0 70 -28.5z" />
    <glyph glyph-name="Nacute" unicode="&#x143;" horiz-adv-x="674" 
d="M599.5 669.5q30.5 -30.5 30.5 -74.5v-490q0 -44 -30 -74.5t-74 -30.5q-29 0 -53 14.5t-40 38.5l-179 271v-219q0 -43 -30.5 -74t-74.5 -31q-43 0 -74 31t-31 74v490q0 44 31 74.5t74 30.5q57 0 92 -53l179 -268v216q0 44 31 74.5t74 30.5q44 0 74.5 -30.5zM394 816
q6 3 14 3q13 0 24 -10t11 -25q0 -9 -5 -17.5t-12 -12.5l-100 -51q-7 -4 -16 -4q-14 0 -24.5 10t-10.5 25q0 9 4.5 17.5t13.5 12.5z" />
    <glyph glyph-name="nacute" unicode="&#x144;" horiz-adv-x="674" 
d="M599.5 669.5q30.5 -30.5 30.5 -74.5v-490q0 -44 -30 -74.5t-74 -30.5q-29 0 -53 14.5t-40 38.5l-179 271v-219q0 -43 -30.5 -74t-74.5 -31q-43 0 -74 31t-31 74v490q0 44 31 74.5t74 30.5q57 0 92 -53l179 -268v216q0 44 31 74.5t74 30.5q44 0 74.5 -30.5zM394 816
q6 3 14 3q13 0 24 -10t11 -25q0 -9 -5 -17.5t-12 -12.5l-100 -51q-7 -4 -16 -4q-14 0 -24.5 10t-10.5 25q0 9 4.5 17.5t13.5 12.5z" />
    <glyph glyph-name="Ncommaaccent" unicode="&#x145;" horiz-adv-x="674" 
d="M599.5 669.5q30.5 -30.5 30.5 -74.5v-490q0 -44 -30 -74.5t-74 -30.5q-29 0 -53 14.5t-40 38.5l-179 271v-219q0 -43 -30.5 -74t-74.5 -31q-43 0 -74 31t-31 74v490q0 44 31 74.5t74 30.5q57 0 92 -53l179 -268v216q0 44 31 74.5t74 30.5q44 0 74.5 -30.5zM320 -135
q-15 0 -24 10.5t-9 23.5q0 5 1 8l28 70q4 10 12 16t19 6q14 0 25 -9.5t11 -23.5q0 -9 -3 -15l-25 -63q-9 -23 -35 -23z" />
    <glyph glyph-name="ncommaaccent" unicode="&#x146;" horiz-adv-x="674" 
d="M599.5 669.5q30.5 -30.5 30.5 -74.5v-490q0 -44 -30 -74.5t-74 -30.5q-29 0 -53 14.5t-40 38.5l-179 271v-219q0 -43 -30.5 -74t-74.5 -31q-43 0 -74 31t-31 74v490q0 44 31 74.5t74 30.5q57 0 92 -53l179 -268v216q0 44 31 74.5t74 30.5q44 0 74.5 -30.5zM320 -135
q-15 0 -24 10.5t-9 23.5q0 5 1 8l28 70q4 10 12 16t19 6q14 0 25 -9.5t11 -23.5q0 -9 -3 -15l-25 -63q-9 -23 -35 -23z" />
    <glyph glyph-name="Ncaron" unicode="&#x147;" horiz-adv-x="674" 
d="M599.5 669.5q30.5 -30.5 30.5 -74.5v-490q0 -44 -30 -74.5t-74 -30.5q-29 0 -53 14.5t-40 38.5l-179 271v-219q0 -43 -30.5 -74t-74.5 -31q-43 0 -74 31t-31 74v490q0 44 31 74.5t74 30.5q57 0 92 -53l179 -268v216q0 44 31 74.5t74 30.5q44 0 74.5 -30.5zM423 817
q15 0 24.5 -9t9.5 -24q0 -8 -5 -16.5t-14 -14.5l-68 -45q-15 -9 -30 -9q-16 0 -31 9l-71 42q-9 5 -14 13.5t-5 17.5q0 14 9.5 23t24.5 9q11 0 23 -6l62 -35l62 38q11 7 23 7z" />
    <glyph glyph-name="ncaron" unicode="&#x148;" horiz-adv-x="674" 
d="M599.5 669.5q30.5 -30.5 30.5 -74.5v-490q0 -44 -30 -74.5t-74 -30.5q-29 0 -53 14.5t-40 38.5l-179 271v-219q0 -43 -30.5 -74t-74.5 -31q-43 0 -74 31t-31 74v490q0 44 31 74.5t74 30.5q57 0 92 -53l179 -268v216q0 44 31 74.5t74 30.5q44 0 74.5 -30.5zM423 817
q15 0 24.5 -9t9.5 -24q0 -8 -5 -16.5t-14 -14.5l-68 -45q-15 -9 -30 -9q-16 0 -31 9l-71 42q-9 5 -14 13.5t-5 17.5q0 14 9.5 23t24.5 9q11 0 23 -6l62 -35l62 38q11 7 23 7z" />
    <glyph glyph-name="Eng" unicode="&#x14a;" horiz-adv-x="674" 
d="M599.5 669.5q30.5 -30.5 30.5 -74.5v-490v-5q-2 -133 -54.5 -197.5t-143.5 -64.5q-50 0 -77 25.5t-27 60.5q0 25 13.5 45.5t37.5 29.5q44 15 44 48q0 18 -11 37l-158 240v-219q0 -43 -30.5 -74t-74.5 -31q-43 0 -74 31t-31 74v490q0 44 31 74.5t74 30.5q57 0 92 -53
l179 -268v216q0 44 31 74.5t74 30.5q44 0 74.5 -30.5z" />
    <glyph glyph-name="eng" unicode="&#x14b;" horiz-adv-x="674" 
d="M599.5 669.5q30.5 -30.5 30.5 -74.5v-490v-5q-2 -133 -54.5 -197.5t-143.5 -64.5q-50 0 -77 25.5t-27 60.5q0 25 13.5 45.5t37.5 29.5q44 15 44 48q0 18 -11 37l-158 240v-219q0 -43 -30.5 -74t-74.5 -31q-43 0 -74 31t-31 74v490q0 44 31 74.5t74 30.5q57 0 92 -53
l179 -268v216q0 44 31 74.5t74 30.5q44 0 74.5 -30.5z" />
    <glyph glyph-name="Omacron" unicode="&#x14c;" horiz-adv-x="768" 
d="M203 38.5q-82 48.5 -129.5 131t-47.5 180.5t47.5 180.5t129.5 131t181 48.5t181 -48.5t129.5 -131t47.5 -180.5t-47.5 -180.5t-129.5 -131t-181 -48.5t-181 48.5zM459.5 220q33.5 20 53 54t19.5 76t-19.5 76t-53 54t-75.5 20t-75.5 -20t-53 -54t-19.5 -76t19.5 -76
t53 -54t75.5 -20t75.5 20zM278.5 747.5q-10.5 9.5 -10.5 24.5t10.5 24.5t26.5 9.5h158q16 0 26.5 -9.5t10.5 -24.5t-10.5 -24.5t-26.5 -9.5h-158q-16 0 -26.5 9.5z" />
    <glyph glyph-name="omacron" unicode="&#x14d;" horiz-adv-x="768" 
d="M203 38.5q-82 48.5 -129.5 131t-47.5 180.5t47.5 180.5t129.5 131t181 48.5t181 -48.5t129.5 -131t47.5 -180.5t-47.5 -180.5t-129.5 -131t-181 -48.5t-181 48.5zM459.5 220q33.5 20 53 54t19.5 76t-19.5 76t-53 54t-75.5 20t-75.5 -20t-53 -54t-19.5 -76t19.5 -76
t53 -54t75.5 -20t75.5 20zM278.5 747.5q-10.5 9.5 -10.5 24.5t10.5 24.5t26.5 9.5h158q16 0 26.5 -9.5t10.5 -24.5t-10.5 -24.5t-26.5 -9.5h-158q-16 0 -26.5 9.5z" />
    <glyph glyph-name="Ohungarumlaut" unicode="&#x150;" horiz-adv-x="768" 
d="M203 38.5q-82 48.5 -129.5 131t-47.5 180.5t47.5 180.5t129.5 131t181 48.5t181 -48.5t129.5 -131t47.5 -180.5t-47.5 -180.5t-129.5 -131t-181 -48.5t-181 48.5zM459.5 220q33.5 20 53 54t19.5 76t-19.5 76t-53 54t-75.5 20t-75.5 -20t-53 -54t-19.5 -76t19.5 -76
t53 -54t75.5 -20t75.5 20zM347 846q11 8 21 8q14 0 24.5 -11t10.5 -25q0 -16 -16 -28l-76 -55q-10 -7 -21 -7q-14 0 -24 10.5t-10 23.5q0 15 14 26zM498 846q11 8 21 8q14 0 24.5 -11t10.5 -25q0 -16 -16 -28l-76 -55q-10 -7 -21 -7q-13 0 -23.5 10.5t-10.5 23.5q0 16 14 26
z" />
    <glyph glyph-name="ohungarumlaut" unicode="&#x151;" horiz-adv-x="768" 
d="M203 38.5q-82 48.5 -129.5 131t-47.5 180.5t47.5 180.5t129.5 131t181 48.5t181 -48.5t129.5 -131t47.5 -180.5t-47.5 -180.5t-129.5 -131t-181 -48.5t-181 48.5zM459.5 220q33.5 20 53 54t19.5 76t-19.5 76t-53 54t-75.5 20t-75.5 -20t-53 -54t-19.5 -76t19.5 -76
t53 -54t75.5 -20t75.5 20zM347 846q11 8 21 8q14 0 24.5 -11t10.5 -25q0 -16 -16 -28l-76 -55q-10 -7 -21 -7q-14 0 -24 10.5t-10 23.5q0 15 14 26zM498 846q11 8 21 8q14 0 24.5 -11t10.5 -25q0 -16 -16 -28l-76 -55q-10 -7 -21 -7q-13 0 -23.5 10.5t-10.5 23.5q0 16 14 26
z" />
    <glyph glyph-name="OE" unicode="&#x152;" horiz-adv-x="1042" 
d="M997 168.5q29 -28.5 29 -69.5t-29 -70t-70 -29h-289q-24 0 -45 10t-35 27q-80 -47 -174 -47q-99 0 -181 48.5t-129.5 131t-47.5 180.5t47.5 180.5t129.5 131t181 48.5q94 0 174 -47q14 17 35 27t45 10h289q41 0 70 -28.5t29 -69.5t-29 -70t-70 -29h-184v-65h151
q35 0 60 -25t25 -60t-25 -60t-60 -25h-151v-71h184q41 0 70 -28.5zM459.5 220q33.5 20 53 54t19.5 76t-19.5 76t-53 54t-75.5 20t-75.5 -20t-53 -54t-19.5 -76t19.5 -76t53 -54t75.5 -20t75.5 20z" />
    <glyph glyph-name="oe" unicode="&#x153;" horiz-adv-x="1042" 
d="M997 168.5q29 -28.5 29 -69.5t-29 -70t-70 -29h-289q-24 0 -45 10t-35 27q-80 -47 -174 -47q-99 0 -181 48.5t-129.5 131t-47.5 180.5t47.5 180.5t129.5 131t181 48.5q94 0 174 -47q14 17 35 27t45 10h289q41 0 70 -28.5t29 -69.5t-29 -70t-70 -29h-184v-65h151
q35 0 60 -25t25 -60t-25 -60t-60 -25h-151v-71h184q41 0 70 -28.5zM459.5 220q33.5 20 53 54t19.5 76t-19.5 76t-53 54t-75.5 20t-75.5 -20t-53 -54t-19.5 -76t19.5 -76t53 -54t75.5 -20t75.5 20z" />
    <glyph glyph-name="Racute" unicode="&#x154;" horiz-adv-x="618" 
d="M575 167q21 -28 21 -62q0 -43 -29.5 -74.5t-75.5 -31.5q-26 0 -49 12.5t-38 33.5l-140 200h-10v-140q0 -43 -30.5 -74t-74.5 -31q-43 0 -74 31t-31 74v490q0 44 31 74.5t74 30.5h189q72 0 132 -28t95 -81t35 -124q0 -62 -29.5 -109.5t-80.5 -75.5zM254 407h79
q27 0 42 14.5t15 35.5q0 22 -15 36t-42 14h-79v-100zM366 836q6 3 14 3q13 0 24 -10t11 -25q0 -9 -5 -17.5t-12 -12.5l-100 -51q-7 -4 -16 -4q-14 0 -24.5 10t-10.5 25q0 9 4.5 17.5t13.5 12.5z" />
    <glyph glyph-name="racute" unicode="&#x155;" horiz-adv-x="618" 
d="M575 167q21 -28 21 -62q0 -43 -29.5 -74.5t-75.5 -31.5q-26 0 -49 12.5t-38 33.5l-140 200h-10v-140q0 -43 -30.5 -74t-74.5 -31q-43 0 -74 31t-31 74v490q0 44 31 74.5t74 30.5h189q72 0 132 -28t95 -81t35 -124q0 -62 -29.5 -109.5t-80.5 -75.5zM254 407h79
q27 0 42 14.5t15 35.5q0 22 -15 36t-42 14h-79v-100zM366 836q6 3 14 3q13 0 24 -10t11 -25q0 -9 -5 -17.5t-12 -12.5l-100 -51q-7 -4 -16 -4q-14 0 -24.5 10t-10.5 25q0 9 4.5 17.5t13.5 12.5z" />
    <glyph glyph-name="Rcommaaccent" unicode="&#x156;" horiz-adv-x="618" 
d="M575 167q21 -28 21 -62q0 -43 -29.5 -74.5t-75.5 -31.5q-26 0 -49 12.5t-38 33.5l-140 200h-10v-140q0 -43 -30.5 -74t-74.5 -31q-43 0 -74 31t-31 74v490q0 44 31 74.5t74 30.5h189q72 0 132 -28t95 -81t35 -124q0 -62 -29.5 -109.5t-80.5 -75.5zM254 407h79
q27 0 42 14.5t15 35.5q0 22 -15 36t-42 14h-79v-100zM296 -165q-15 0 -24 10.5t-9 23.5q0 5 1 8l28 70q4 10 12 16t19 6q14 0 25 -9.5t11 -23.5q0 -9 -3 -15l-25 -63q-9 -23 -35 -23z" />
    <glyph glyph-name="rcommaaccent" unicode="&#x157;" horiz-adv-x="618" 
d="M575 167q21 -28 21 -62q0 -43 -29.5 -74.5t-75.5 -31.5q-26 0 -49 12.5t-38 33.5l-140 200h-10v-140q0 -43 -30.5 -74t-74.5 -31q-43 0 -74 31t-31 74v490q0 44 31 74.5t74 30.5h189q72 0 132 -28t95 -81t35 -124q0 -62 -29.5 -109.5t-80.5 -75.5zM254 407h79
q27 0 42 14.5t15 35.5q0 22 -15 36t-42 14h-79v-100zM296 -165q-15 0 -24 10.5t-9 23.5q0 5 1 8l28 70q4 10 12 16t19 6q14 0 25 -9.5t11 -23.5q0 -9 -3 -15l-25 -63q-9 -23 -35 -23z" />
    <glyph glyph-name="Rcaron" unicode="&#x158;" horiz-adv-x="618" 
d="M575 167q21 -28 21 -62q0 -43 -29.5 -74.5t-75.5 -31.5q-26 0 -49 12.5t-38 33.5l-140 200h-10v-140q0 -43 -30.5 -74t-74.5 -31q-43 0 -74 31t-31 74v490q0 44 31 74.5t74 30.5h189q72 0 132 -28t95 -81t35 -124q0 -62 -29.5 -109.5t-80.5 -75.5zM254 407h79
q27 0 42 14.5t15 35.5q0 22 -15 36t-42 14h-79v-100zM395 837q15 0 24.5 -9t9.5 -24q0 -8 -5 -16.5t-14 -14.5l-68 -45q-15 -9 -30 -9q-16 0 -31 9l-71 42q-9 5 -14 13.5t-5 17.5q0 14 9.5 23t24.5 9q11 0 23 -6l62 -35l62 38q11 7 23 7z" />
    <glyph glyph-name="rcaron" unicode="&#x159;" horiz-adv-x="618" 
d="M575 167q21 -28 21 -62q0 -43 -29.5 -74.5t-75.5 -31.5q-26 0 -49 12.5t-38 33.5l-140 200h-10v-140q0 -43 -30.5 -74t-74.5 -31q-43 0 -74 31t-31 74v490q0 44 31 74.5t74 30.5h189q72 0 132 -28t95 -81t35 -124q0 -62 -29.5 -109.5t-80.5 -75.5zM254 407h79
q27 0 42 14.5t15 35.5q0 22 -15 36t-42 14h-79v-100zM395 837q15 0 24.5 -9t9.5 -24q0 -8 -5 -16.5t-14 -14.5l-68 -45q-15 -9 -30 -9q-16 0 -31 9l-71 42q-9 5 -14 13.5t-5 17.5q0 14 9.5 23t24.5 9q11 0 23 -6l62 -35l62 38q11 7 23 7z" />
    <glyph glyph-name="Sacute" unicode="&#x15a;" horiz-adv-x="537" 
d="M116.5 20q-55.5 30 -79.5 67q-17 27 -17 55q0 39 28.5 66t67.5 27q35 0 66 -25q26 -22 47 -32.5t44 -10.5q22 0 35.5 11t13.5 30t-13.5 30.5t-44.5 18.5l-40 9q-102 23 -154 80t-52 144q0 60 33 110.5t90.5 80t125.5 29.5q89 0 141 -27.5t77 -64.5q18 -29 18 -56
q0 -38 -28 -65t-68 -27q-37 0 -69 26q-24 21 -41.5 29t-38.5 8q-22 0 -34.5 -11t-12.5 -30q0 -33 57 -46l41 -9q102 -22 154 -80.5t52 -145.5q0 -61 -33.5 -111.5t-91.5 -80t-127 -29.5q-91 0 -146.5 30zM327 846q6 3 14 3q13 0 24 -10t11 -25q0 -9 -5 -17.5t-12 -12.5
l-100 -51q-7 -4 -16 -4q-14 0 -24.5 10t-10.5 25q0 9 4.5 17.5t13.5 12.5z" />
    <glyph glyph-name="sacute" unicode="&#x15b;" horiz-adv-x="537" 
d="M116.5 20q-55.5 30 -79.5 67q-17 27 -17 55q0 39 28.5 66t67.5 27q35 0 66 -25q26 -22 47 -32.5t44 -10.5q22 0 35.5 11t13.5 30t-13.5 30.5t-44.5 18.5l-40 9q-102 23 -154 80t-52 144q0 60 33 110.5t90.5 80t125.5 29.5q89 0 141 -27.5t77 -64.5q18 -29 18 -56
q0 -38 -28 -65t-68 -27q-37 0 -69 26q-24 21 -41.5 29t-38.5 8q-22 0 -34.5 -11t-12.5 -30q0 -33 57 -46l41 -9q102 -22 154 -80.5t52 -145.5q0 -61 -33.5 -111.5t-91.5 -80t-127 -29.5q-91 0 -146.5 30zM327 846q6 3 14 3q13 0 24 -10t11 -25q0 -9 -5 -17.5t-12 -12.5
l-100 -51q-7 -4 -16 -4q-14 0 -24.5 10t-10.5 25q0 9 4.5 17.5t13.5 12.5z" />
    <glyph glyph-name="Scedilla" unicode="&#x15e;" horiz-adv-x="537" 
d="M483.5 102.5q-31.5 -49.5 -86.5 -79.5t-121 -33l-6 -13q37 -1 57 -21t20 -50q0 -35 -24 -56t-65 -21q-37 0 -59 13q-17 10 -17 26q0 10 7 18t18 8q13 0 25 -7q16 -7 28 -7q14 0 22.5 7t8.5 18q0 12 -9 18t-24 6q-7 0 -13 -1t-12 -1q-24 0 -24 20q0 7 1 11l14 34
q-74 7 -119.5 34.5t-67.5 60.5q-17 27 -17 55q0 39 28.5 66t67.5 27q35 0 66 -25q26 -22 47 -32.5t44 -10.5q22 0 35.5 11t13.5 30t-13.5 30.5t-44.5 18.5l-40 9q-102 23 -154 80t-52 144q0 60 33 110.5t90.5 80t125.5 29.5q89 0 141 -27.5t77 -64.5q18 -29 18 -56
q0 -38 -28 -65t-68 -27q-37 0 -69 26q-24 21 -41.5 29t-38.5 8q-22 0 -34.5 -11t-12.5 -30q0 -33 57 -46l41 -9q102 -22 154 -80.5t52 -145.5q0 -59 -31.5 -108.5z" />
    <glyph glyph-name="scedilla" unicode="&#x15f;" horiz-adv-x="537" 
d="M483.5 102.5q-31.5 -49.5 -86.5 -79.5t-121 -33l-6 -13q37 -1 57 -21t20 -50q0 -35 -24 -56t-65 -21q-37 0 -59 13q-17 10 -17 26q0 10 7 18t18 8q13 0 25 -7q16 -7 28 -7q14 0 22.5 7t8.5 18q0 12 -9 18t-24 6q-7 0 -13 -1t-12 -1q-24 0 -24 20q0 7 1 11l14 34
q-74 7 -119.5 34.5t-67.5 60.5q-17 27 -17 55q0 39 28.5 66t67.5 27q35 0 66 -25q26 -22 47 -32.5t44 -10.5q22 0 35.5 11t13.5 30t-13.5 30.5t-44.5 18.5l-40 9q-102 23 -154 80t-52 144q0 60 33 110.5t90.5 80t125.5 29.5q89 0 141 -27.5t77 -64.5q18 -29 18 -56
q0 -38 -28 -65t-68 -27q-37 0 -69 26q-24 21 -41.5 29t-38.5 8q-22 0 -34.5 -11t-12.5 -30q0 -33 57 -46l41 -9q102 -22 154 -80.5t52 -145.5q0 -59 -31.5 -108.5z" />
    <glyph glyph-name="Scaron" unicode="&#x160;" horiz-adv-x="537" 
d="M116.5 20q-55.5 30 -79.5 67q-17 27 -17 55q0 39 28.5 66t67.5 27q35 0 66 -25q26 -22 47 -32.5t44 -10.5q22 0 35.5 11t13.5 30t-13.5 30.5t-44.5 18.5l-40 9q-102 23 -154 80t-52 144q0 60 33 110.5t90.5 80t125.5 29.5q89 0 141 -27.5t77 -64.5q18 -29 18 -56
q0 -38 -28 -65t-68 -27q-37 0 -69 26q-24 21 -41.5 29t-38.5 8q-22 0 -34.5 -11t-12.5 -30q0 -33 57 -46l41 -9q102 -22 154 -80.5t52 -145.5q0 -61 -33.5 -111.5t-91.5 -80t-127 -29.5q-91 0 -146.5 30zM356 847q15 0 24.5 -9t9.5 -24q0 -8 -5 -16.5t-14 -14.5l-68 -45
q-15 -9 -30 -9q-16 0 -31 9l-71 42q-9 5 -14 13.5t-5 17.5q0 14 9.5 23t24.5 9q11 0 23 -6l62 -35l62 38q11 7 23 7z" />
    <glyph glyph-name="scaron" unicode="&#x161;" horiz-adv-x="537" 
d="M116.5 20q-55.5 30 -79.5 67q-17 27 -17 55q0 39 28.5 66t67.5 27q35 0 66 -25q26 -22 47 -32.5t44 -10.5q22 0 35.5 11t13.5 30t-13.5 30.5t-44.5 18.5l-40 9q-102 23 -154 80t-52 144q0 60 33 110.5t90.5 80t125.5 29.5q89 0 141 -27.5t77 -64.5q18 -29 18 -56
q0 -38 -28 -65t-68 -27q-37 0 -69 26q-24 21 -41.5 29t-38.5 8q-22 0 -34.5 -11t-12.5 -30q0 -33 57 -46l41 -9q102 -22 154 -80.5t52 -145.5q0 -61 -33.5 -111.5t-91.5 -80t-127 -29.5q-91 0 -146.5 30zM356 847q15 0 24.5 -9t9.5 -24q0 -8 -5 -16.5t-14 -14.5l-68 -45
q-15 -9 -30 -9q-16 0 -31 9l-71 42q-9 5 -14 13.5t-5 17.5q0 14 9.5 23t24.5 9q11 0 23 -6l62 -35l62 38q11 7 23 7z" />
    <glyph glyph-name="uni0162" unicode="&#x162;" horiz-adv-x="625" 
d="M590 671.5q29 -28.5 29 -69.5t-29 -70t-70 -29h-103v-398q0 -36 -21.5 -64t-54.5 -37l-12 -27q37 -1 57 -21t20 -50q0 -35 -24 -56t-65 -21q-37 0 -59 13q-17 10 -17 26q0 10 7 18t18 8q13 0 25 -7q16 -7 28 -7q14 0 22.5 7t8.5 18q0 12 -9 18t-24 6q-7 0 -13 -1t-12 -1
q-24 0 -24 20q0 7 1 11l19 45q-36 8 -58.5 36.5t-22.5 65.5v398h-103q-41 0 -69.5 29t-28.5 70t29 69.5t69 28.5h416q41 0 70 -28.5z" />
    <glyph glyph-name="uni0163" unicode="&#x163;" horiz-adv-x="625" 
d="M590 671.5q29 -28.5 29 -69.5t-29 -70t-70 -29h-103v-398q0 -36 -21.5 -64t-54.5 -37l-12 -27q37 -1 57 -21t20 -50q0 -35 -24 -56t-65 -21q-37 0 -59 13q-17 10 -17 26q0 10 7 18t18 8q13 0 25 -7q16 -7 28 -7q14 0 22.5 7t8.5 18q0 12 -9 18t-24 6q-7 0 -13 -1t-12 -1
q-24 0 -24 20q0 7 1 11l19 45q-36 8 -58.5 36.5t-22.5 65.5v398h-103q-41 0 -69.5 29t-28.5 70t29 69.5t69 28.5h416q41 0 70 -28.5z" />
    <glyph glyph-name="Tcaron" unicode="&#x164;" horiz-adv-x="625" 
d="M590 671.5q29 -28.5 29 -69.5t-29 -70t-70 -29h-103v-398q0 -43 -30.5 -74t-74.5 -31q-43 0 -74 31t-31 74v398h-103q-41 0 -69.5 29t-28.5 70t29 69.5t69 28.5h416q41 0 70 -28.5zM399 837q15 0 24.5 -9t9.5 -24q0 -8 -5 -16.5t-14 -14.5l-68 -45q-15 -9 -30 -9
q-16 0 -31 9l-71 42q-9 5 -14 13.5t-5 17.5q0 14 9.5 23t24.5 9q11 0 23 -6l62 -35l62 38q11 7 23 7z" />
    <glyph glyph-name="tcaron" unicode="&#x165;" horiz-adv-x="625" 
d="M590 671.5q29 -28.5 29 -69.5t-29 -70t-70 -29h-103v-398q0 -43 -30.5 -74t-74.5 -31q-43 0 -74 31t-31 74v398h-103q-41 0 -69.5 29t-28.5 70t29 69.5t69 28.5h416q41 0 70 -28.5zM399 837q15 0 24.5 -9t9.5 -24q0 -8 -5 -16.5t-14 -14.5l-68 -45q-15 -9 -30 -9
q-16 0 -31 9l-71 42q-9 5 -14 13.5t-5 17.5q0 14 9.5 23t24.5 9q11 0 23 -6l62 -35l62 38q11 7 23 7z" />
    <glyph glyph-name="Tbar" unicode="&#x166;" horiz-adv-x="625" 
d="M590 671.5q29 -28.5 29 -69.5t-29 -70t-70 -29h-103v-137h61q15 0 25 -10.5t10 -24.5q0 -15 -10 -25.5t-25 -10.5h-61v-190q0 -43 -30.5 -74t-74.5 -31q-43 0 -74 31t-31 74v190h-60q-14 0 -24 10.5t-10 25.5q0 14 10 24.5t24 10.5h60v137h-103q-41 0 -69.5 29t-28.5 70
t29 69.5t69 28.5h416q41 0 70 -28.5z" />
    <glyph glyph-name="tbar" unicode="&#x167;" horiz-adv-x="625" 
d="M590 671.5q29 -28.5 29 -69.5t-29 -70t-70 -29h-103v-137h61q15 0 25 -10.5t10 -24.5q0 -15 -10 -25.5t-25 -10.5h-61v-190q0 -43 -30.5 -74t-74.5 -31q-43 0 -74 31t-31 74v190h-60q-14 0 -24 10.5t-10 25.5q0 14 10 24.5t24 10.5h60v137h-103q-41 0 -69.5 29t-28.5 70
t29 69.5t69 28.5h416q41 0 70 -28.5z" />
    <glyph glyph-name="Umacron" unicode="&#x16a;" horiz-adv-x="662" 
d="M593.5 669.5q30.5 -30.5 30.5 -74.5v-320q0 -78 -37 -143.5t-104 -103.5t-152 -38t-152 38t-104 103.5t-37 143.5v320q0 44 31 74.5t74 30.5q44 0 74.5 -30.5t30.5 -74.5v-301q0 -45 23.5 -69.5t59.5 -24.5t59.5 24.5t23.5 69.5v301q0 44 31 74.5t74 30.5
q44 0 74.5 -30.5zM225.5 737.5q-10.5 9.5 -10.5 24.5t10.5 24.5t26.5 9.5h158q16 0 26.5 -9.5t10.5 -24.5t-10.5 -24.5t-26.5 -9.5h-158q-16 0 -26.5 9.5z" />
    <glyph glyph-name="umacron" unicode="&#x16b;" horiz-adv-x="662" 
d="M593.5 669.5q30.5 -30.5 30.5 -74.5v-320q0 -78 -37 -143.5t-104 -103.5t-152 -38t-152 38t-104 103.5t-37 143.5v320q0 44 31 74.5t74 30.5q44 0 74.5 -30.5t30.5 -74.5v-301q0 -45 23.5 -69.5t59.5 -24.5t59.5 24.5t23.5 69.5v301q0 44 31 74.5t74 30.5
q44 0 74.5 -30.5zM225.5 737.5q-10.5 9.5 -10.5 24.5t10.5 24.5t26.5 9.5h158q16 0 26.5 -9.5t10.5 -24.5t-10.5 -24.5t-26.5 -9.5h-158q-16 0 -26.5 9.5z" />
    <glyph glyph-name="Uring" unicode="&#x16e;" horiz-adv-x="662" 
d="M593.5 669.5q30.5 -30.5 30.5 -74.5v-320q0 -78 -37 -143.5t-104 -103.5t-152 -38t-152 38t-104 103.5t-37 143.5v320q0 44 31 74.5t74 30.5q44 0 74.5 -30.5t30.5 -74.5v-301q0 -45 23.5 -69.5t59.5 -24.5t59.5 24.5t23.5 69.5v301q0 44 31 74.5t74 30.5
q44 0 74.5 -30.5zM271.5 683q-24.5 24 -24.5 58t24.5 58t59.5 24t59.5 -24t24.5 -58t-24.5 -58t-59.5 -24t-59.5 24zM358.5 713.5q11.5 11.5 11.5 27.5q0 17 -11.5 28t-27.5 11q-17 0 -28 -11t-11 -28q0 -16 11 -27.5t28 -11.5q16 0 27.5 11.5z" />
    <glyph glyph-name="uring" unicode="&#x16f;" horiz-adv-x="662" 
d="M593.5 669.5q30.5 -30.5 30.5 -74.5v-320q0 -78 -37 -143.5t-104 -103.5t-152 -38t-152 38t-104 103.5t-37 143.5v320q0 44 31 74.5t74 30.5q44 0 74.5 -30.5t30.5 -74.5v-301q0 -45 23.5 -69.5t59.5 -24.5t59.5 24.5t23.5 69.5v301q0 44 31 74.5t74 30.5
q44 0 74.5 -30.5zM271.5 683q-24.5 24 -24.5 58t24.5 58t59.5 24t59.5 -24t24.5 -58t-24.5 -58t-59.5 -24t-59.5 24zM358.5 713.5q11.5 11.5 11.5 27.5q0 17 -11.5 28t-27.5 11q-17 0 -28 -11t-11 -28q0 -16 11 -27.5t28 -11.5q16 0 27.5 11.5z" />
    <glyph glyph-name="Uhungarumlaut" unicode="&#x170;" horiz-adv-x="662" 
d="M593.5 669.5q30.5 -30.5 30.5 -74.5v-320q0 -78 -37 -143.5t-104 -103.5t-152 -38t-152 38t-104 103.5t-37 143.5v320q0 44 31 74.5t74 30.5q44 0 74.5 -30.5t30.5 -74.5v-301q0 -45 23.5 -69.5t59.5 -24.5t59.5 24.5t23.5 69.5v301q0 44 31 74.5t74 30.5
q44 0 74.5 -30.5zM294 836q11 8 21 8q14 0 24.5 -11t10.5 -25q0 -16 -16 -28l-76 -55q-10 -7 -21 -7q-14 0 -24 10.5t-10 23.5q0 15 14 26zM445 836q11 8 21 8q14 0 24.5 -11t10.5 -25q0 -16 -16 -28l-76 -55q-10 -7 -21 -7q-13 0 -23.5 10.5t-10.5 23.5q0 16 14 26z" />
    <glyph glyph-name="uhungarumlaut" unicode="&#x171;" horiz-adv-x="662" 
d="M593.5 669.5q30.5 -30.5 30.5 -74.5v-320q0 -78 -37 -143.5t-104 -103.5t-152 -38t-152 38t-104 103.5t-37 143.5v320q0 44 31 74.5t74 30.5q44 0 74.5 -30.5t30.5 -74.5v-301q0 -45 23.5 -69.5t59.5 -24.5t59.5 24.5t23.5 69.5v301q0 44 31 74.5t74 30.5
q44 0 74.5 -30.5zM294 836q11 8 21 8q14 0 24.5 -11t10.5 -25q0 -16 -16 -28l-76 -55q-10 -7 -21 -7q-14 0 -24 10.5t-10 23.5q0 15 14 26zM445 836q11 8 21 8q14 0 24.5 -11t10.5 -25q0 -16 -16 -28l-76 -55q-10 -7 -21 -7q-13 0 -23.5 10.5t-10.5 23.5q0 16 14 26z" />
    <glyph glyph-name="Uogonek" unicode="&#x172;" horiz-adv-x="662" 
d="M593.5 669.5q30.5 -30.5 30.5 -74.5v-320q0 -89 -48 -161t-130 -103q-21 -15 -29.5 -28t-8.5 -27q0 -12 8 -19t22 -13q25 -9 25 -29q0 -16 -11 -25t-29 -8q-37 3 -59 23t-22 51q0 32 16 55q-9 -1 -27 -1q-85 0 -152 38t-104 103.5t-37 143.5v320q0 44 31 74.5t74 30.5
q44 0 74.5 -30.5t30.5 -74.5v-301q0 -45 23.5 -69.5t59.5 -24.5t59.5 24.5t23.5 69.5v301q0 44 31 74.5t74 30.5q44 0 74.5 -30.5z" />
    <glyph glyph-name="uogonek" unicode="&#x173;" horiz-adv-x="662" 
d="M593.5 669.5q30.5 -30.5 30.5 -74.5v-320q0 -89 -48 -161t-130 -103q-21 -15 -29.5 -28t-8.5 -27q0 -12 8 -19t22 -13q25 -9 25 -29q0 -16 -11 -25t-29 -8q-37 3 -59 23t-22 51q0 32 16 55q-9 -1 -27 -1q-85 0 -152 38t-104 103.5t-37 143.5v320q0 44 31 74.5t74 30.5
q44 0 74.5 -30.5t30.5 -74.5v-301q0 -45 23.5 -69.5t59.5 -24.5t59.5 24.5t23.5 69.5v301q0 44 31 74.5t74 30.5q44 0 74.5 -30.5z" />
    <glyph glyph-name="Wcircumflex" unicode="&#x174;" horiz-adv-x="993" 
d="M947 668.5q29 -31.5 29 -73.5q0 -18 -6 -36l-163 -470q-14 -41 -45.5 -65t-77.5 -24q-47 0 -78.5 24t-43.5 64l-65 223l-66 -223q-12 -40 -43.5 -64t-78.5 -24q-46 0 -77.5 24t-45.5 65l-163 470q-6 18 -6 36q0 42 29 73.5t74 31.5q37 0 64.5 -21t36.5 -54l87 -319
l88 319q9 33 36 54t64 21t64 -21t36 -54l89 -319l87 319q9 33 36.5 54t64.5 21q45 0 74 -31.5zM609 765.5q5 -8.5 5 -16.5q0 -15 -9.5 -24t-24.5 -9q-12 0 -23 7l-62 38l-62 -35q-12 -6 -23 -6q-15 0 -24.5 9t-9.5 23q0 9 5 17.5t14 13.5l71 42q15 9 31 9q15 0 30 -9l68 -45
q9 -6 14 -14.5z" />
    <glyph glyph-name="wcircumflex" unicode="&#x175;" horiz-adv-x="993" 
d="M947 668.5q29 -31.5 29 -73.5q0 -18 -6 -36l-163 -470q-14 -41 -45.5 -65t-77.5 -24q-47 0 -78.5 24t-43.5 64l-65 223l-66 -223q-12 -40 -43.5 -64t-78.5 -24q-46 0 -77.5 24t-45.5 65l-163 470q-6 18 -6 36q0 42 29 73.5t74 31.5q37 0 64.5 -21t36.5 -54l87 -319
l88 319q9 33 36 54t64 21t64 -21t36 -54l89 -319l87 319q9 33 36.5 54t64.5 21q45 0 74 -31.5zM609 765.5q5 -8.5 5 -16.5q0 -15 -9.5 -24t-24.5 -9q-12 0 -23 7l-62 38l-62 -35q-12 -6 -23 -6q-15 0 -24.5 9t-9.5 23q0 9 5 17.5t14 13.5l71 42q15 9 31 9q15 0 30 -9l68 -45
q9 -6 14 -14.5z" />
    <glyph glyph-name="Ycircumflex" unicode="&#x176;" horiz-adv-x="642" 
d="M620 546l-196 -298v-143q0 -43 -30.5 -74t-74.5 -31q-43 0 -74 31t-31 74v147l-192 294q-16 25 -16 54q0 41 32 70.5t76 29.5q33 0 56.5 -17t43.5 -51l107 -178l107 178q20 34 43 51t56 17q45 0 77 -29.5t32 -70.5q0 -29 -16 -54zM432 765.5q5 -8.5 5 -16.5
q0 -15 -9.5 -24t-24.5 -9q-12 0 -23 7l-62 38l-62 -35q-12 -6 -23 -6q-15 0 -24.5 9t-9.5 23q0 9 5 17.5t14 13.5l71 42q15 9 31 9q15 0 30 -9l68 -45q9 -6 14 -14.5z" />
    <glyph glyph-name="ycircumflex" unicode="&#x177;" horiz-adv-x="642" 
d="M620 546l-196 -298v-143q0 -43 -30.5 -74t-74.5 -31q-43 0 -74 31t-31 74v147l-192 294q-16 25 -16 54q0 41 32 70.5t76 29.5q33 0 56.5 -17t43.5 -51l107 -178l107 178q20 34 43 51t56 17q45 0 77 -29.5t32 -70.5q0 -29 -16 -54zM432 765.5q5 -8.5 5 -16.5
q0 -15 -9.5 -24t-24.5 -9q-12 0 -23 7l-62 38l-62 -35q-12 -6 -23 -6q-15 0 -24.5 9t-9.5 23q0 9 5 17.5t14 13.5l71 42q15 9 31 9q15 0 30 -9l68 -45q9 -6 14 -14.5z" />
    <glyph glyph-name="Ydieresis" unicode="&#x178;" horiz-adv-x="642" 
d="M620 546l-196 -298v-143q0 -43 -30.5 -74t-74.5 -31q-43 0 -74 31t-31 74v147l-192 294q-16 25 -16 54q0 41 32 70.5t76 29.5q33 0 56.5 -17t43.5 -51l107 -178l107 178q20 34 43 51t56 17q45 0 77 -29.5t32 -70.5q0 -29 -16 -54zM154.5 724.5q-14.5 14.5 -14.5 35.5
t14.5 35.5t36.5 14.5t36.5 -14.5t14.5 -35.5t-14.5 -35.5t-36.5 -14.5t-36.5 14.5zM410.5 724.5q-14.5 14.5 -14.5 35.5t14.5 35.5t36.5 14.5t36.5 -14.5t14.5 -35.5t-14.5 -35.5t-36.5 -14.5t-36.5 14.5z" />
    <glyph glyph-name="Zacute" unicode="&#x179;" horiz-adv-x="594" 
d="M545 168.5q29 -28.5 29 -69.5t-29 -70t-70 -29h-357q-41 0 -69.5 29t-28.5 70q0 32 22 62l250 342h-174q-41 0 -69.5 29t-28.5 70t29 69.5t69 28.5h357q41 0 70 -28.5t29 -69.5q0 -34 -20 -60l-253 -345h174q41 0 70 -28.5zM349 836q6 3 14 3q13 0 24 -10t11 -25
q0 -9 -5 -17.5t-12 -12.5l-100 -51q-7 -4 -16 -4q-14 0 -24.5 10t-10.5 25q0 9 4.5 17.5t13.5 12.5z" />
    <glyph glyph-name="zacute" unicode="&#x17a;" horiz-adv-x="594" 
d="M545 168.5q29 -28.5 29 -69.5t-29 -70t-70 -29h-357q-41 0 -69.5 29t-28.5 70q0 32 22 62l250 342h-174q-41 0 -69.5 29t-28.5 70t29 69.5t69 28.5h357q41 0 70 -28.5t29 -69.5q0 -34 -20 -60l-253 -345h174q41 0 70 -28.5zM349 836q6 3 14 3q13 0 24 -10t11 -25
q0 -9 -5 -17.5t-12 -12.5l-100 -51q-7 -4 -16 -4q-14 0 -24.5 10t-10.5 25q0 9 4.5 17.5t13.5 12.5z" />
    <glyph glyph-name="Zdotaccent" unicode="&#x17b;" horiz-adv-x="594" 
d="M545 168.5q29 -28.5 29 -69.5t-29 -70t-70 -29h-357q-41 0 -69.5 29t-28.5 70q0 32 22 62l250 342h-174q-41 0 -69.5 29t-28.5 70t29 69.5t69 28.5h357q41 0 70 -28.5t29 -69.5q0 -34 -20 -60l-253 -345h174q41 0 70 -28.5zM255.5 732.5q-14.5 14.5 -14.5 35.5t14.5 35.5
t36.5 14.5t36.5 -14.5t14.5 -35.5t-14.5 -35.5t-36.5 -14.5t-36.5 14.5z" />
    <glyph glyph-name="zdotaccent" unicode="&#x17c;" horiz-adv-x="594" 
d="M545 168.5q29 -28.5 29 -69.5t-29 -70t-70 -29h-357q-41 0 -69.5 29t-28.5 70q0 32 22 62l250 342h-174q-41 0 -69.5 29t-28.5 70t29 69.5t69 28.5h357q41 0 70 -28.5t29 -69.5q0 -34 -20 -60l-253 -345h174q41 0 70 -28.5zM255.5 732.5q-14.5 14.5 -14.5 35.5t14.5 35.5
t36.5 14.5t36.5 -14.5t14.5 -35.5t-14.5 -35.5t-36.5 -14.5t-36.5 14.5z" />
    <glyph glyph-name="Zcaron" unicode="&#x17d;" horiz-adv-x="594" 
d="M545 168.5q29 -28.5 29 -69.5t-29 -70t-70 -29h-357q-41 0 -69.5 29t-28.5 70q0 32 22 62l250 342h-174q-41 0 -69.5 29t-28.5 70t29 69.5t69 28.5h357q41 0 70 -28.5t29 -69.5q0 -34 -20 -60l-253 -345h174q41 0 70 -28.5zM378 837q15 0 24.5 -9t9.5 -24q0 -8 -5 -16.5
t-14 -14.5l-68 -45q-15 -9 -30 -9q-16 0 -31 9l-71 42q-9 5 -14 13.5t-5 17.5q0 14 9.5 23t24.5 9q11 0 23 -6l62 -35l62 38q11 7 23 7z" />
    <glyph glyph-name="zcaron" unicode="&#x17e;" horiz-adv-x="594" 
d="M545 168.5q29 -28.5 29 -69.5t-29 -70t-70 -29h-357q-41 0 -69.5 29t-28.5 70q0 32 22 62l250 342h-174q-41 0 -69.5 29t-28.5 70t29 69.5t69 28.5h357q41 0 70 -28.5t29 -69.5q0 -34 -20 -60l-253 -345h174q41 0 70 -28.5zM378 837q15 0 24.5 -9t9.5 -24q0 -8 -5 -16.5
t-14 -14.5l-68 -45q-15 -9 -30 -9q-16 0 -31 9l-71 42q-9 5 -14 13.5t-5 17.5q0 14 9.5 23t24.5 9q11 0 23 -6l62 -35l62 38q11 7 23 7z" />
    <glyph glyph-name="florin" unicode="&#x192;" horiz-adv-x="2738" 
d="M716.5 801.5q92.5 -61.5 143 -158t50.5 -212.5q0 -126 -58.5 -230t-161.5 -164t-230 -60q-105 0 -198 42.5t-155 118.5l1 2q40 -17 88 -17q64 0 96.5 34t50.5 89q19 60 38.5 89t68.5 72q60 53 83 93.5t23 92.5q0 94 -60 160q22 -78 22 -147q0 -40 -12.5 -69.5t-30.5 -49
t-53 -50.5q-44 -39 -72 -75.5t-43 -94.5q-9 -34 -19.5 -45t-31.5 -11q-24 0 -34 12.5t-20 53.5q-14 58 -33.5 86.5t-49.5 53.5q-24 20 -37.5 38t-22.5 55t-9 101q0 46 4 125t11 157h1l88 -119q25 15 59 24t69 9q53 0 99 -19l22 29q-51 20 -108 20q-58 0 -113 -20l-1 2
q55 32 121.5 47t134.5 15h14l46 60h1l5 -64q121 -14 213.5 -75.5zM1517 835.5q-8 7.5 -8 18.5t8 18.5t19 7.5t18.5 -7.5t7.5 -18.5q0 -10 -7.5 -18t-18.5 -8t-19 7.5zM1709 836q-8 8 -8 18q0 11 8 18.5t18 7.5q11 0 19 -7.5t8 -18.5t-8 -18.5t-19 -7.5q-10 0 -18 8z
M993.5 459.5q-18.5 18.5 -18.5 44.5v293q0 26 18.5 44.5t44.5 18.5h171q25 0 42.5 -17.5t17.5 -42.5t-17.5 -42.5t-42.5 -17.5h-107v-40h91q23 0 38.5 -15.5t15.5 -38.5t-15.5 -39t-38.5 -16h-91v-87q0 -26 -18.5 -44.5t-45.5 -18.5q-26 0 -44.5 18.5zM1237 569
q15 -8 23 -11t19 -3q13 0 20.5 8t7.5 22v212q0 26 19 44.5t45 18.5t44.5 -18.5t18.5 -44.5v-214q0 -62 -40.5 -104.5t-111.5 -42.5q-81 0 -120 39q-18 18 -18 44q0 24 17.5 42t41.5 18q18 0 34 -10zM1451.5 460q-17.5 19 -17.5 44q0 15 6 28l119 277q22 51 73 51t73 -51
l118 -279q5 -10 5 -26q0 -25 -17 -44t-45 -19q-21 0 -37 11.5t-22 28.5l-9 25h-134l-8 -24q-6 -19 -22 -30t-36 -11q-29 0 -46.5 19zM1858.5 459.5q-18.5 18.5 -18.5 44.5v293q0 26 18.5 44.5t44.5 18.5q27 0 45.5 -18.5t18.5 -44.5v-236h98q25 0 42.5 -17.5t17.5 -42.5
t-17.5 -42.5t-42.5 -17.5h-162q-26 0 -44.5 18.5zM2153.5 459.5q-18.5 18.5 -18.5 44.5v293q0 26 18.5 44.5t44.5 18.5q27 0 45.5 -18.5t18.5 -44.5v-236h98q25 0 42.5 -17.5t17.5 -42.5t-17.5 -42.5t-42.5 -17.5h-162q-26 0 -44.5 18.5zM1663 607l-32 88l-31 -88h63z
M217 477q-25 34 -63 46q-14 -15 -18 -37l1 -1q43 0 80 -10v2zM1427.5 431.5q7.5 -7.5 7.5 -18.5q0 -10 -7.5 -18t-18.5 -8t-19 7.5t-8 18.5t8 18.5t19 7.5t18.5 -7.5zM1582 431.5q8 7.5 18 7.5q11 0 19 -7.5t8 -18.5t-8 -18.5t-19 -7.5q-10 0 -18 8t-8 18q0 11 8 18.5z
M1287 100q13 -17 13 -38q0 -25 -18 -43.5t-46 -18.5q-33 0 -53 28l-81 117v-82q0 -26 -18.5 -44.5t-45.5 -18.5q-26 0 -44.5 18.5t-18.5 44.5v293q0 26 18.5 44.5t44.5 18.5h116q66 0 111.5 -37.5t45.5 -101.5q0 -39 -19.5 -68.5t-52.5 -45.5zM1696 89q5 -10 5 -26
q0 -25 -17 -44t-45 -19q-21 0 -37 11.5t-22 28.5l-9 25h-134l-8 -24q-6 -19 -22 -30t-36 -11q-29 0 -46.5 19t-17.5 44q0 15 6 28l119 277q22 51 73 51t73 -51zM2000.5 400.5q17.5 -18.5 17.5 -44.5q0 -14 -6 -29l-112 -275q-21 -52 -75 -52q-55 0 -76 52l-112 275
q-6 15 -6 28q0 27 17.5 45.5t44.5 18.5q22 0 37.5 -11t22.5 -30l72 -187l71 187q7 19 22.5 30t37.5 11q27 0 44.5 -18.5zM2157 299v-35h87q22 0 37.5 -15.5t15.5 -37.5q0 -21 -15.5 -36.5t-37.5 -15.5h-87v-39h107q25 0 42.5 -17.5t17.5 -42.5t-17.5 -42.5t-42.5 -17.5h-171
q-26 0 -44.5 18.5t-18.5 44.5v293q0 26 18.5 44.5t44.5 18.5h171q25 0 42.5 -17.5t17.5 -42.5t-17.5 -42.5t-42.5 -17.5h-107zM2669.5 400.5q18.5 -18.5 18.5 -44.5v-293q0 -26 -18 -44.5t-44 -18.5q-17 0 -31.5 9t-24.5 23l-107 162v-131q0 -26 -18.5 -44.5t-44.5 -18.5
t-44.5 18.5t-18.5 44.5v293q0 26 18.5 44.5t44.5 18.5q34 0 55 -32l107 -159v128q0 26 18.5 44.5t44.5 18.5t44.5 -18.5zM1102 244h49q16 0 25 8.5t9 21.5t-9 21.5t-25 8.5h-49v-60zM1536 166l-32 88l-31 -88h63z" />
    <glyph glyph-name="Scommaaccent" unicode="&#x218;" horiz-adv-x="537" 
d="M116.5 20q-55.5 30 -79.5 67q-17 27 -17 55q0 39 28.5 66t67.5 27q35 0 66 -25q26 -22 47 -32.5t44 -10.5q22 0 35.5 11t13.5 30t-13.5 30.5t-44.5 18.5l-40 9q-102 23 -154 80t-52 144q0 60 33 110.5t90.5 80t125.5 29.5q89 0 141 -27.5t77 -64.5q18 -29 18 -56
q0 -38 -28 -65t-68 -27q-37 0 -69 26q-24 21 -41.5 29t-38.5 8q-22 0 -34.5 -11t-12.5 -30q0 -33 57 -46l41 -9q102 -22 154 -80.5t52 -145.5q0 -61 -33.5 -111.5t-91.5 -80t-127 -29.5q-91 0 -146.5 30zM241 -165q-15 0 -24 10.5t-9 23.5q0 5 1 8l28 70q4 10 12 16t19 6
q14 0 25 -9.5t11 -23.5q0 -9 -3 -15l-25 -63q-9 -23 -35 -23z" />
    <glyph glyph-name="scommaaccent" unicode="&#x219;" horiz-adv-x="537" 
d="M116.5 20q-55.5 30 -79.5 67q-17 27 -17 55q0 39 28.5 66t67.5 27q35 0 66 -25q26 -22 47 -32.5t44 -10.5q22 0 35.5 11t13.5 30t-13.5 30.5t-44.5 18.5l-40 9q-102 23 -154 80t-52 144q0 60 33 110.5t90.5 80t125.5 29.5q89 0 141 -27.5t77 -64.5q18 -29 18 -56
q0 -38 -28 -65t-68 -27q-37 0 -69 26q-24 21 -41.5 29t-38.5 8q-22 0 -34.5 -11t-12.5 -30q0 -33 57 -46l41 -9q102 -22 154 -80.5t52 -145.5q0 -61 -33.5 -111.5t-91.5 -80t-127 -29.5q-91 0 -146.5 30zM241 -165q-15 0 -24 10.5t-9 23.5q0 5 1 8l28 70q4 10 12 16t19 6
q14 0 25 -9.5t11 -23.5q0 -9 -3 -15l-25 -63q-9 -23 -35 -23z" />
    <glyph glyph-name="uni021A" unicode="&#x21a;" horiz-adv-x="625" 
d="M590 671.5q29 -28.5 29 -69.5t-29 -70t-70 -29h-103v-398q0 -43 -30.5 -74t-74.5 -31q-43 0 -74 31t-31 74v398h-103q-41 0 -69.5 29t-28.5 70t29 69.5t69 28.5h416q41 0 70 -28.5zM300 -165q-15 0 -24 10.5t-9 23.5q0 5 1 8l28 70q4 10 12 16t19 6q14 0 25 -9.5
t11 -23.5q0 -9 -3 -15l-25 -63q-9 -23 -35 -23z" />
    <glyph glyph-name="uni021B" unicode="&#x21b;" horiz-adv-x="625" 
d="M590 671.5q29 -28.5 29 -69.5t-29 -70t-70 -29h-103v-398q0 -43 -30.5 -74t-74.5 -31q-43 0 -74 31t-31 74v398h-103q-41 0 -69.5 29t-28.5 70t29 69.5t69 28.5h416q41 0 70 -28.5zM300 -165q-15 0 -24 10.5t-9 23.5q0 5 1 8l28 70q4 10 12 16t19 6q14 0 25 -9.5
t11 -23.5q0 -9 -3 -15l-25 -63q-9 -23 -35 -23z" />
    <glyph glyph-name="uni0237" unicode="&#x237;" horiz-adv-x="538" 
d="M123.5 9q-50.5 18 -81.5 49t-31 73q0 40 29 70t70 30q28 0 55 -15t41 -20.5t35 -5.5q22 0 35.5 12.5t13.5 35.5v357q0 44 31 74.5t74 30.5q44 0 74.5 -30.5t30.5 -74.5v-358q0 -66 -31 -122.5t-89.5 -90t-137.5 -33.5q-68 0 -118.5 18z" />
    <glyph glyph-name="circumflex" unicode="&#x2c6;" horiz-adv-x="258" 
d="M243 765.5q5 -8.5 5 -16.5q0 -15 -9.5 -24t-24.5 -9q-12 0 -23 7l-62 38l-62 -35q-12 -6 -23 -6q-15 0 -24.5 9t-9.5 23q0 9 5 17.5t14 13.5l71 42q15 9 31 9q15 0 30 -9l68 -45q9 -6 14 -14.5z" />
    <glyph glyph-name="caron" unicode="&#x2c7;" horiz-adv-x="258" 
d="M214 837q15 0 24.5 -9t9.5 -24q0 -8 -5 -16.5t-14 -14.5l-68 -45q-15 -9 -30 -9q-16 0 -31 9l-71 42q-9 5 -14 13.5t-5 17.5q0 14 9.5 23t24.5 9q11 0 23 -6l62 -35l62 38q11 7 23 7z" />
    <glyph glyph-name="breve" unicode="&#x2d8;" horiz-adv-x="237" 
d="M52.5 737.5q-29.5 16.5 -39.5 41.5q-3 9 -3 17q0 13 9.5 22t23.5 9q12 0 19.5 -5t13 -11.5t7.5 -8.5q15 -16 35 -16t35 16q2 2 8.5 9.5t14 11.5t17.5 4q14 0 24 -8.5t10 -22.5q0 -9 -4 -17q-14 -26 -42 -42t-63 -16q-36 0 -65.5 16.5z" />
    <glyph glyph-name="dotaccent" unicode="&#x2d9;" horiz-adv-x="122" 
d="M24.5 732.5q-14.5 14.5 -14.5 35.5t14.5 35.5t36.5 14.5t36.5 -14.5t14.5 -35.5t-14.5 -35.5t-36.5 -14.5t-36.5 14.5z" />
    <glyph glyph-name="ring" unicode="&#x2da;" horiz-adv-x="188" 
d="M34.5 683q-24.5 24 -24.5 58t24.5 58t59.5 24t59.5 -24t24.5 -58t-24.5 -58t-59.5 -24t-59.5 24zM121.5 713.5q11.5 11.5 11.5 27.5q0 17 -11.5 28t-27.5 11q-17 0 -28 -11t-11 -28q0 -16 11 -27.5t28 -11.5q16 0 27.5 11.5z" />
    <glyph glyph-name="ogonek" unicode="&#x2db;" horiz-adv-x="141" 
d="M120 15q-25 -16 -34.5 -30t-9.5 -29q0 -12 8 -19t22 -13q25 -9 25 -29q0 -16 -11 -25t-29 -8q-37 3 -59 23t-22 51q0 57 54 90z" />
    <glyph glyph-name="tilde" unicode="&#x2dc;" horiz-adv-x="256" 
d="M111.5 809q10.5 -4 26.5 -13q18 -11 27 -11q8 0 12.5 3t9.5 9q6 8 12 12t15 4q14 0 23 -8.5t9 -21.5q0 -10 -4 -18q-23 -44 -70 -44q-26 0 -54 17q-18 11 -28 11q-7 0 -11.5 -3.5t-9.5 -9.5q-10 -15 -27 -15q-14 0 -23 8.5t-9 22.5t10 28q11 17 28 25t37 8q16 0 26.5 -4z
" />
    <glyph glyph-name="hungarumlaut" unicode="&#x2dd;" horiz-adv-x="318" 
d="M101 836q11 8 21 8q14 0 24.5 -11t10.5 -25q0 -16 -16 -28l-76 -55q-10 -7 -21 -7q-14 0 -24 10.5t-10 23.5q0 15 14 26zM252 836q11 8 21 8q14 0 24.5 -11t10.5 -25q0 -16 -16 -28l-76 -55q-10 -7 -21 -7q-13 0 -23.5 10.5t-10.5 23.5q0 16 14 26z" />
    <glyph glyph-name="gravecomb" unicode="&#x300;" horiz-adv-x="0" 
d="M-14.5 771.5q4.5 -8.5 4.5 -17.5q0 -15 -10.5 -25t-24.5 -10q-9 0 -16 4l-100 51q-7 4 -12 12.5t-5 17.5q0 15 11 25t24 10q8 0 14 -3l101 -52q9 -4 13.5 -12.5z" />
    <glyph glyph-name="acutecomb" unicode="&#x301;" horiz-adv-x="0" 
d="M-59 836q6 3 14 3q13 0 24 -10t11 -25q0 -9 -5 -17.5t-12 -12.5l-100 -51q-7 -4 -16 -4q-14 0 -24.5 10t-10.5 25q0 9 4.5 17.5t13.5 12.5z" />
    <glyph glyph-name="uni0302" unicode="&#x302;" horiz-adv-x="0" 
d="M-15 765.5q5 -8.5 5 -16.5q0 -15 -9.5 -24t-24.5 -9q-12 0 -23 7l-62 38l-62 -35q-12 -6 -23 -6q-15 0 -24.5 9t-9.5 23q0 9 5 17.5t14 13.5l71 42q15 9 31 9q15 0 30 -9l68 -45q9 -6 14 -14.5z" />
    <glyph glyph-name="tildecomb" unicode="&#x303;" horiz-adv-x="0" 
d="M-144.5 809q10.5 -4 26.5 -13q18 -11 27 -11q8 0 12.5 3t9.5 9q6 8 12 12t15 4q14 0 23 -8.5t9 -21.5q0 -10 -4 -18q-23 -44 -70 -44q-26 0 -54 17q-18 11 -28 11q-7 0 -11.5 -3.5t-9.5 -9.5q-10 -15 -27 -15q-14 0 -23 8.5t-9 22.5t10 28q11 17 28 25t37 8q16 0 26.5 -4
z" />
    <glyph glyph-name="uni0304" unicode="&#x304;" horiz-adv-x="0" 
d="M-231.5 737.5q-10.5 9.5 -10.5 24.5t10.5 24.5t26.5 9.5h158q16 0 26.5 -9.5t10.5 -24.5t-10.5 -24.5t-26.5 -9.5h-158q-16 0 -26.5 9.5z" />
    <glyph glyph-name="uni0306" unicode="&#x306;" horiz-adv-x="0" 
d="M-184.5 737.5q-29.5 16.5 -39.5 41.5q-3 9 -3 17q0 13 9.5 22t23.5 9q12 0 19.5 -5t13 -11.5t7.5 -8.5q15 -16 35 -16t35 16q2 2 8.5 9.5t14 11.5t17.5 4q14 0 24 -8.5t10 -22.5q0 -9 -4 -17q-14 -26 -42 -42t-63 -16q-36 0 -65.5 16.5z" />
    <glyph glyph-name="uni0307" unicode="&#x307;" horiz-adv-x="0" 
d="M-97.5 732.5q-14.5 14.5 -14.5 35.5t14.5 35.5t36.5 14.5t36.5 -14.5t14.5 -35.5t-14.5 -35.5t-36.5 -14.5t-36.5 14.5z" />
    <glyph glyph-name="uni0308" unicode="&#x308;" horiz-adv-x="0" 
d="M-346.5 741.5q-17.5 17.5 -17.5 42.5t17.5 42.5t42.5 17.5t42.5 -17.5t17.5 -42.5t-17.5 -42.5t-42.5 -17.5t-42.5 17.5zM-112.5 741.5q-17.5 17.5 -17.5 42.5t17.5 42.5t42.5 17.5t42.5 -17.5t17.5 -42.5t-17.5 -42.5t-42.5 -17.5t-42.5 17.5z" />
    <glyph glyph-name="uni030A" unicode="&#x30a;" horiz-adv-x="0" 
d="M-153.5 683q-24.5 24 -24.5 58t24.5 58t59.5 24t59.5 -24t24.5 -58t-24.5 -58t-59.5 -24t-59.5 24zM-66.5 713.5q11.5 11.5 11.5 27.5q0 17 -11.5 28t-27.5 11q-17 0 -28 -11t-11 -28q0 -16 11 -27.5t28 -11.5q16 0 27.5 11.5z" />
    <glyph glyph-name="uni030B" unicode="&#x30b;" horiz-adv-x="0" 
d="M-217 836q11 8 21 8q14 0 24.5 -11t10.5 -25q0 -16 -16 -28l-76 -55q-10 -7 -21 -7q-14 0 -24 10.5t-10 23.5q0 15 14 26zM-66 836q11 8 21 8q14 0 24.5 -11t10.5 -25q0 -16 -16 -28l-76 -55q-10 -7 -21 -7q-13 0 -23.5 10.5t-10.5 23.5q0 16 14 26z" />
    <glyph glyph-name="uni030C" unicode="&#x30c;" horiz-adv-x="0" 
d="M-44 837q15 0 24.5 -9t9.5 -24q0 -8 -5 -16.5t-14 -14.5l-68 -45q-15 -9 -30 -9q-16 0 -31 9l-71 42q-9 5 -14 13.5t-5 17.5q0 14 9.5 23t24.5 9q11 0 23 -6l62 -35l62 38q11 7 23 7z" />
    <glyph glyph-name="uni0326" unicode="&#x326;" horiz-adv-x="0" 
d="M-73 -165q-15 0 -24 10.5t-9 23.5q0 5 1 8l28 70q4 10 12 16t19 6q14 0 25 -9.5t11 -23.5q0 -9 -3 -15l-25 -63q-9 -23 -35 -23z" />
    <glyph glyph-name="uni0327" unicode="&#x327;" horiz-adv-x="0" 
d="M-30 -44q20 -20 20 -50q0 -35 -24 -56t-65 -21q-37 0 -59 13q-17 10 -17 26q0 10 7 18t18 8q13 0 25 -7q16 -7 28 -7q14 0 22.5 7t8.5 18q0 12 -9 18t-24 6q-7 0 -13 -1t-12 -1q-24 0 -24 20q0 7 1 11l35 84l46 -17l-21 -48q37 -1 57 -21z" />
    <glyph glyph-name="uni0328" unicode="&#x328;" horiz-adv-x="0" 
d="M-21 15q-25 -16 -34.5 -30t-9.5 -29q0 -12 8 -19t22 -13q25 -9 25 -29q0 -16 -11 -25t-29 -8q-37 3 -59 23t-22 51q0 57 54 90z" />
    <glyph glyph-name="uni03BC" unicode="&#x3bc;" horiz-adv-x="514" 
d="M451.5 481.5q18.5 -18.5 18.5 -46.5v-370q0 -28 -18.5 -46.5t-46.5 -18.5q-23 0 -40.5 13.5t-22.5 35.5q-45 -58 -125 -58q-22 0 -43 6v-92q0 -28 -18.5 -46.5t-46.5 -18.5t-46.5 18.5t-18.5 46.5v530q0 28 18.5 46.5t46.5 18.5t46.5 -18.5t18.5 -46.5v-240q0 -36 23 -60
t60 -24t60 24t23 60v240q0 28 18.5 46.5t46.5 18.5t46.5 -18.5z" />
    <glyph glyph-name="Wgrave" unicode="&#x1e80;" horiz-adv-x="993" 
d="M947 668.5q29 -31.5 29 -73.5q0 -18 -6 -36l-163 -470q-14 -41 -45.5 -65t-77.5 -24q-47 0 -78.5 24t-43.5 64l-65 223l-66 -223q-12 -40 -43.5 -64t-78.5 -24q-46 0 -77.5 24t-45.5 65l-163 470q-6 18 -6 36q0 42 29 73.5t74 31.5q37 0 64.5 -21t36.5 -54l87 -319
l88 319q9 33 36 54t64 21t64 -21t36 -54l89 -319l87 319q9 33 36.5 54t64.5 21q45 0 74 -31.5zM553.5 771.5q4.5 -8.5 4.5 -17.5q0 -15 -10.5 -25t-24.5 -10q-9 0 -16 4l-100 51q-7 4 -12 12.5t-5 17.5q0 15 11 25t24 10q8 0 14 -3l101 -52q9 -4 13.5 -12.5z" />
    <glyph glyph-name="wgrave" unicode="&#x1e81;" horiz-adv-x="993" 
d="M947 668.5q29 -31.5 29 -73.5q0 -18 -6 -36l-163 -470q-14 -41 -45.5 -65t-77.5 -24q-47 0 -78.5 24t-43.5 64l-65 223l-66 -223q-12 -40 -43.5 -64t-78.5 -24q-46 0 -77.5 24t-45.5 65l-163 470q-6 18 -6 36q0 42 29 73.5t74 31.5q37 0 64.5 -21t36.5 -54l87 -319
l88 319q9 33 36 54t64 21t64 -21t36 -54l89 -319l87 319q9 33 36.5 54t64.5 21q45 0 74 -31.5zM553.5 771.5q4.5 -8.5 4.5 -17.5q0 -15 -10.5 -25t-24.5 -10q-9 0 -16 4l-100 51q-7 4 -12 12.5t-5 17.5q0 15 11 25t24 10q8 0 14 -3l101 -52q9 -4 13.5 -12.5z" />
    <glyph glyph-name="Wacute" unicode="&#x1e82;" horiz-adv-x="993" 
d="M947 668.5q29 -31.5 29 -73.5q0 -18 -6 -36l-163 -470q-14 -41 -45.5 -65t-77.5 -24q-47 0 -78.5 24t-43.5 64l-65 223l-66 -223q-12 -40 -43.5 -64t-78.5 -24q-46 0 -77.5 24t-45.5 65l-163 470q-6 18 -6 36q0 42 29 73.5t74 31.5q37 0 64.5 -21t36.5 -54l87 -319
l88 319q9 33 36 54t64 21t64 -21t36 -54l89 -319l87 319q9 33 36.5 54t64.5 21q45 0 74 -31.5zM553 836q6 3 14 3q13 0 24 -10t11 -25q0 -9 -5 -17.5t-12 -12.5l-100 -51q-7 -4 -16 -4q-14 0 -24.5 10t-10.5 25q0 9 4.5 17.5t13.5 12.5z" />
    <glyph glyph-name="wacute" unicode="&#x1e83;" horiz-adv-x="993" 
d="M947 668.5q29 -31.5 29 -73.5q0 -18 -6 -36l-163 -470q-14 -41 -45.5 -65t-77.5 -24q-47 0 -78.5 24t-43.5 64l-65 223l-66 -223q-12 -40 -43.5 -64t-78.5 -24q-46 0 -77.5 24t-45.5 65l-163 470q-6 18 -6 36q0 42 29 73.5t74 31.5q37 0 64.5 -21t36.5 -54l87 -319
l88 319q9 33 36 54t64 21t64 -21t36 -54l89 -319l87 319q9 33 36.5 54t64.5 21q45 0 74 -31.5zM553 836q6 3 14 3q13 0 24 -10t11 -25q0 -9 -5 -17.5t-12 -12.5l-100 -51q-7 -4 -16 -4q-14 0 -24.5 10t-10.5 25q0 9 4.5 17.5t13.5 12.5z" />
    <glyph glyph-name="Wdieresis" unicode="&#x1e84;" horiz-adv-x="993" 
d="M947 668.5q29 -31.5 29 -73.5q0 -18 -6 -36l-163 -470q-14 -41 -45.5 -65t-77.5 -24q-47 0 -78.5 24t-43.5 64l-65 223l-66 -223q-12 -40 -43.5 -64t-78.5 -24q-46 0 -77.5 24t-45.5 65l-163 470q-6 18 -6 36q0 42 29 73.5t74 31.5q37 0 64.5 -21t36.5 -54l87 -319
l88 319q9 33 36 54t64 21t64 -21t36 -54l89 -319l87 319q9 33 36.5 54t64.5 21q45 0 74 -31.5zM331.5 709.5q-14.5 14.5 -14.5 35.5t14.5 35.5t36.5 14.5t36.5 -14.5t14.5 -35.5t-14.5 -35.5t-36.5 -14.5t-36.5 14.5zM587.5 709.5q-14.5 14.5 -14.5 35.5t14.5 35.5
t36.5 14.5t36.5 -14.5t14.5 -35.5t-14.5 -35.5t-36.5 -14.5t-36.5 14.5z" />
    <glyph glyph-name="wdieresis" unicode="&#x1e85;" horiz-adv-x="993" 
d="M947 668.5q29 -31.5 29 -73.5q0 -18 -6 -36l-163 -470q-14 -41 -45.5 -65t-77.5 -24q-47 0 -78.5 24t-43.5 64l-65 223l-66 -223q-12 -40 -43.5 -64t-78.5 -24q-46 0 -77.5 24t-45.5 65l-163 470q-6 18 -6 36q0 42 29 73.5t74 31.5q37 0 64.5 -21t36.5 -54l87 -319
l88 319q9 33 36 54t64 21t64 -21t36 -54l89 -319l87 319q9 33 36.5 54t64.5 21q45 0 74 -31.5zM331.5 709.5q-14.5 14.5 -14.5 35.5t14.5 35.5t36.5 14.5t36.5 -14.5t14.5 -35.5t-14.5 -35.5t-36.5 -14.5t-36.5 14.5zM587.5 709.5q-14.5 14.5 -14.5 35.5t14.5 35.5
t36.5 14.5t36.5 -14.5t14.5 -35.5t-14.5 -35.5t-36.5 -14.5t-36.5 14.5z" />
    <glyph glyph-name="Ygrave" unicode="&#x1ef2;" horiz-adv-x="642" 
d="M620 546l-196 -298v-143q0 -43 -30.5 -74t-74.5 -31q-43 0 -74 31t-31 74v147l-192 294q-16 25 -16 54q0 41 32 70.5t76 29.5q33 0 56.5 -17t43.5 -51l107 -178l107 178q20 34 43 51t56 17q45 0 77 -29.5t32 -70.5q0 -29 -16 -54zM376.5 771.5q4.5 -8.5 4.5 -17.5
q0 -15 -10.5 -25t-24.5 -10q-9 0 -16 4l-100 51q-7 4 -12 12.5t-5 17.5q0 15 11 25t24 10q8 0 14 -3l101 -52q9 -4 13.5 -12.5z" />
    <glyph glyph-name="ygrave" unicode="&#x1ef3;" horiz-adv-x="642" 
d="M620 546l-196 -298v-143q0 -43 -30.5 -74t-74.5 -31q-43 0 -74 31t-31 74v147l-192 294q-16 25 -16 54q0 41 32 70.5t76 29.5q33 0 56.5 -17t43.5 -51l107 -178l107 178q20 34 43 51t56 17q45 0 77 -29.5t32 -70.5q0 -29 -16 -54zM376.5 771.5q4.5 -8.5 4.5 -17.5
q0 -15 -10.5 -25t-24.5 -10q-9 0 -16 4l-100 51q-7 4 -12 12.5t-5 17.5q0 15 11 25t24 10q8 0 14 -3l101 -52q9 -4 13.5 -12.5z" />
    <glyph glyph-name="endash" unicode="&#x2013;" horiz-adv-x="638" 
d="M597 411.5q29 -28.5 29 -69.5t-29 -70t-70 -29h-417q-41 0 -69.5 29t-28.5 70t29 69.5t69 28.5h417q41 0 70 -28.5z" />
    <glyph glyph-name="emdash" unicode="&#x2014;" horiz-adv-x="838" 
d="M797 411.5q29 -28.5 29 -69.5t-29 -70t-70 -29h-617q-41 0 -69.5 29t-28.5 70t29 69.5t69 28.5h617q41 0 70 -28.5z" />
    <glyph glyph-name="quoteleft" unicode="&#x2018;" horiz-adv-x="221" 
d="M117 566q42 0 68 -28t26 -64q0 -40 -28 -68.5t-68 -28.5q-41 0 -73 30.5t-32 85.5q0 76 37 130t97 75q8 3 15 3q16 0 26 -11t10 -26q0 -23 -21 -34q-31 -16 -48 -31t-24 -34q5 1 15 1z" />
    <glyph glyph-name="quoteright" unicode="&#x2019;" horiz-adv-x="221" 
d="M179 670.5q32 -30.5 32 -85.5q0 -76 -37 -130t-97 -75q-7 -3 -15 -3q-16 0 -26 11t-10 26q0 23 21 34q31 16 48 31t24 34q-5 -1 -15 -1q-42 0 -68 28t-26 64q0 40 28 68.5t68 28.5q41 0 73 -30.5z" />
    <glyph glyph-name="quotesinglbase" unicode="&#x201a;" horiz-adv-x="221" 
d="M179 168.5q32 -30.5 32 -85.5q0 -76 -37 -130t-97 -75q-7 -3 -15 -3q-16 0 -26 11t-10 26q0 23 21 34q31 16 48 31t24 34q-5 -1 -15 -1q-42 0 -68 28t-26 64q0 40 28 68.5t68 28.5q41 0 73 -30.5z" />
    <glyph glyph-name="quotedblleft" unicode="&#x201c;" horiz-adv-x="450" 
d="M117 566q42 0 68 -28t26 -64q0 -40 -28 -68.5t-68 -28.5q-41 0 -73 30.5t-32 85.5q0 76 37 130t97 75q8 3 15 3q16 0 26 -11t10 -26q0 -23 -21 -34q-31 -16 -48 -31t-24 -34q5 1 15 1zM346 566q42 0 68 -28t26 -64q0 -40 -28 -68.5t-68 -28.5q-41 0 -73 30.5t-32 85.5
q0 76 37 130t97 75q8 3 15 3q16 0 26 -11t10 -26q0 -23 -21 -34q-31 -16 -48 -31t-24 -34q5 1 15 1z" />
    <glyph glyph-name="quotedblright" unicode="&#x201d;" horiz-adv-x="450" 
d="M179 670.5q32 -30.5 32 -85.5q0 -76 -37 -130t-97 -75q-7 -3 -15 -3q-16 0 -26 11t-10 26q0 23 21 34q31 16 48 31t24 34q-5 -1 -15 -1q-42 0 -68 28t-26 64q0 40 28 68.5t68 28.5q41 0 73 -30.5zM408 670.5q32 -30.5 32 -85.5q0 -76 -37 -130t-97 -75q-7 -3 -15 -3
q-16 0 -26 11t-10 26q0 23 21 34q31 16 48 31t24 34q-5 -1 -15 -1q-42 0 -68 28t-26 64q0 40 28 68.5t68 28.5q41 0 73 -30.5z" />
    <glyph glyph-name="quotedblbase" unicode="&#x201e;" horiz-adv-x="450" 
d="M179 168.5q32 -30.5 32 -85.5q0 -76 -37 -130t-97 -75q-7 -3 -15 -3q-16 0 -26 11t-10 26q0 23 21 34q31 16 48 31t24 34q-5 -1 -15 -1q-42 0 -68 28t-26 64q0 40 28 68.5t68 28.5q41 0 73 -30.5zM408 168.5q32 -30.5 32 -85.5q0 -76 -37 -130t-97 -75q-7 -3 -15 -3
q-16 0 -26 11t-10 26q0 23 21 34q31 16 48 31t24 34q-5 -1 -15 -1q-42 0 -68 28t-26 64q0 40 28 68.5t68 28.5q41 0 73 -30.5z" />
    <glyph glyph-name="bullet" unicode="&#x2022;" horiz-adv-x="342" 
d="M85 266q-35 35 -35 86t35 86t86 35t86 -35t35 -86t-35 -86t-86 -35t-86 35z" />
    <glyph glyph-name="ellipsis" unicode="&#x2026;" horiz-adv-x="704" 
d="M509.5 31.5q-31.5 31.5 -31.5 76.5t31.5 76.5t76.5 31.5t76.5 -31.5t31.5 -76.5t-31.5 -76.5t-76.5 -31.5t-76.5 31.5zM275.5 31.5q-31.5 31.5 -31.5 76.5t31.5 76.5t76.5 31.5t76.5 -31.5t31.5 -76.5t-31.5 -76.5t-76.5 -31.5t-76.5 31.5zM41.5 31.5
q-31.5 31.5 -31.5 76.5t31.5 76.5t76.5 31.5t76.5 -31.5t31.5 -76.5t-31.5 -76.5t-76.5 -31.5t-76.5 31.5z" />
    <glyph glyph-name="perthousand" unicode="&#x2030;" horiz-adv-x="1123" 
d="M495.5 10q-38.5 21 -61 57.5t-22.5 82.5t22.5 83t61 58t82.5 21t82 -21t60.5 -58t22.5 -83t-22.5 -82.5t-60.5 -57.5t-82 -21t-82.5 21zM616 110q16 16 16 40q0 25 -16 41t-38 16t-38.5 -16t-16.5 -41q0 -24 16.5 -40t38.5 -16t38 16zM628 623l-420 -603
q-7 -10 -18 -15.5t-23 -5.5q-21 0 -34.5 15t-13.5 34q0 17 9 29l420 603q7 10 18 15.5t23 5.5q20 0 34 -14.5t14 -34.5q0 -17 -9 -29zM93.5 407q-38.5 21 -61 57.5t-22.5 82.5t22.5 83t61 58t82.5 21t82 -21t60.5 -58t22.5 -83t-22.5 -82.5t-60.5 -57.5t-82 -21t-82.5 21z
M214 507q16 16 16 40q0 25 -16 41t-38 16t-38.5 -16t-16.5 -41q0 -24 16.5 -40t38.5 -16t38 16zM865.5 10q-38.5 21 -61 57.5t-22.5 82.5t22.5 83t61 58t82.5 21t82 -21t60.5 -58t22.5 -83t-22.5 -82.5t-60.5 -57.5t-82 -21t-82.5 21zM986 110q16 16 16 40q0 25 -16 41
t-38 16t-38.5 -16t-16.5 -41q0 -24 16.5 -40t38.5 -16t38 16z" />
    <glyph glyph-name="guilsinglleft" unicode="&#x2039;" horiz-adv-x="331" 
d="M36 320l156 156q23 23 51 23q29 0 50.5 -22.5t21.5 -51.5t-21 -50l-108 -108l108 -109q22 -22 22 -51t-22.5 -50.5t-51.5 -21.5q-28 0 -50 22l-156 156q-24 24 -24 54q0 29 24 53z" />
    <glyph glyph-name="guilsinglright" unicode="&#x203a;" horiz-adv-x="331" 
d="M139 57q-22 -22 -50 -22q-29 0 -51.5 21.5t-22.5 50.5t22 51l108 109l-108 108q-21 21 -21 50t21.5 51.5t50.5 22.5q28 0 51 -23l156 -156q24 -24 24 -53q0 -30 -24 -54z" />
    <glyph glyph-name="fraction" unicode="&#x2044;" horiz-adv-x="118" 
d="M309 623l-420 -603q-7 -10 -18 -15.5t-23 -5.5q-21 0 -34.5 15t-13.5 34q0 17 9 29l420 603q7 10 18 15.5t23 5.5q20 0 34 -14.5t14 -34.5q0 -17 -9 -29z" />
    <glyph glyph-name="Euro" unicode="&#x20ac;" horiz-adv-x="741" 
d="M688 222q30 -31 30 -73q0 -44 -38 -78q-92 -81 -236 -81q-86 0 -159 36t-123 99.5t-67 143.5h-40q-13 0 -21.5 8.5t-8.5 21.5t8.5 21.5t21.5 8.5h32q-1 7 -1 21v19h-31q-13 0 -21.5 8.5t-8.5 21.5t8.5 21.5t21.5 8.5h39q17 81 67 145t123.5 100t159.5 36q144 0 236 -81
q38 -34 38 -78q0 -42 -30 -73.5t-73 -31.5q-29 0 -54 15q-33 20 -57.5 29.5t-59.5 9.5q-41 0 -74 -19t-52 -52h207q13 0 21.5 -8.5t8.5 -21.5t-8.5 -21.5t-21.5 -8.5h-227q-1 -6 -1 -19q0 -14 1 -21h207q13 0 21.5 -8.5t8.5 -21.5t-8.5 -21.5t-21.5 -8.5h-186
q19 -32 51.5 -50.5t73.5 -18.5q35 0 59.5 9.5t57.5 29.5q23 14 54 14q43 0 73 -31z" />
    <glyph glyph-name="trademark" unicode="&#x2122;" horiz-adv-x="740" 
d="M310 682.5q18 -17.5 18 -42.5q0 -26 -17.5 -44t-43.5 -18h-31v-128q0 -27 -19.5 -46t-45.5 -19q-27 0 -46 19t-19 46v128h-40q-26 0 -43.5 18t-17.5 44q0 25 18 42.5t43 17.5h201q25 0 43 -17.5zM712 681.5q18 -18.5 18 -45.5v-187q0 -27 -18 -45.5t-45 -18.5
q-26 0 -44.5 18.5t-18.5 45.5v25l-25 -38q-6 -10 -16 -16.5t-21 -6.5t-21 6.5t-16 16.5l-25 39v-26q0 -27 -18 -45.5t-45 -18.5t-45 18.5t-18 45.5v187q0 27 18 45.5t46 18.5q23 0 38.5 -10t30.5 -32l55 -79l55 79q15 21 30.5 31.5t38.5 10.5q28 0 46 -18.5z" />
    <glyph glyph-name="minus" unicode="&#x2212;" horiz-adv-x="544" 
d="M505 421.5q29 -28.5 29 -69.5t-29 -70t-70 -29h-327q-41 0 -69.5 29t-28.5 70t29 69.5t69 28.5h327q41 0 70 -28.5z" />
    <glyph glyph-name="integral" unicode="&#x222b;" horiz-adv-x="960" 
d="M716.5 804.5q92.5 -61.5 143 -158t50.5 -212.5q0 -126 -58.5 -230t-161.5 -164t-230 -60q-105 0 -198 42.5t-155 118.5l1 2q40 -17 88 -17q64 0 96.5 34t50.5 89q19 60 38.5 89t68.5 72q60 53 83 93.5t23 92.5q0 94 -60 160q22 -78 22 -147q0 -40 -12.5 -69.5t-30.5 -49
t-53 -50.5q-44 -39 -72 -75.5t-43 -94.5q-9 -34 -19.5 -45t-31.5 -11q-24 0 -34 12.5t-20 53.5q-14 58 -33.5 86.5t-49.5 53.5q-24 20 -37.5 38t-22.5 55t-9 101q0 46 4 125t11 157h1l88 -119q25 15 59 24t69 9q53 0 99 -19l22 29q-51 20 -108 20q-58 0 -113 -20l-1 2
q55 32 121.5 47t134.5 15h14l46 60h1l5 -64q121 -14 213.5 -75.5zM217 480q-25 34 -63 46q-14 -15 -18 -37l1 -1q43 0 80 -10v2z" />
    <glyph glyph-name="Aring.ss01" 
d="M663 104q0 -44 -29 -74t-74 -30q-35 0 -61.5 18t-37.5 50l-14 41h-224l-14 -41q-11 -32 -37.5 -50t-60.5 -18q-46 0 -75 30t-29 74q0 27 10 50l195 461q37 85 123 85q87 0 124 -85l194 -461q10 -23 10 -50zM387 278l-52 147l-52 -147h104zM275.5 735q-24.5 24 -24.5 58
t24.5 58t59.5 24t59.5 -24t24.5 -58t-24.5 -58t-59.5 -24t-59.5 24zM362.5 765.5q11.5 11.5 11.5 27.5q0 17 -11.5 28t-27.5 11q-17 0 -28 -11t-11 -28q0 -16 11 -27.5t28 -11.5q16 0 27.5 11.5z" />
    <glyph glyph-name="Q.ss01" horiz-adv-x="768" 
d="M718 220q-24 -62 -67 -111q21 -28 21 -62q0 -42 -29.5 -73.5t-75.5 -31.5q-26 0 -49 12.5t-38 33.5l-9 12q-47 -10 -87 -10q-99 0 -181 48.5t-129.5 131t-47.5 180.5t47.5 180.5t129.5 131t181 48.5t181 -48.5t129.5 -131t47.5 -180.5q0 -68 -24 -130zM264.5 259.5
q28.5 -39.5 75.5 -53.5l-1 12q0 42 30 73.5t75 31.5q22 0 41.5 -9t34.5 -24q12 27 12 60q0 42 -19.5 76t-53 54t-75.5 20t-75.5 -20t-53 -54t-19.5 -76q0 -51 28.5 -90.5z" />
    <glyph glyph-name="aring.ss01" 
d="M663 104q0 -44 -29 -74t-74 -30q-35 0 -61.5 18t-37.5 50l-14 41h-224l-14 -41q-11 -32 -37.5 -50t-60.5 -18q-46 0 -75 30t-29 74q0 27 10 50l195 461q37 85 123 85q87 0 124 -85l194 -461q10 -23 10 -50zM387 278l-52 147l-52 -147h104zM275.5 735q-24.5 24 -24.5 58
t24.5 58t59.5 24t59.5 -24t24.5 -58t-24.5 -58t-59.5 -24t-59.5 24zM362.5 765.5q11.5 11.5 11.5 27.5q0 17 -11.5 28t-27.5 11q-17 0 -28 -11t-11 -28q0 -16 11 -27.5t28 -11.5q16 0 27.5 11.5z" />
    <glyph glyph-name="i.loclTRK" horiz-adv-x="298" 
d="M223.5 669.5q30.5 -30.5 30.5 -74.5v-490q0 -43 -30.5 -74t-74.5 -31q-43 0 -74 31t-31 74v490q0 44 31 74.5t74 30.5q44 0 74.5 -30.5zM112.5 732.5q-14.5 14.5 -14.5 35.5t14.5 35.5t36.5 14.5t36.5 -14.5t14.5 -35.5t-14.5 -35.5t-36.5 -14.5t-36.5 14.5z" />
    <glyph glyph-name="q.ss01" horiz-adv-x="768" 
d="M718 220q-24 -62 -67 -111q21 -28 21 -62q0 -42 -29.5 -73.5t-75.5 -31.5q-26 0 -49 12.5t-38 33.5l-9 12q-47 -10 -87 -10q-99 0 -181 48.5t-129.5 131t-47.5 180.5t47.5 180.5t129.5 131t181 48.5t181 -48.5t129.5 -131t47.5 -180.5q0 -68 -24 -130zM264.5 259.5
q28.5 -39.5 75.5 -53.5l-1 12q0 42 30 73.5t75 31.5q22 0 41.5 -9t34.5 -24q12 27 12 60q0 42 -19.5 76t-53 54t-75.5 20t-75.5 -20t-53 -54t-19.5 -76q0 -51 28.5 -90.5z" />
    <glyph glyph-name="zero.pcnt" horiz-adv-x="351" 
d="M93.5 407q-38.5 21 -61 57.5t-22.5 82.5t22.5 83t61 58t82.5 21t82 -21t60.5 -58t22.5 -83t-22.5 -82.5t-60.5 -57.5t-82 -21t-82.5 21zM214 507q16 16 16 40q0 25 -16 41t-38 16t-38.5 -16t-16.5 -41q0 -24 16.5 -40t38.5 -16t38 16z" />
    <glyph glyph-name="one.superior" horiz-adv-x="264" 
d="M189.5 683.5q17.5 -16.5 17.5 -40.5v-264q0 -24 -17.5 -40.5t-42.5 -16.5t-42 16.5t-17 40.5v210h-11q-24 0 -40.5 16t-16.5 40q0 23 16.5 39t40.5 16h70q25 0 42.5 -16.5z" />
    <glyph glyph-name="two.superior" horiz-adv-x="327" 
d="M288 415q16 -15 16 -36q0 -22 -15.5 -37t-38.5 -15h-178q-22 0 -37.5 15t-15.5 37q0 20 19 41l80 81q37 37 48 52.5t11 31.5q0 10 -7.5 16t-18.5 6t-19 -5t-20 -17q-8 -8 -16.5 -11.5t-21.5 -3.5q-23 0 -38.5 14t-15.5 37q0 18 12 36q16 25 48 39t70 14q70 0 106 -34.5
t36 -88.5q0 -38 -22.5 -72t-71.5 -83l-2 -2h54q22 0 38 -15z" />
    <glyph glyph-name="three.superior" horiz-adv-x="303" 
d="M290 441q0 -29 -16.5 -56.5t-48 -45t-73.5 -17.5q-65 0 -105 32q-19 16 -19 38t14.5 37.5t37.5 15.5q14 0 26 -6q28 -14 46 -14q10 0 16.5 5.5t6.5 14.5q0 10 -8 15.5t-23 5.5h-8q-26 0 -41 14t-15 37t15.5 38t40.5 15h8q27 0 27 21q0 9 -6 14t-18 5q-16 0 -34 -13
q-16 -11 -32 -11q-21 0 -36 15.5t-15 36.5t16 37q36 36 102 36q62 0 96.5 -30t34.5 -74q0 -52 -36 -79q47 -28 47 -87z" />
    <glyph glyph-name="four.superiour" horiz-adv-x="339" 
d="M335 481q16 -16 16 -40q0 -23 -16 -39.5t-41 -16.5v-7q0 -24 -16 -40t-40 -16t-40 16t-16 40v7h-117q-25 0 -41.5 16.5t-16.5 39.5q0 18 10 38l92 190q8 16 22 25t31 9q26 0 42 -16t16 -39q0 -16 -7 -29l-62 -122h31v8q0 24 16 40t40 16t40 -16t16 -40v-8q25 0 41 -16z
" />
    <glyph glyph-name="two.dnom" horiz-adv-x="327" 
d="M288 88q16 -15 16 -36q0 -22 -15.5 -37t-38.5 -15h-178q-22 0 -37.5 15t-15.5 37q0 20 19 41l80 81q37 37 48 52.5t11 31.5q0 10 -7.5 16t-18.5 6t-19 -5t-20 -17q-8 -8 -16.5 -11.5t-21.5 -3.5q-23 0 -38.5 14t-15.5 37q0 18 12 36q16 25 48 39t70 14q70 0 106 -34.5
t36 -88.5q0 -38 -22.5 -72t-71.5 -83l-2 -2h54q22 0 38 -15z" />
    <glyph glyph-name="four.dnom" horiz-adv-x="339" 
d="M335 153q16 -16 16 -40q0 -23 -16 -39.5t-41 -16.5v-7q0 -24 -16 -40t-40 -16t-40 16t-16 40v7h-117q-25 0 -41.5 16.5t-16.5 39.5q0 18 10 38l92 190q8 16 22 25t31 9q26 0 42 -16t16 -39q0 -16 -7 -29l-62 -122h31v8q0 24 16 40t40 16t40 -16t16 -40v-8q25 0 41 -16z
" />
    <glyph glyph-name="one.numr" horiz-adv-x="264" 
d="M189.5 683.5q17.5 -16.5 17.5 -40.5v-264q0 -24 -17.5 -40.5t-42.5 -16.5t-42 16.5t-17 40.5v210h-11q-24 0 -40.5 16t-16.5 40q0 23 16.5 39t40.5 16h70q25 0 42.5 -16.5z" />
    <glyph glyph-name="two.numr" horiz-adv-x="327" 
d="M288 415q16 -15 16 -36q0 -22 -15.5 -37t-38.5 -15h-178q-22 0 -37.5 15t-15.5 37q0 20 19 41l80 81q37 37 48 52.5t11 31.5q0 10 -7.5 16t-18.5 6t-19 -5t-20 -17q-8 -8 -16.5 -11.5t-21.5 -3.5q-23 0 -38.5 14t-15.5 37q0 18 12 36q16 25 48 39t70 14q70 0 106 -34.5
t36 -88.5q0 -38 -22.5 -72t-71.5 -83l-2 -2h54q22 0 38 -15z" />
    <glyph glyph-name="three.numr" horiz-adv-x="303" 
d="M290 441q0 -29 -16.5 -56.5t-48 -45t-73.5 -17.5q-65 0 -105 32q-19 16 -19 38t14.5 37.5t37.5 15.5q14 0 26 -6q28 -14 46 -14q10 0 16.5 5.5t6.5 14.5q0 10 -8 15.5t-23 5.5h-8q-26 0 -41 14t-15 37t15.5 38t40.5 15h8q27 0 27 21q0 9 -6 14t-18 5q-16 0 -34 -13
q-16 -11 -32 -11q-21 0 -36 15.5t-15 36.5t16 37q36 36 102 36q62 0 96.5 -30t34.5 -74q0 -52 -36 -79q47 -28 47 -87z" />
    <glyph glyph-name="caroncomb.alt" horiz-adv-x="0" 
d="M-54.5 521q-8.5 -6 -19.5 -6q-16 0 -25 9.5t-9 23.5q0 6 1 9l27 106q3 12 12.5 19.5t21.5 7.5q17 0 26.5 -10t9.5 -24q0 -6 -1 -9l-31 -108q-4 -12 -12.5 -18z" />
    <glyph glyph-name="uni0308.case" horiz-adv-x="0" 
d="M-353.5 732.5q-14.5 14.5 -14.5 35.5t14.5 35.5t36.5 14.5t36.5 -14.5t14.5 -35.5t-14.5 -35.5t-36.5 -14.5t-36.5 14.5zM-97.5 732.5q-14.5 14.5 -14.5 35.5t14.5 35.5t36.5 14.5t36.5 -14.5t14.5 -35.5t-14.5 -35.5t-36.5 -14.5t-36.5 14.5z" />
    </font>
</defs>
</svg>
